<?xml version="1.0" encoding="UTF-8" standalone="no"?>
<!-- Created with Inkscape (http://www.inkscape.org/) -->

<svg
   xmlns:dc="http://purl.org/dc/elements/1.1/"
   xmlns:cc="http://creativecommons.org/ns#"
   xmlns:rdf="http://www.w3.org/1999/02/22-rdf-syntax-ns#"
   xmlns:svg="http://www.w3.org/2000/svg"
   xmlns="http://www.w3.org/2000/svg"
   xmlns:sodipodi="http://sodipodi.sourceforge.net/DTD/sodipodi-0.dtd"
   xmlns:inkscape="http://www.inkscape.org/namespaces/inkscape"
   width="183.18889"
   height="165.24977"
   id="svg5244"
   version="1.1"
   inkscape:version="0.48.4 r9939"
   sodipodi:docname="lawine.svg">
  <sodipodi:namedview
     id="base"
     pagecolor="#ffffff"
     bordercolor="#666666"
     borderopacity="1.0"
     inkscape:pageopacity="0.0"
     inkscape:pageshadow="2"
     inkscape:zoom="1.979899"
     inkscape:cx="129.82038"
     inkscape:cy="98.273391"
     inkscape:document-units="px"
     inkscape:current-layer="svg5244"
     showgrid="false"
     inkscape:window-width="1280"
     inkscape:window-height="751"
     inkscape:window-x="0"
     inkscape:window-y="25"
     inkscape:window-maximized="1"
     fit-margin-top="0"
     fit-margin-left="0"
     fit-margin-right="0"
     fit-margin-bottom="0">
    <inkscape:grid
       type="xygrid"
       id="grid5336"
       empspacing="5"
       visible="true"
       enabled="true"
       snapvisiblegridlinesonly="true"
       originx="-288.50446px"
       originy="-557.16992px" />
  </sodipodi:namedview>
  <defs
     id="defs5246">
    <marker
       inkscape:stockid="Arrow1Mstart"
       orient="auto"
       refY="0"
       refX="0"
       id="Arrow1Mstart"
       style="overflow:visible">
      <path
         id="path4080"
         d="M 0,0 5,-5 -12.5,0 5,5 0,0 z"
         style="fill-rule:evenodd;stroke:#000000;stroke-width:1pt"
         transform="matrix(0.4,0,0,0.4,4,0)"
         inkscape:connector-curvature="0" />
    </marker>
    <marker
       inkscape:stockid="Arrow1Mend"
       orient="auto"
       refY="0"
       refX="0"
       id="Arrow1Mend"
       style="overflow:visible">
      <path
         id="path4083"
         d="M 0,0 5,-5 -12.5,0 5,5 0,0 z"
         style="fill-rule:evenodd;stroke:#000000;stroke-width:1pt"
         transform="matrix(-0.4,0,0,-0.4,-4,0)"
         inkscape:connector-curvature="0" />
    </marker>
    <marker
       inkscape:stockid="Arrow1MendZ"
       orient="auto"
       refY="0"
       refX="0"
       id="Arrow1MendZ"
       style="overflow:visible">
      <path
         id="path9463"
         d="M 0,0 5,-5 -12.5,0 5,5 0,0 z"
         style="fill:#00009f;fill-rule:evenodd;stroke:#00009f;stroke-width:1pt"
         transform="matrix(-0.4,0,0,-0.4,-4,0)"
         inkscape:connector-curvature="0" />
    </marker>
    <marker
       inkscape:stockid="Arrow1MstartV"
       orient="auto"
       refY="0"
       refX="0"
       id="Arrow1MstartV"
       style="overflow:visible">
      <path
         id="path9466"
         d="M 0,0 5,-5 -12.5,0 5,5 0,0 z"
         style="fill:#00009f;fill-rule:evenodd;stroke:#00009f;stroke-width:1pt"
         transform="matrix(0.4,0,0,0.4,4,0)"
         inkscape:connector-curvature="0" />
    </marker>
    <marker
       inkscape:stockid="Arrow1Mendt"
       orient="auto"
       refY="0"
       refX="0"
       id="Arrow1Mendt"
       style="overflow:visible">
      <path
         id="path9469"
         d="M 0,0 5,-5 -12.5,0 5,5 0,0 z"
         style="fill:#00009f;fill-rule:evenodd;stroke:#00009f;stroke-width:1pt"
         transform="matrix(-0.4,0,0,-0.4,-4,0)"
         inkscape:connector-curvature="0" />
    </marker>
    <marker
       inkscape:stockid="Arrow1Mstarto"
       orient="auto"
       refY="0"
       refX="0"
       id="Arrow1Mstarto"
       style="overflow:visible">
      <path
         id="path9580"
         d="M 0,0 5,-5 -12.5,0 5,5 0,0 z"
         style="fill:#00009f;fill-rule:evenodd;stroke:#00009f;stroke-width:1pt"
         transform="matrix(0.4,0,0,0.4,4,0)"
         inkscape:connector-curvature="0" />
    </marker>
    <marker
       inkscape:stockid="Arrow1Mendi"
       orient="auto"
       refY="0"
       refX="0"
       id="Arrow1Mendi"
       style="overflow:visible">
      <path
         id="path9583"
         d="M 0,0 5,-5 -12.5,0 5,5 0,0 z"
         style="fill:#00009f;fill-rule:evenodd;stroke:#00009f;stroke-width:1pt"
         transform="matrix(-0.4,0,0,-0.4,-4,0)"
         inkscape:connector-curvature="0" />
    </marker>
    <marker
       inkscape:stockid="Arrow1Mstartk"
       orient="auto"
       refY="0"
       refX="0"
       id="Arrow1Mstartk"
       style="overflow:visible">
      <path
         id="path9586"
         d="M 0,0 5,-5 -12.5,0 5,5 0,0 z"
         style="fill:#00009f;fill-rule:evenodd;stroke:#00009f;stroke-width:1pt"
         transform="matrix(0.4,0,0,0.4,4,0)"
         inkscape:connector-curvature="0" />
    </marker>
    <marker
       inkscape:stockid="Arrow1MendI"
       orient="auto"
       refY="0"
       refX="0"
       id="Arrow1MendI"
       style="overflow:visible">
      <path
         id="path9589"
         d="M 0,0 5,-5 -12.5,0 5,5 0,0 z"
         style="fill:#00009f;fill-rule:evenodd;stroke:#00009f;stroke-width:1pt"
         transform="matrix(-0.4,0,0,-0.4,-4,0)"
         inkscape:connector-curvature="0" />
    </marker>
    <marker
       inkscape:stockid="Arrow1Mstart0"
       orient="auto"
       refY="0"
       refX="0"
       id="Arrow1Mstart0"
       style="overflow:visible">
      <path
         id="path9592"
         d="M 0,0 5,-5 -12.5,0 5,5 0,0 z"
         style="fill:#00009f;fill-rule:evenodd;stroke:#00009f;stroke-width:1pt"
         transform="matrix(0.4,0,0,0.4,4,0)"
         inkscape:connector-curvature="0" />
    </marker>
    <marker
       inkscape:stockid="Arrow1Mendv"
       orient="auto"
       refY="0"
       refX="0"
       id="Arrow1Mendv"
       style="overflow:visible">
      <path
         id="path9595"
         d="M 0,0 5,-5 -12.5,0 5,5 0,0 z"
         style="fill:#00009f;fill-rule:evenodd;stroke:#00009f;stroke-width:1pt"
         transform="matrix(-0.4,0,0,-0.4,-4,0)"
         inkscape:connector-curvature="0" />
    </marker>
    <marker
       inkscape:stockid="Arrow1MstartE"
       orient="auto"
       refY="0"
       refX="0"
       id="Arrow1MstartE"
       style="overflow:visible">
      <path
         id="path9668"
         d="M 0,0 5,-5 -12.5,0 5,5 0,0 z"
         style="fill:#00009f;fill-rule:evenodd;stroke:#00009f;stroke-width:1pt"
         transform="matrix(0.4,0,0,0.4,4,0)"
         inkscape:connector-curvature="0" />
    </marker>
    <marker
       inkscape:stockid="Arrow1MendC"
       orient="auto"
       refY="0"
       refX="0"
       id="Arrow1MendC"
       style="overflow:visible">
      <path
         id="path9671"
         d="M 0,0 5,-5 -12.5,0 5,5 0,0 z"
         style="fill:#00009f;fill-rule:evenodd;stroke:#00009f;stroke-width:1pt"
         transform="matrix(-0.4,0,0,-0.4,-4,0)"
         inkscape:connector-curvature="0" />
    </marker>
    <marker
       inkscape:stockid="Arrow1Mstartq"
       orient="auto"
       refY="0"
       refX="0"
       id="Arrow1Mstartq"
       style="overflow:visible">
      <path
         id="path9674"
         d="M 0,0 5,-5 -12.5,0 5,5 0,0 z"
         style="fill:#00009f;fill-rule:evenodd;stroke:#00009f;stroke-width:1pt"
         transform="matrix(0.4,0,0,0.4,4,0)"
         inkscape:connector-curvature="0" />
    </marker>
    <marker
       inkscape:stockid="Arrow1MendU"
       orient="auto"
       refY="0"
       refX="0"
       id="Arrow1MendU"
       style="overflow:visible">
      <path
         id="path9677"
         d="M 0,0 5,-5 -12.5,0 5,5 0,0 z"
         style="fill:#00009f;fill-rule:evenodd;stroke:#00009f;stroke-width:1pt"
         transform="matrix(-0.4,0,0,-0.4,-4,0)"
         inkscape:connector-curvature="0" />
    </marker>
    <marker
       inkscape:stockid="Arrow1MstartW"
       orient="auto"
       refY="0"
       refX="0"
       id="Arrow1MstartW"
       style="overflow:visible">
      <path
         id="path9680"
         d="M 0,0 5,-5 -12.5,0 5,5 0,0 z"
         style="fill:#00009f;fill-rule:evenodd;stroke:#00009f;stroke-width:1pt"
         transform="matrix(0.4,0,0,0.4,4,0)"
         inkscape:connector-curvature="0" />
    </marker>
    <marker
       inkscape:stockid="Arrow1Mendu"
       orient="auto"
       refY="0"
       refX="0"
       id="Arrow1Mendu"
       style="overflow:visible">
      <path
         id="path9683"
         d="M 0,0 5,-5 -12.5,0 5,5 0,0 z"
         style="fill:#00009f;fill-rule:evenodd;stroke:#00009f;stroke-width:1pt"
         transform="matrix(-0.4,0,0,-0.4,-4,0)"
         inkscape:connector-curvature="0" />
    </marker>
  </defs>
  <metadata
     id="metadata5249">
    <rdf:RDF>
      <cc:Work
         rdf:about="">
        <dc:format>image/svg+xml</dc:format>
        <dc:type
           rdf:resource="http://purl.org/dc/dcmitype/StillImage" />
        <dc:title></dc:title>
      </cc:Work>
    </rdf:RDF>
  </metadata>
  <g
     inkscape:label="Layer 1"
     inkscape:groupmode="layer"
     id="layer1"
     transform="translate(-288.50446,-329.94249)" />
  <g
     id="g9767"
     transform="translate(-285.46875,-329.94249)">
    <path
       inkscape:connector-curvature="0"
       id="path5340"
       d="m 285.46311,402.36218 44.78807,0"
       style="fill:none;stroke:#00009f;stroke-width:1.20000005;stroke-linecap:butt;stroke-linejoin:miter;stroke-miterlimit:4;stroke-opacity:1;stroke-dasharray:none;marker-end:url(#Arrow1MendZ)" />
    <path
       sodipodi:nodetypes="csccc"
       inkscape:connector-curvature="0"
       id="path5342"
       d="m 373.49986,362.04968 c -0.067,0.067 -0.98214,0.44643 -1.0491,0.51339 -13.26637,13.26637 -26.53274,26.53274 -39.79911,39.79911 l 39.82143,39.82143 1.18303,0.64732"
       style="fill:none;stroke:#00009f;stroke-width:1.20000005;stroke-linecap:butt;stroke-linejoin:miter;stroke-miterlimit:4;stroke-opacity:1;stroke-dasharray:none;marker-start:url(#Arrow1MstartV);marker-end:url(#Arrow1Mendt)" />
    <path
       sodipodi:nodetypes="ccccc"
       inkscape:connector-curvature="0"
       id="path5342-2"
       d="m 417.8257,340.78764 -2.24712,0.46694 -39.82054,19.55473 38.71947,20.2478 2.61313,0.70688"
       style="fill:none;stroke:#00009f;stroke-width:1.20000005;stroke-linecap:butt;stroke-linejoin:miter;stroke-miterlimit:4;stroke-opacity:1;stroke-dasharray:none;marker-start:url(#Arrow1MstartW);marker-end:url(#Arrow1Mendu)" />
    <path
       sodipodi:nodetypes="ccc"
       inkscape:connector-curvature="0"
       id="path5342-2-1"
       d="m 459.16282,330.81697 -37.85714,9.64286 37.85714,10.35714"
       style="fill:none;stroke:#00009f;stroke-width:1.20000005;stroke-linecap:butt;stroke-linejoin:miter;stroke-miterlimit:4;stroke-opacity:1;stroke-dasharray:none;marker-start:url(#Arrow1MstartE);marker-end:url(#Arrow1MendC)" />
    <path
       sodipodi:nodetypes="ccc"
       inkscape:connector-curvature="0"
       id="path5342-2-1-5"
       d="m 458.08373,372.51209 -37.85714,9.64286 37.85714,10.35714"
       style="fill:none;stroke:#00009f;stroke-width:1.20000005;stroke-linecap:butt;stroke-linejoin:miter;stroke-miterlimit:4;stroke-opacity:1;stroke-dasharray:none;marker-start:url(#Arrow1Mstartq);marker-end:url(#Arrow1MendU)" />
    <path
       sodipodi:nodetypes="ccccc"
       inkscape:connector-curvature="0"
       id="path5342-2-5"
       d="m 418.82589,423.58986 -2.77556,0.58205 -39.75503,19.52256 38.60384,20.18733 2.92675,0.70806"
       style="fill:none;stroke:#00009f;stroke-width:1.20000005;stroke-linecap:butt;stroke-linejoin:miter;stroke-miterlimit:4;stroke-opacity:1;stroke-dasharray:none;marker-start:url(#Arrow1Mstartk);marker-end:url(#Arrow1MendI)" />
    <path
       sodipodi:nodetypes="ccc"
       inkscape:connector-curvature="0"
       id="path5342-2-1-3"
       d="m 460.193,413.57586 -37.85714,9.64286 37.85714,10.35714"
       style="fill:none;stroke:#00009f;stroke-width:1.20000005;stroke-linecap:butt;stroke-linejoin:miter;stroke-miterlimit:4;stroke-opacity:1;stroke-dasharray:none;marker-start:url(#Arrow1Mstart0);marker-end:url(#Arrow1Mendv)" />
    <path
       sodipodi:nodetypes="ccc"
       inkscape:connector-curvature="0"
       id="path5342-2-1-57"
       d="m 459.20321,455.38958 -37.85714,9.64286 37.85714,10.35714"
       style="fill:none;stroke:#00009f;stroke-width:1.20000005;stroke-linecap:butt;stroke-linejoin:miter;stroke-miterlimit:4;stroke-opacity:1;stroke-dasharray:none;marker-start:url(#Arrow1Mstarto);marker-end:url(#Arrow1Mendi)" />
  </g>
  <path
     style="fill:none;stroke:#f20001;stroke-width:1.37458706;stroke-linecap:butt;stroke-linejoin:miter;stroke-miterlimit:4;stroke-opacity:1;stroke-dasharray:none"
     d="m 89.510696,140.22915 c 0,3.55694 -2.08508,3.55694 -6.25519,3.55694 -4.17009,0 -10.42526,-1.18565 -10.42526,-1.18565 l -4.17011,4.74257 -4.17012,-4.74257 c 0,0 -6.25514,1.18565 -10.42527,1.18565 -4.17011,0 -6.25516,0 -6.25516,-3.55694"
     id="path5195"
     inkscape:connector-curvature="0"
     sodipodi:nodetypes="czccczc" />
  <path
     style="fill:none;stroke:#f20001;stroke-width:1.37458706;stroke-linecap:butt;stroke-linejoin:miter;stroke-miterlimit:4;stroke-opacity:1;stroke-dasharray:none"
     d="m 132.68601,140.28607 c 0,3.55694 -2.08508,3.55694 -6.25519,3.55694 -4.17009,0 -10.42526,-1.18565 -10.42526,-1.18565 l -4.17011,4.74257 -4.17012,-4.74257 c 0,0 -6.25514,1.18565 -10.425274,1.18565 -4.17011,0 -6.25516,0 -6.25516,-3.55694"
     id="path5195-3"
     inkscape:connector-curvature="0"
     sodipodi:nodetypes="czccczc" />
  <text
     xml:space="preserve"
     style="font-size:12px;font-style:normal;font-variant:normal;font-weight:normal;font-stretch:normal;text-align:start;line-height:125%;letter-spacing:0px;word-spacing:0px;writing-mode:lr-tb;text-anchor:start;fill:#fb0000;fill-opacity:1;stroke:none;font-family:Sans;-inkscape-font-specification:Sans"
     x="61.495537"
     y="162.41969"
     id="text9795"
     sodipodi:linespacing="125%"><tspan
       sodipodi:role="line"
       id="tspan9797"
       x="61.495537"
       y="162.41969">$\lambda_e$</tspan></text>
  <text
     xml:space="preserve"
     style="font-size:12px;font-style:normal;font-variant:normal;font-weight:normal;font-stretch:normal;text-align:start;line-height:125%;letter-spacing:0px;word-spacing:0px;writing-mode:lr-tb;text-anchor:start;fill:#fb0000;fill-opacity:1;stroke:none;font-family:Sans;-inkscape-font-specification:Sans"
     x="106.49554"
     y="162.41969"
     id="text9795-5"
     sodipodi:linespacing="125%"><tspan
       sodipodi:role="line"
       id="tspan9797-3"
       x="106.49554"
       y="162.41969">$\lambda_e$</tspan></text>
</svg>
