<?xml version="1.0" encoding="UTF-8" standalone="no"?>
<!-- Created with Inkscape (http://www.inkscape.org/) -->

<svg
   xmlns:dc="http://purl.org/dc/elements/1.1/"
   xmlns:cc="http://creativecommons.org/ns#"
   xmlns:rdf="http://www.w3.org/1999/02/22-rdf-syntax-ns#"
   xmlns:svg="http://www.w3.org/2000/svg"
   xmlns="http://www.w3.org/2000/svg"
   xmlns:xlink="http://www.w3.org/1999/xlink"
   xmlns:sodipodi="http://sodipodi.sourceforge.net/DTD/sodipodi-0.dtd"
   xmlns:inkscape="http://www.inkscape.org/namespaces/inkscape"
   sodipodi:docname="rotation.svg"
   width="311.48132"
   height="41.701462"
   id="svg2"
   version="1.1"
   inkscape:version="0.48.4 r9939">
  <sodipodi:namedview
     id="base"
     pagecolor="#ffffff"
     bordercolor="#666666"
     borderopacity="1.0"
     inkscape:pageopacity="0.0"
     inkscape:pageshadow="2"
     inkscape:zoom="2.8"
     inkscape:cx="190.47703"
     inkscape:cy="25.293024"
     inkscape:document-units="px"
     inkscape:current-layer="layer1"
     showgrid="false"
     inkscape:window-width="1280"
     inkscape:window-height="751"
     inkscape:window-x="0"
     inkscape:window-y="25"
     inkscape:window-maximized="1"
     fit-margin-top="0"
     fit-margin-left="0"
     fit-margin-right="0"
     fit-margin-bottom="0">
    <inkscape:grid
       id="grid4066"
       type="xygrid"
       empspacing="5"
       visible="true"
       enabled="true"
       snapvisiblegridlinesonly="true"
       originx="-98.705307px"
       originy="-641.41128px" />
  </sodipodi:namedview>
  <defs
     id="defs4">
    <marker
       style="overflow:visible"
       id="Arrow1Mend"
       refX="0"
       refY="0"
       orient="auto"
       inkscape:stockid="Arrow1Mend">
      <path
         transform="matrix(-0.4,0,0,-0.4,-4,0)"
         style="fill-rule:evenodd;stroke:#000000;stroke-width:1pt"
         d="M 0,0 5,-5 -12.5,0 5,5 0,0 z"
         id="path4083"
         inkscape:connector-curvature="0" />
    </marker>
    <marker
       style="overflow:visible"
       id="Arrow1MendT"
       refX="0"
       refY="0"
       orient="auto"
       inkscape:stockid="Arrow1MendT">
      <path
         transform="matrix(-0.4,0,0,-0.4,-4,0)"
         style="fill:#00e000;fill-rule:evenodd;stroke:#00e000;stroke-width:1pt"
         d="M 0,0 5,-5 -12.5,0 5,5 0,0 z"
         id="path4521"
         inkscape:connector-curvature="0" />
    </marker>
    <marker
       style="overflow:visible"
       id="Arrow1Mend6"
       refX="0"
       refY="0"
       orient="auto"
       inkscape:stockid="Arrow1Mend6">
      <path
         transform="matrix(-0.4,0,0,-0.4,-4,0)"
         style="fill:#e2bd00;fill-rule:evenodd;stroke:#e2bd00;stroke-width:1pt"
         d="M 0,0 5,-5 -12.5,0 5,5 0,0 z"
         id="path4744"
         inkscape:connector-curvature="0" />
    </marker>
    <marker
       style="overflow:visible"
       id="Arrow1MendY"
       refX="0"
       refY="0"
       orient="auto"
       inkscape:stockid="Arrow1MendY">
      <path
         transform="matrix(-0.4,0,0,-0.4,-4,0)"
         style="fill:#8d00b3;fill-rule:evenodd;stroke:#8d00b3;stroke-width:1pt"
         d="M 0,0 5,-5 -12.5,0 5,5 0,0 z"
         id="path5194"
         inkscape:connector-curvature="0" />
    </marker>
  </defs>
  <metadata
     id="metadata7">
    <rdf:RDF>
      <cc:Work
         rdf:about="">
        <dc:format>image/svg+xml</dc:format>
        <dc:type
           rdf:resource="http://purl.org/dc/dcmitype/StillImage" />
        <dc:title />
      </cc:Work>
    </rdf:RDF>
  </metadata>
  <g
     inkscape:label="Layer 1"
     inkscape:groupmode="layer"
     id="layer1"
     transform="translate(-98.705307,-369.24944)">
    <flowRoot
       xml:space="preserve"
       id="flowRoot2985"
       style="font-size:12px;font-style:normal;font-variant:normal;font-weight:normal;font-stretch:normal;text-align:start;line-height:125%;letter-spacing:0px;word-spacing:0px;writing-mode:lr-tb;text-anchor:start;fill:#000000;fill-opacity:1;stroke:none;font-family:Sans;-inkscape-font-specification:Sans"><flowRegion
         id="flowRegion2987"><rect
           id="rect2989"
           width="177.78685"
           height="89.90358"
           x="78.791901"
           y="256.36197" /></flowRegion><flowPara
         id="flowPara2991" /></flowRoot>    <path
       inkscape:connector-curvature="0"
       id="path4068"
       d="m 159.34229,389.35279 210.8775,0"
       style="fill:none;stroke:#00e000;stroke-width:1.10988164;stroke-linecap:butt;stroke-linejoin:miter;stroke-miterlimit:4;stroke-opacity:1;stroke-dasharray:8.87905284, 8.87905284;stroke-dashoffset:0;marker-end:url(#Arrow1MendT)" />
    <path
       inkscape:connector-curvature="0"
       style="fill:none;stroke:#fc0000;stroke-width:1.74251413;stroke-miterlimit:4;stroke-opacity:1;stroke-dasharray:none;stroke-dashoffset:0"
       d="m 346.31982,371.09812 c -1.0297,-0.33118 -2.07929,-0.58043 -3.13875,-0.74387 -1.0595,-0.16388 -2.12883,-0.24117 -3.19772,-0.2331 -1.06879,0.008 -2.13715,0.10355 -3.1946,0.28349 -1.05745,0.17997 -2.10403,0.44606 -3.12971,0.79311 -1.02561,0.34731 -2.03027,0.77657 -3.00442,1.28197 -0.97422,0.50518 -1.9178,1.08735 -2.8223,1.73776 -0.90448,0.65028 -1.76955,1.36985 -2.58778,2.14851 -0.8183,0.77866 -1.58937,1.61697 -2.30718,2.50374 -0.71773,0.88675 -1.38178,1.8222 -1.98746,2.79416 -0.60529,0.97186 -1.15237,1.98034 -1.63715,3.0122 -0.48436,1.03187 -0.90697,2.08724 -1.26517,3.15241 -0.35805,1.06519 -0.65163,2.14019 -0.88131,3.21107 -0.22909,1.07089 -0.39367,2.13762 -0.49511,3.18654 -0.10156,1.04892 -0.13974,2.07986 -0.11688,3.07967 0.0201,0.9998 0.10478,1.96826 0.24319,2.89304 0.13846,0.92483 0.33253,1.80576 0.5764,2.63163 0.24385,0.82591 0.5381,1.59644 0.87413,2.30209 0.33655,0.70558 0.71537,1.34585 1.12845,1.91297 0.41315,0.56699 0.86049,1.06047 1.33283,1.47436 0.47227,0.41382 0.96958,0.7477 1.48196,0.9976 0.51255,0.24989 1.03978,0.41584 1.57205,0.49511 0.53203,0.0793 1.0692,0.0726 1.60064,-0.0201 0.53138,-0.0928 1.0572,-0.27207 1.56714,-0.53542 0.50989,-0.26266 1.004,-0.60996 1.47237,-1.03608 0.46821,-0.42591 0.91092,-0.93197 1.3187,-1.51031 0.40777,-0.57841 0.78047,-1.22982 1.11018,-1.94542 0.32986,-0.71565 0.61603,-1.49586 0.8523,-2.33022 0.23648,-0.83435 0.42188,-1.72319 0.55154,-2.65468 0.12966,-0.93151 0.20288,-1.90593 0.21564,-2.91045 0.0128,-1.00458 -0.0336,-2.03941 -0.14651,-3.091 -0.11157,-1.05155 -0.28617,-2.12003 -0.52533,-3.19146 -0.23915,-1.07143 -0.54346,-2.14587 -0.91161,-3.20945 -0.36814,-1.06357 -0.80063,-2.11619 -1.295,-3.14434 -0.49443,-1.02817 -1.05087,-2.03169 -1.66549,-2.99791 -0.61468,-0.96617 -1.28781,-1.8947 -2.01381,-2.77388 -0.72598,-0.87916 -1.50512,-1.70861 -2.33062,-2.47807 -0.82541,-0.76939 -1.69746,-1.47841 -2.60793,-2.1182 -0.91048,-0.63954 -1.85971,-1.20989 -2.83856,-1.70344 -0.97886,-0.49378 -1.98755,-0.91015 -3.01638,-1.24469 -1.02885,-0.33454 -2.07791,-0.58714 -3.13697,-0.75374 -1.05914,-0.16736 -2.12827,-0.24788 -3.19716,-0.24319 -1.06887,0.006 -2.13741,0.0968 -3.19526,0.27342 -1.05792,0.17668 -2.10504,0.43935 -3.13154,0.78323 -1.02648,0.34397 -2.03207,0.77026 -3.00751,1.27269 -0.97534,0.5025 -1.92035,1.08145 -2.82631,1.72924 -0.90606,0.64762 -1.77285,1.3646 -2.5929,2.14092 -0.8201,0.77637 -1.5932,1.61256 -2.31303,2.49735 -0.71986,0.88489 -1.38616,1.81867 -1.99404,2.78913 -0.60797,0.97044 -1.15715,1.97773 -1.64427,3.00872 -0.48705,1.03091 -0.91193,2.08568 -1.27269,3.15046 -0.36076,1.06478 -0.65702,2.13962 -0.88884,3.21067 -0.23177,1.07102 -0.39903,2.13821 -0.5025,3.18781 -0.1041,1.04966 -0.14449,2.08151 -0.12418,3.08254 0.0201,1.00103 0.1,1.97094 0.23647,2.89748 0.13644,0.92652 0.3285,1.80932 0.57034,2.63741 0.24184,0.82805 0.53408,1.60094 0.86869,2.30914 0.33455,0.70813 0.71217,1.35117 1.12389,1.9211 0.41181,0.56968 0.858,1.0664 1.32932,1.48338 0.47159,0.41717 0.96784,0.75408 1.47961,1.00726 0.5119,0.25327 1.03878,0.42188 1.57084,0.50519 0.53205,0.0827 1.06901,0.0792 1.60067,-0.0128 0.53138,-0.0894 1.05785,-0.26535 1.56839,-0.52533 0.51057,-0.25931 1.00541,-0.60327 1.47478,-1.02648 0.46958,-0.42323 0.91315,-0.92587 1.32228,-1.50137 0.4091,-0.57574 0.78343,-1.22427 1.11482,-1.93737 0.33118,-0.7131 0.61938,-1.49097 0.85773,-2.32316 0.23781,-0.83229 0.42593,-1.71917 0.55759,-2.649 0.13169,-0.9298 0.20757,-1.90275 0.22236,-2.90612 0.0128,-1.00338 -0.0336,-2.03725 -0.13902,-3.08819 -0.10887,-1.05095 -0.2808,-2.11902 -0.51792,-3.19031 -0.23647,-1.07129 -0.53812,-2.14589 -0.90404,-3.20992 -0.36543,-1.06397 -0.79558,-2.11727 -1.28754,-3.14637 -0.49175,-1.02911 -1.04602,-2.03388 -1.65843,-3.00153 -0.61266,-0.96764 -1.28332,-1.89787 -2.00724,-2.77897 -0.72389,-0.88111 -1.50109,-1.71278 -2.32477,-2.48452 -0.82361,-0.77183 -1.69397,-1.48331 -2.60289,-2.12582 -0.90899,-0.64221 -1.85682,-1.21551 -2.83453,-1.7121 -0.9777,-0.49645 -1.9854,-0.91624 -3.01341,-1.25402 -1.02811,-0.33791 -2.07656,-0.59318 -3.13522,-0.76354 -1.05866,-0.17066 -2.12768,-0.25528 -3.19656,-0.25327 -1.06887,10e-4 -2.13762,0.09 -3.19588,0.26334 -1.05834,0.17339 -2.10611,0.43263 -3.13341,0.77342 -1.02729,0.3406 -2.03388,0.76396 -3.01045,1.26337 -0.97657,0.49914 -1.92292,1.0756 -2.83043,1.72063 -0.90759,0.64492 -1.77607,1.35941 -2.59792,2.13346 -0.82194,0.77397 -1.59698,1.60797 -2.31895,2.4909 -0.7219,0.88294 -1.39045,1.8151 -2.00064,2.78409 -0.60998,0.96898 -1.16178,1.97511 -1.65139,3.00515 -0.48972,1.02998 -0.91684,2.08402 -1.28007,3.14839 -0.36344,1.06438 -0.66238,2.13917 -0.89643,3.21033 -0.23446,1.07122 -0.40375,2.13883 -0.51057,3.18909 -0.1061,1.05027 -0.14906,2.08313 -0.13168,3.08537 0.0201,1.00224 0.0954,1.97363 0.22975,2.90184 0.1337,0.92822 0.32381,1.81301 0.5643,2.6432 0.23982,0.8302 0.53005,1.60543 0.86318,2.31618 0.33321,0.71067 0.70899,1.3564 1.11939,1.92922 0.41046,0.57304 0.85553,1.07224 1.32583,1.49238 0.47026,0.41986 0.96603,0.76033 1.4772,1.01689 0.51122,0.25662 1.03777,0.42858 1.56963,0.51524 0.53205,0.0867 1.06886,0.086 1.60071,0 0.53206,-0.0859 1.05846,-0.25862 1.56963,-0.51524 0.51122,-0.25663 1.00681,-0.59723 1.4772,-1.01689 0.47023,-0.41987 0.91529,-0.91973 1.32582,-1.49238 0.41046,-0.57234 0.78626,-1.21867 1.11932,-1.92922 0.33321,-0.71062 0.62341,-1.48612 0.86326,-2.31618 0.23981,-0.83012 0.42993,-1.71506 0.56362,-2.6432 0.13443,-0.92815 0.21161,-1.89967 0.22974,-2.90184 0.0201,-1.00216 -0.0269,-2.0351 -0.13168,-3.08537 -0.10611,-1.05026 -0.2761,-2.11795 -0.51056,-3.18909 -0.23445,-1.07116 -0.53339,-2.1459 -0.8965,-3.21033 -0.36342,-1.06437 -0.79062,-2.11834 -1.28008,-3.14845 -0.48973,-1.03005 -1.04127,-2.03606 -1.65138,-3.00509 -0.60997,-0.96912 -1.27879,-1.90103 -2.00063,-2.78409 -0.72183,-0.88298 -1.49707,-1.7168 -2.31887,-2.4909 -0.82187,-0.77417 -1.69048,-1.48821 -2.59794,-2.13346 -0.90744,-0.64491 -1.85391,-1.22103 -2.83043,-1.72063 -0.97657,-0.49981 -1.98323,-0.92237 -3.01053,-1.26337 -1.02722,-0.34126 -2.07507,-0.59991 -3.13333,-0.77342 -1.05825,-0.17394 -2.12706,-0.26133 -3.19595,-0.26334 -1.06887,-0.002 -2.13783,0.0832 -3.19656,0.25327 -1.05866,0.16991 -2.10704,0.42591 -3.13513,0.76354 -1.02811,0.33791 -2.03572,0.75765 -3.0135,1.25402 -0.97772,0.49646 -1.92541,1.06976 -2.83446,1.7121 -0.90906,0.64224 -1.77923,1.35413 -2.60297,2.12582 -0.82372,0.77166 -1.60072,1.60353 -2.32477,2.48452 -0.72399,0.88098 -1.3947,1.81138 -2.00723,2.77897 -0.61266,0.96757 -1.16641,1.97249 -1.65843,3.00153 -0.49175,1.0291 -0.92176,2.08246 -1.28754,3.14643 -0.36545,1.06391 -0.66709,2.13857 -0.90401,3.20986 -0.23715,1.07136 -0.40914,2.13936 -0.51796,3.19031 -0.10888,1.05099 -0.15382,2.08475 -0.139,3.08819 0.0128,1.00344 0.0907,1.97624 0.22236,2.90612 0.13169,0.92996 0.31977,1.81666 0.55757,2.649 0.23783,0.83234 0.52669,1.60992 0.85781,2.32316 0.33119,0.71324 0.70572,1.36171 1.11477,1.93737 0.40911,0.5757 0.85295,1.07814 1.32225,1.50137 0.46958,0.42321 0.96429,0.76669 1.47486,1.02648 0.51054,0.25998 1.03676,0.43532 1.56834,0.52533 0.53139,0.09 1.06867,0.0928 1.60072,0.0128 0.53206,-0.0827 1.05906,-0.25192 1.57084,-0.50519 0.5119,-0.25326 1.00822,-0.59049 1.47961,-1.00726 0.47159,-0.41653 0.91746,-0.91358 1.32932,-1.48338 0.4118,-0.56968 0.78914,-1.2131 1.12389,-1.9211 0.33456,-0.70806 0.62677,-1.48122 0.86868,-2.30914 0.24185,-0.82797 0.43399,-1.71102 0.57036,-2.63741 0.13644,-0.92646 0.21632,-1.89652 0.23647,-2.89748 0.0201,-1.00095 -0.0201,-2.03294 -0.12419,-3.08254 -0.10356,-1.04953 -0.27073,-2.11679 -0.5025,-3.18781 -0.23177,-1.07105 -0.52802,-2.14589 -0.88892,-3.21073 -0.36072,-1.06479 -0.78556,-2.11941 -1.27261,-3.1504 -0.48704,-1.03099 -1.0365,-2.0382 -1.64427,-3.00872 -0.60796,-0.97054 -1.2743,-1.90418 -1.99404,-2.78913 -0.71975,-0.88495 -1.49305,-1.72083 -2.31303,-2.49735 -0.81997,-0.77645 -1.687,-1.49305 -2.59289,-2.14097 -0.90589,-0.64761 -1.85102,-1.22662 -2.8264,-1.72919 -0.97529,-0.50249 -1.98101,-0.92847 -3.00743,-1.27269 -1.02644,-0.34394 -2.07367,-0.60595 -3.1316,-0.78323 -1.05785,-0.17668 -2.12641,-0.26871 -3.19527,-0.27342 -1.06888,-0.006 -2.13803,0.0766 -3.19709,0.24319 -1.05914,0.16661 -2.10812,0.4192 -3.13697,0.75374 -1.02891,0.33454 -2.03752,0.75127 -3.01644,1.24469 -0.97893,0.49308 -1.92796,1.06384 -2.8385,1.70344 -0.9106,0.63954 -1.78244,1.34894 -2.608,2.1182 -0.82556,0.76933 -1.60449,1.59905 -2.33062,2.47807 -0.72606,0.87911 -1.399,1.80785 -2.01374,2.77395 -0.61468,0.96608 -1.17113,1.96973 -1.66557,2.99784 -0.49443,1.02815 -0.92665,2.08085 -1.29492,3.14434 -0.36815,1.06358 -0.67218,2.13802 -0.91161,3.20945 -0.23916,1.07143 -0.41381,2.13984 -0.52533,3.1915 -0.11157,1.05163 -0.15912,2.08638 -0.14651,3.09096 0.0128,1.0046 0.086,1.97888 0.21564,2.91045 0.12968,0.93161 0.31508,1.82025 0.55155,2.65468 0.23579,0.8345 0.52263,1.61444 0.85221,2.33022 0.32985,0.71572 0.70255,1.36688 1.11026,1.94542 0.40778,0.57841 0.85033,1.084 1.3187,1.51031 0.46825,0.42657 0.96241,0.77302 1.47237,1.03608 0.50989,0.26335 1.03575,0.44204 1.56715,0.53542 0.53137,0.0928 1.06838,0.0995 1.60063,0.0201 0.53207,-0.0791 1.0597,-0.24522 1.57205,-0.49511 0.51258,-0.2499 1.00963,-0.58378 1.48197,-0.9976 0.47227,-0.41382 0.91959,-0.90744 1.33282,-1.47436 0.41313,-0.56699 0.79196,-1.20755 1.12839,-1.91297 0.33657,-0.70552 0.63014,-1.47633 0.87413,-2.30209 0.24386,-0.82581 0.438,-1.70692 0.57638,-2.63163 0.13846,-0.92472 0.22102,-1.89329 0.24319,-2.89304 0.0201,-0.99976 -0.0128,-2.03081 -0.1176,-3.07967 -0.10156,-1.04886 -0.26603,-2.11572 -0.49509,-3.18654 -0.22909,-1.07088 -0.52333,-2.14588 -0.88132,-3.21107 -0.35807,-1.06517 -0.78063,-2.12048 -1.26526,-3.15241 -0.48435,-1.03192 -1.03164,-2.04028 -1.63713,-3.01228 -0.60527,-0.97194 -1.2698,-1.90727 -1.98746,-2.79408 -0.71769,-0.88689 -1.48895,-1.72494 -2.30711,-2.50374 -0.81818,-0.77881 -1.68344,-1.49795 -2.58778,-2.14851 -0.90442,-0.65028 -1.84815,-1.23218 -2.82231,-1.73776 -0.97414,-0.50519 -1.97887,-0.93459 -3.00448,-1.28197 -1.02563,-0.34731 -2.07219,-0.61268 -3.12966,-0.79311 -1.05745,-0.17997 -2.12579,-0.27543 -3.19467,-0.28349 -1.06879,-0.008 -2.13815,0.0699 -3.19769,0.2331 -1.05946,0.16315 -2.10905,0.41247 -3.1387,0.74387"
       title="t+cos(3*t) 3*sin(3*t)"
       id="path4056" />
    <path
       style="fill:none;stroke:#ecbd00;stroke-width:0.62550539;stroke-linecap:butt;stroke-linejoin:miter;stroke-miterlimit:4;stroke-opacity:1;stroke-dasharray:none;marker-end:url(#Arrow1Mend6)"
       d="m 339.00636,389.373 2.60627,-17.3131"
       id="path4545"
       inkscape:connector-curvature="0" />
    <text
       xml:space="preserve"
       style="font-size:12px;font-style:normal;font-variant:normal;font-weight:normal;font-stretch:normal;text-align:start;line-height:125%;letter-spacing:0px;word-spacing:0px;writing-mode:lr-tb;text-anchor:start;fill:#ecbd00;fill-opacity:1;stroke:none;font-family:Sans;-inkscape-font-specification:Sans"
       x="343.03571"
       y="384.68359"
       id="text4731"
       sodipodi:linespacing="125%"><tspan
         sodipodi:role="line"
         id="tspan4733"
         x="343.03571"
         y="384.68359">$r$</tspan></text>
    <text
       sodipodi:linespacing="125%"
       id="text4776"
       y="393.61218"
       x="377.57141"
       style="font-size:12px;font-style:normal;font-variant:normal;font-weight:normal;font-stretch:normal;text-align:start;line-height:125%;letter-spacing:0px;word-spacing:0px;writing-mode:lr-tb;text-anchor:start;fill:#00e000;fill-opacity:1;stroke:none;font-family:Sans;-inkscape-font-specification:Sans"
       xml:space="preserve"><tspan
         y="393.61218"
         x="377.57141"
         id="tspan4778"
         sodipodi:role="line">$v_D$</tspan></text>
    <path
       inkscape:connector-curvature="0"
       id="path4780"
       d="m 116.03708,383.3079 34.48561,0"
       style="fill:none;stroke:#8d00b3;stroke-width:1.10988164px;stroke-linecap:butt;stroke-linejoin:miter;stroke-opacity:1;marker-start:none;marker-end:url(#Arrow1MendY)" />
    <use
       height="1052.3622"
       width="744.09448"
       transform="translate(0.09909654,12.188879)"
       id="use4782"
       xlink:href="#path4780"
       y="0"
       x="0" />
    <text
       sodipodi:linespacing="125%"
       id="text5175"
       y="385.58191"
       x="97.709213"
       style="font-size:12px;font-style:normal;font-variant:normal;font-weight:normal;font-stretch:normal;text-align:start;line-height:125%;letter-spacing:0px;word-spacing:0px;writing-mode:lr-tb;text-anchor:start;fill:#8d00b3;fill-opacity:1;stroke:none;font-family:Sans;-inkscape-font-specification:Sans"
       xml:space="preserve"><tspan
         y="385.58191"
         x="97.709213"
         id="tspan5177"
         sodipodi:role="line">$\vec{E}$</tspan></text>
    <text
       sodipodi:linespacing="125%"
       id="text5179"
       y="401.40009"
       x="97.750206"
       style="font-size:12px;font-style:normal;font-variant:normal;font-weight:normal;font-stretch:normal;text-align:start;line-height:125%;letter-spacing:0px;word-spacing:0px;writing-mode:lr-tb;text-anchor:start;fill:#8d00b3;fill-opacity:1;stroke:none;font-family:Sans;-inkscape-font-specification:Sans"
       xml:space="preserve"><tspan
         y="401.40009"
         x="97.750206"
         id="tspan5181"
         sodipodi:role="line">$\vec{B}$</tspan></text>
  </g>
</svg>
