<?xml version="1.0" encoding="UTF-8" standalone="no"?>
<!-- Created with Inkscape (http://www.inkscape.org/) -->

<svg
   xmlns:dc="http://purl.org/dc/elements/1.1/"
   xmlns:cc="http://creativecommons.org/ns#"
   xmlns:rdf="http://www.w3.org/1999/02/22-rdf-syntax-ns#"
   xmlns:svg="http://www.w3.org/2000/svg"
   xmlns="http://www.w3.org/2000/svg"
   xmlns:sodipodi="http://sodipodi.sourceforge.net/DTD/sodipodi-0.dtd"
   xmlns:inkscape="http://www.inkscape.org/namespaces/inkscape"
   sodipodi:docname="feynman3.svg"
   inkscape:version="0.48.4 r9939"
   version="1.1"
   id="svg2"
   height="225.26198"
   width="250.73982">
  <sodipodi:namedview
     id="base"
     pagecolor="#ffffff"
     bordercolor="#666666"
     borderopacity="1.0"
     inkscape:pageopacity="0.0"
     inkscape:pageshadow="2"
     inkscape:zoom="1.979899"
     inkscape:cx="96.899572"
     inkscape:cy="111.43148"
     inkscape:document-units="px"
     inkscape:current-layer="svg2"
     showgrid="false"
     inkscape:window-width="1280"
     inkscape:window-height="751"
     inkscape:window-x="0"
     inkscape:window-y="25"
     inkscape:window-maximized="1"
     fit-margin-top="0"
     fit-margin-left="0"
     fit-margin-right="0"
     fit-margin-bottom="0" />
  <defs
     id="defs4">
    <marker
       inkscape:stockid="Arrow1Lstart"
       orient="auto"
       refY="0"
       refX="0"
       id="Arrow1Lstart"
       style="overflow:visible">
      <path
         id="path3997"
         d="M 0,0 5,-5 -12.5,0 5,5 0,0 z"
         style="fill-rule:evenodd;stroke:#000000;stroke-width:1pt"
         transform="matrix(0.8,0,0,0.8,10,0)"
         inkscape:connector-curvature="0" />
    </marker>
  </defs>
  <metadata
     id="metadata7">
    <rdf:RDF>
      <cc:Work
         rdf:about="">
        <dc:format>image/svg+xml</dc:format>
        <dc:type
           rdf:resource="http://purl.org/dc/dcmitype/StillImage" />
        <dc:title />
      </cc:Work>
    </rdf:RDF>
  </metadata>
  <g
     inkscape:label="Layer 1"
     inkscape:groupmode="layer"
     id="layer1"
     transform="translate(-344.5702,-94.34055)" />
  <path
     id="path4153-3-6"
     title="t+cos(0.15*t) 15*sin(0.15*t)"
     d="m 97.447612,143.97467 c 0.29525,-0.0742 0.5892,-0.14952 0.88012,-0.22419 0.29092,-0.0747 0.57879,-0.14865 0.86197,-0.22006 0.28317,-0.0714 0.56162,-0.14023 0.833788,-0.20466 0.27217,-0.0644 0.53803,-0.12444 0.79616,-0.17832 0.25813,-0.0539 0.50849,-0.10159 0.74983,-0.14155 0.24134,-0.04 0.4736,-0.0721 0.69573,-0.0951 0.22213,-0.023 0.43406,-0.0367 0.63495,-0.0399 0.20089,-0.003 0.39067,0.004 0.56872,0.0229 0.17805,0.0188 0.3443,0.0493 0.49837,0.0921 0.15407,0.0428 0.29589,0.098 0.42533,0.16619 0.12944,0.0682 0.24641,0.14936 0.35105,0.24381 0.10471,0.0944 0.19687,0.20224 0.27706,0.32333 0.0802,0.1211 0.14824,0.25558 0.2048,0.40317 0.0566,0.14758 0.10154,0.30833 0.13579,0.4817 0.0342,0.17336 0.0577,0.35941 0.0714,0.55734 0.0137,0.19793 0.0176,0.40781 0.0129,0.62859 -0.005,0.22078 -0.018,0.45253 -0.0386,0.69398 -0.0205,0.24146 -0.0484,0.49268 -0.0819,0.75222 -0.0335,0.25955 -0.0728,0.52745 -0.11619,0.80212 -0.0434,0.27467 -0.0909,0.55614 -0.14081,0.84267 -0.0499,0.28654 -0.10225,0.57817 -0.15525,0.87308 -0.053,0.2949 -0.10666,0.59309 -0.15922,0.89269 -0.0526,0.29961 -0.10401,0.60062 -0.15263,0.90116 -0.0486,0.30054 -0.0944,0.60059 -0.13563,0.89828 -0.0412,0.29769 -0.0779,0.593 -0.10854,0.88412 -0.0306,0.29112 -0.055,0.57802 -0.0719,0.85897 -0.0169,0.28096 -0.0261,0.55593 -0.0265,0.82334 -4.2e-4,0.2674 0.008,0.52719 0.0268,0.77792 0.0186,0.25074 0.0473,0.49237 0.0869,0.72367 0.0396,0.23129 0.0902,0.45218 0.15255,0.66164 0.0623,0.20946 0.13634,0.40743 0.22252,0.59311 0.0862,0.18569 0.18456,0.35901 0.29533,0.51945 0.11076,0.16044 0.23397,0.30791 0.36954,0.44214 0.13556,0.13424 0.28356,0.25516 0.44365,0.36276 0.16008,0.1076 0.33233,0.2018 0.51616,0.28287 0.18382,0.0811 0.3793,0.14893 0.58561,0.20411 0.20631,0.0552 0.42352,0.0976 0.65061,0.12807 0.22708,0.0305 0.4641,0.0489 0.70983,0.0563 0.24573,0.007 0.50023,0.004 0.7621,-0.01 0.26188,-0.0135 0.53118,-0.037 0.80636,-0.0689 0.27519,-0.0319 0.5563,-0.0724 0.84171,-0.11982 0.2854,-0.0474 0.57511,-0.1018 0.86743,-0.16145 0.29231,-0.0597 0.58724,-0.1246 0.88302,-0.19302 0.29578,-0.0684 0.59242,-0.14032 0.88816,-0.21386 0.29574,-0.0735 0.59056,-0.14868 0.88275,-0.22357 0.29218,-0.0749 0.58169,-0.1495 0.86688,-0.22196 0.28518,-0.0725 0.56601,-0.14274 0.84089,-0.20904 0.27489,-0.0663 0.54381,-0.12857 0.80531,-0.18509 0.2615,-0.0565 0.51554,-0.10726 0.76083,-0.15059 0.24529,-0.0433 0.48178,-0.0792 0.70837,-0.10623 0.22659,-0.027 0.44321,-0.0451 0.64897,-0.0529 0.20576,-0.008 0.4006,-0.005 0.58384,0.008 0.18325,0.0137 0.35482,0.0389 0.51429,0.0762 0.15948,0.0373 0.30678,0.0869 0.44172,0.14936 0.13495,0.0624 0.25745,0.13778 0.36759,0.22634 0.11014,0.0885 0.20779,0.19044 0.29341,0.30557 0.0856,0.11517 0.15891,0.24375 0.22063,0.38548 0.0617,0.14174 0.11171,0.29672 0.15076,0.46444 0.0391,0.16773 0.0671,0.34827 0.0852,0.54087 0.0181,0.1926 0.0261,0.39734 0.0253,0.61321 -8.5e-4,0.21588 -0.0106,0.44296 -0.0278,0.68003 -0.0173,0.23707 -0.0421,0.48419 -0.073,0.73996 -0.0309,0.25576 -0.0679,0.52022 -0.10938,0.7918 -0.0415,0.27158 -0.0874,0.55032 -0.13622,0.83451 -0.0488,0.2842 -0.10031,0.57387 -0.15294,0.86723 -0.0526,0.29336 -0.10628,0.59041 -0.15925,0.88929 -0.053,0.29888 -0.10519,0.5996 -0.155,0.90026 -0.0498,0.30065 -0.0971,0.60125 -0.14028,0.8999 -0.0432,0.29865 -0.0822,0.59533 -0.11541,0.88823 -0.0332,0.29289 -0.0607,0.58197 -0.0808,0.86549 -0.0202,0.28351 -0.0331,0.56143 -0.0373,0.83212 -0.004,0.2707 1.2e-4,0.53412 0.0143,0.78882 0.0142,0.25469 0.0382,0.5006 0.073,0.73643 0.0348,0.23584 0.0804,0.46154 0.13754,0.67604 0.0571,0.2145 0.12588,0.41772 0.20667,0.60883 0.0808,0.19111 0.17371,0.37004 0.27898,0.53619 0.10526,0.16615 0.22294,0.31944 0.353,0.45956 0.13007,0.14011 0.27258,0.26697 0.42726,0.3805 0.15469,0.11353 0.32161,0.21365 0.50026,0.30058 0.17864,0.0869 0.36907,0.16058 0.57051,0.22144 0.20145,0.0608 0.41398,0.10883 0.63662,0.14465 0.22264,0.0358 0.45545,0.0594 0.69723,0.0718 0.24179,0.0124 0.49262,0.0134 0.75115,0.004 0.25852,-0.009 0.52478,-0.0284 0.79727,-0.0565 0.27249,-0.0281 0.55123,-0.065 0.83465,-0.10928 0.28342,-0.0442 0.57151,-0.0958 0.86258,-0.15304 0.29107,-0.0572 0.58514,-0.12013 0.88045,-0.18691 0.29532,-0.0668 0.59188,-0.13746 0.88794,-0.21018 0.29604,-0.0727 0.59157,-0.14748 0.88485,-0.22239 0.29327,-0.0749 0.58427,-0.14997 0.8713,-0.2233 0.28703,-0.0733 0.57007,-0.1449 0.84752,-0.21288 0.27746,-0.068 0.54929,-0.13235 0.81402,-0.19135 0.26473,-0.059 0.52231,-0.11258 0.77144,-0.15913 0.24911,-0.0465 0.48972,-0.086 0.72066,-0.11689 0.23094,-0.0309 0.45216,-0.0531 0.66271,-0.0655 0.21055,-0.0123 0.41038,-0.0147 0.59875,-0.006 0.18837,0.009 0.36521,0.0287 0.53006,0.0606 0.16483,0.0319 0.31759,0.076 0.45803,0.13272 0.14042,0.0567 0.26846,0.12629 0.38411,0.20898 0.11564,0.0827 0.21882,0.17862 0.30981,0.28785 0.091,0.10925 0.16968,0.23189 0.2366,0.36775 0.0669,0.13587 0.12201,0.28504 0.16598,0.44706 0.044,0.16203 0.0768,0.33699 0.0993,0.52418 0.0226,0.1872 0.0349,0.3867 0.038,0.59757 0.003,0.21086 -0.003,0.43316 -0.0167,0.66572 -0.0138,0.23257 -0.0356,0.47546 -0.0637,0.7273 -0.0281,0.25185 -0.0627,0.51271 -0.10209,0.78104 -0.0394,0.26833 -0.0837,0.54418 -0.13109,0.82586 -0.0474,0.28168 -0.0981,0.56923 -0.15012,0.86086 -0.0521,0.29163 -0.10557,0.58736 -0.15876,0.88533 -0.0532,0.29798 -0.10605,0.59821 -0.15686,0.8988 -0.0508,0.30059 -0.0995,0.60153 -0.14446,0.90096 -0.0449,0.29942 -0.0861,0.5973 -0.12179,0.89179 -0.0357,0.29449 -0.066,0.58558 -0.0893,0.87148 -0.0233,0.2859 -0.0397,0.5666 -0.0477,0.84043 -0.008,0.27383 -0.008,0.54075 0.002,0.79925 0.01,0.25851 0.0293,0.50856 0.0594,0.74881 0.03,0.24026 0.0707,0.47066 0.12275,0.69009 0.052,0.21943 0.11554,0.42783 0.19099,0.62429 0.0754,0.19646 0.16292,0.38092 0.2627,0.55273 0.0998,0.1718 0.21193,0.33088 0.33648,0.47685 0.12455,0.14596 0.26157,0.27874 0.41083,0.39818 0.14925,0.11947 0.31082,0.22552 0.48422,0.31833 0.17341,0.0928 0.35871,0.1723 0.55522,0.23888 0.1965,0.0666 0.40426,0.12017 0.62236,0.16144 0.21809,0.0413 0.44657,0.0701 0.6843,0.0876 0.23774,0.0174 0.48477,0.0233 0.73981,0.0187 0.25503,-0.005 0.5181,-0.0195 0.78773,-0.0436 0.26964,-0.0241 0.54589,-0.0574 0.82715,-0.0983 0.28126,-0.0409 0.56756,-0.0895 0.85722,-0.14414 0.28966,-0.0546 0.58269,-0.11532 0.87737,-0.18028 0.29467,-0.065 0.59098,-0.13423 0.88718,-0.20595 0.29619,-0.0717 0.59226,-0.1459 0.88645,-0.22065 0.29419,-0.0747 0.5865,-0.15007 0.87521,-0.22408 0.28872,-0.074 0.57382,-0.14667 0.85367,-0.21616 0.27985,-0.0695 0.55445,-0.13578 0.82226,-0.19708 0.26782,-0.0613 0.52882,-0.11758 0.78165,-0.16718 0.25283,-0.0496 0.49743,-0.0925 0.7326,-0.12711 0.23519,-0.0346 0.4609,-0.061 0.67615,-0.0776 0.21526,-0.0167 0.42,-0.0237 0.61342,-0.0198 0.19343,0.004 0.3755,0.0187 0.54566,0.0453 0.17016,0.0266 0.32834,0.0652 0.47425,0.11628 0.14591,0.0511 0.27948,0.1149 0.40065,0.19176 0.12116,0.0769 0.22985,0.16686 0.32628,0.27018 0.0964,0.10331 0.18051,0.22002 0.2527,0.34998 0.0722,0.12998 0.13242,0.27329 0.18136,0.42958 0.0489,0.15627 0.0866,0.32559 0.11374,0.50731 0.0272,0.18171 0.0438,0.37589 0.0512,0.58165 0.007,0.20576 0.005,0.42317 -0.005,0.65111 -0.0103,0.22793 -0.0288,0.46646 -0.054,0.71425 -0.0252,0.24779 -0.0572,0.5049 -0.0943,0.76983 -0.0372,0.26493 -0.0796,0.53772 -0.12549,0.81672 -0.0459,0.279 -0.0954,0.56424 -0.14677,0.85397 -0.0513,0.28972 -0.10451,0.58395 -0.15775,0.88083 -0.0532,0.29688 -0.10656,0.59644 -0.15819,0.89677 -0.0516,0.30034 -0.10157,0.60146 -0.14811,0.90146 -0.0465,0.30001 -0.0896,0.5989 -0.1277,0.89481 -0.0381,0.29591 -0.071,0.58882 -0.0974,0.87694 -0.0264,0.28812 -0.0461,0.57142 -0.0577,0.84822 -0.0117,0.27681 -0.0153,0.54707 -0.01,0.80924 0.006,0.26219 0.0207,0.51623 0.0461,0.76078 0.0254,0.24454 0.0612,0.47953 0.1082,0.70379 0.047,0.22426 0.10532,0.43773 0.17547,0.63946 0.0701,0.20173 0.15222,0.39165 0.24654,0.56905 0.0943,0.17741 0.20095,0.34223 0.31999,0.49401 0.11903,0.15179 0.25053,0.29046 0.39432,0.41584 0.1438,0.12537 0.29996,0.23738 0.46807,0.33609 0.16811,0.0987 0.34824,0.18408 0.53972,0.25642 0.19148,0.0724 0.39439,0.1316 0.60784,0.17839 0.21345,0.0468 0.4375,0.081 0.67106,0.10359 0.23355,0.0226 0.47667,0.0334 0.72808,0.0335 0.25141,1.5e-4 0.51115,-0.0104 0.7778,-0.0304 0.26664,-0.02 0.54022,-0.0494 0.81917,-0.0869 0.27894,-0.0374 0.56329,-0.0829 0.85137,-0.13477 0.28808,-0.0519 0.57992,-0.11016 0.87378,-0.17313 0.29385,-0.063 0.58974,-0.13064 0.8859,-0.20117 0.29616,-0.0705 0.59259,-0.14395 0.88753,-0.21836 0.29494,-0.0744 0.58838,-0.1498 0.87861,-0.22429 0.29022,-0.0745 0.57721,-0.14809 0.85932,-0.2189 0.28211,-0.0708 0.55931,-0.13884 0.83007,-0.20227 0.27076,-0.0634 0.53503,-0.12224 0.79143,-0.17473 0.25639,-0.0525 0.50486,-0.0986 0.74418,-0.13686 0.23932,-0.0382 0.46942,-0.0685 0.68928,-0.0894 0.21986,-0.0209 0.42942,-0.0324 0.62784,-0.0333 0.19842,-8.5e-4 0.38565,0.009 0.56108,0.0303 0.17543,0.0214 0.33901,0.0545 0.49037,0.10007 0.15135,0.0455 0.29042,0.10362 0.4171,0.17467 0.12668,0.0711 0.2409,0.15518 0.34279,0.25258 0.10196,0.0973 0.19141,0.20816 0.26891,0.33222 0.0775,0.12406 0.14295,0.26149 0.19696,0.41198 0.054,0.15049 0.0965,0.31411 0.12837,0.49028 0.0319,0.17616 0.053,0.36494 0.0645,0.56551 0.0115,0.20056 0.0134,0.41297 0.007,0.63617 -0.007,0.22319 -0.0217,0.45723 -0.0438,0.70083 -0.0221,0.2436 -0.0514,0.49682 -0.0862,0.75819 -0.0348,0.26138 -0.0751,0.53095 -0.11941,0.8071 -0.0443,0.27615 -0.0925,0.55893 -0.14293,0.84657 -0.0504,0.28764 -0.10308,0.58018 -0.15621,0.87579 -0.0531,0.29561 -0.10671,0.5943 -0.159,0.89419"
     style="fill:#ffffff;fill-opacity:1;stroke:#000000;stroke-width:1.06429374;stroke-miterlimit:4;stroke-opacity:1;stroke-dasharray:none"
     inkscape:connector-curvature="0" />
  <path
     style="fill:none;stroke:#000000;stroke-width:1.06429374;stroke-linecap:butt;stroke-linejoin:miter;stroke-miterlimit:4;stroke-opacity:1;stroke-dasharray:none;marker-mid:url(#Arrow1Lstart)"
     d="m 97.289692,143.98972 -30.166938,32.92 -29.4806,32.17104"
     id="path4198-7"
     inkscape:connector-curvature="0"
     inkscape:transform-center-x="-0.026866049"
     inkscape:transform-center-y="-61.1133"
     sodipodi:nodetypes="ccc" />
  <path
     style="fill:none;stroke:#000000;stroke-width:1.06400001;stroke-linecap:butt;stroke-linejoin:miter;stroke-miterlimit:4;stroke-opacity:1;stroke-dasharray:none;marker-mid:url(#Arrow1Lstart)"
     d="m 97.171282,71.41651 0.0587,33.02737 0.0708,39.83045"
     id="path4198-5"
     inkscape:connector-curvature="0"
     sodipodi:nodetypes="ccc" />
  <path
     style="fill:none;stroke:#000000;stroke-width:1.06429374;stroke-linecap:butt;stroke-linejoin:miter;stroke-miterlimit:4;stroke-opacity:1;stroke-dasharray:none;marker-start:none;marker-mid:url(#Arrow1Lstart)"
     d="m 32.164006,12.054133 31.00977,28.41646 34.081266,31.23108"
     id="path4198-7-8"
     inkscape:connector-curvature="0"
     inkscape:transform-center-x="61.1133"
     inkscape:transform-center-y="-0.026863"
     sodipodi:nodetypes="ccc" />
  <flowRoot
     xml:space="preserve"
     id="flowRoot4805"
     style="font-size:12px;font-style:normal;font-variant:normal;font-weight:normal;font-stretch:normal;text-align:start;line-height:125%;letter-spacing:0px;word-spacing:0px;writing-mode:lr-tb;text-anchor:start;fill:#000000;fill-opacity:1;stroke:none;font-family:Sans;-inkscape-font-specification:Sans"
     transform="translate(-344.5702,-94.34055)"><flowRegion
       id="flowRegion4807"><rect
         id="rect4809"
         width="165.71428"
         height="82.85714"
         x="-225.71428"
         y="-24.780674" /></flowRegion><flowPara
       id="flowPara4811" /></flowRoot>  <flowRoot
     xml:space="preserve"
     id="flowRoot4813"
     style="font-size:12px;font-style:normal;font-variant:normal;font-weight:normal;font-stretch:normal;text-align:start;line-height:125%;letter-spacing:0px;word-spacing:0px;writing-mode:lr-tb;text-anchor:start;fill:#000000;fill-opacity:1;stroke:none;font-family:Sans;-inkscape-font-specification:Sans"
     transform="translate(416.10622,28.479643)"><flowRegion
       id="flowRegion4815"><rect
         id="rect4817"
         width="85.73893"
         height="18.870901"
         x="-248.57143"
         y="-33.352104" /></flowRegion><flowPara
       id="flowPara4819">$\gamma(k')$</flowPara></flowRoot>  <text
     xml:space="preserve"
     style="font-size:12px;font-style:normal;font-variant:normal;font-weight:normal;font-stretch:normal;text-align:start;line-height:125%;letter-spacing:0px;word-spacing:0px;writing-mode:lr-tb;text-anchor:start;fill:#000000;fill-opacity:1;stroke:none;font-family:Sans;-inkscape-font-specification:Sans"
     x="8.7819366"
     y="220.37566"
     id="text4211"
     sodipodi:linespacing="125%"><tspan
       sodipodi:role="line"
       id="tspan4213"
       x="8.7819366"
       y="220.37566">$e^-(p)$</tspan></text>
  <text
     xml:space="preserve"
     style="font-size:12px;font-style:normal;font-variant:normal;font-weight:normal;font-stretch:normal;text-align:start;line-height:125%;letter-spacing:0px;word-spacing:0px;writing-mode:lr-tb;text-anchor:start;fill:#000000;fill-opacity:1;stroke:none;font-family:Sans;-inkscape-font-specification:Sans"
     x="5.0648212"
     y="7.1690149"
     id="text4211-1"
     sodipodi:linespacing="125%"><tspan
       sodipodi:role="line"
       id="tspan4213-7"
       x="5.0648212"
       y="7.1690149">$e^-(p')$</tspan></text>
  <text
     xml:space="preserve"
     style="font-size:12px;font-style:normal;font-variant:normal;font-weight:normal;font-stretch:normal;text-align:start;line-height:125%;letter-spacing:0px;word-spacing:0px;writing-mode:lr-tb;text-anchor:start;fill:#000000;fill-opacity:1;stroke:none;font-family:Sans;-inkscape-font-specification:Sans"
     x="179.97984"
     y="219.35918"
     id="text4236"
     sodipodi:linespacing="125%"><tspan
       sodipodi:role="line"
       x="179.97984"
       y="219.35918"
       id="tspan3120" /></text>
  <path
     inkscape:connector-curvature="0"
     style="fill:#ffffff;fill-opacity:1;stroke:#000000;stroke-width:1.06429374;stroke-miterlimit:4;stroke-opacity:1;stroke-dasharray:none"
     d="m 164.01768,0.16313377 c 0.0742,0.29525 0.14953,0.5892 0.2242,0.88012003 0.0747,0.29092 0.14865,0.57879 0.22006,0.86197 0.0714,0.28317 0.14023,0.56162 0.20466,0.83379 0.0644,0.27218 0.12443,0.53803 0.17831,0.79616 0.0539,0.25814 0.10159,0.5085 0.14156,0.74983 0.04,0.24134 0.0721,0.4736 0.0951,0.69573 0.023,0.22213 0.0367,0.43406 0.0399,0.63495 0.003,0.20089 -0.004,0.39067 -0.0229,0.56872 -0.0188,0.17805 -0.0493,0.3443 -0.0921,0.49838 -0.0428,0.15407 -0.098,0.2958898 -0.1662,0.4253198 -0.0682,0.12944 -0.14935,0.24642 -0.2438,0.35106 -0.0944,0.1047 -0.20224,0.19686 -0.32333,0.27705 -0.1211,0.0802 -0.25559,0.14825 -0.40317,0.20481 -0.14758,0.0566 -0.30833,0.10154 -0.4817,0.13578 -0.17336,0.0342 -0.35941,0.0577 -0.55734,0.0714 -0.19793,0.0137 -0.40781,0.0176 -0.62859,0.0129 -0.22078,-0.005 -0.45253,-0.018 -0.69398,-0.0386 -0.24146,-0.0205 -0.49268,-0.0484 -0.75222,-0.0819 -0.25954,-0.0335 -0.52745,-0.0728 -0.80212,-0.11619 -0.27467,-0.0434 -0.55614,-0.0909 -0.84267,-0.1408 -0.28654,-0.0499 -0.57817,-0.10226 -0.87307,-0.15526 -0.29491,-0.053 -0.5931,-0.10665 -0.8927,-0.15922 -0.29961,-0.0526 -0.60062,-0.10401 -0.90116,-0.15263 -0.30054,-0.0486 -0.60059,-0.0944 -0.89828,-0.13562 -0.29769,-0.0413 -0.593,-0.078 -0.88412,-0.10855 -0.29112,-0.0306 -0.57802,-0.055 -0.85897,-0.0719 -0.28096,-0.0169 -0.55593,-0.0261 -0.82334,-0.0265 -0.2674,-4.2e-4 -0.52718,0.008 -0.77792,0.0268 -0.25074,0.0186 -0.49237,0.0472 -0.72367,0.0869 -0.23129,0.0396 -0.45218,0.0903 -0.66164,0.15256 -0.20946,0.0623 -0.40743,0.13633 -0.59311,0.22251 -0.18568,0.0862 -0.35901,0.18456 -0.51945,0.29533 -0.16044,0.11076 -0.30791,0.23397 -0.44214,0.36954 -0.13424,0.13556 -0.25516,0.28356 -0.36275,0.44365 -0.1076,0.16008 -0.20181,0.33233 -0.28288,0.51616 -0.0811,0.18382 -0.14893,0.3793 -0.20411,0.58561 -0.0552,0.20631 -0.0976,0.4235204 -0.12807,0.6506104 -0.0305,0.22708 -0.0489,0.4641 -0.0563,0.70983 -0.007,0.24574 -0.004,0.50023 0.01,0.76211 0.0135,0.26187 0.037,0.53117 0.0689,0.80635 0.0319,0.27519 0.0724,0.5563 0.11981,0.84171 0.0474,0.2854 0.1018,0.57511 0.16146,0.86743 0.0597,0.29231 0.12459,0.58724 0.19301,0.88302 0.0684,0.29578 0.14033,0.59242 0.21386,0.88816 0.0735,0.29574 0.14869,0.59057 0.22357,0.88275 0.0749,0.29218 0.1495,0.5817 0.22196,0.86688 0.0725,0.28519 0.14275,0.56601 0.20905,0.8409 0.0663,0.27489 0.12857,0.54381 0.18509,0.8053 0.0565,0.26151 0.10725,0.51554 0.15059,0.76084 0.0433,0.24529 0.0792,0.48178 0.10622,0.70836 0.027,0.22659 0.0451,0.44321 0.0529,0.64898 0.008,0.20576 0.005,0.4006 -0.008,0.58384 -0.0138,0.18324 -0.0389,0.35481 -0.0762,0.51429 -0.0373,0.15947 -0.0869,0.30677 -0.14936,0.44172 -0.0624,0.13494 -0.13778,0.25745 -0.22634,0.36759 -0.0886,0.11013 -0.19045,0.20779 -0.30557,0.29339 -0.11517,0.0856 -0.24375,0.15893 -0.38549,0.22064 -0.14173,0.0617 -0.29671,0.11171 -0.46444,0.15077 -0.16772,0.0391 -0.34826,0.0671 -0.54086,0.0852 -0.19261,0.0181 -0.39734,0.0261 -0.61322,0.0253 -0.21587,-8.5e-4 -0.44295,-0.0106 -0.68002,-0.0278 -0.23708,-0.0173 -0.4842,-0.0421 -0.73996,-0.073 -0.25577,-0.0309 -0.52023,-0.0679 -0.79181,-0.10938 -0.27158,-0.0415 -0.55032,-0.0874 -0.83451,-0.1362 -0.28419,-0.0488 -0.57387,-0.10032 -0.86723,-0.15294 -0.29335,-0.0526 -0.59041,-0.10629 -0.88929,-0.15925 -0.29888,-0.053 -0.5996,-0.10521 -0.90025,-0.155 -0.30066,-0.0498 -0.60126,-0.0971 -0.8999,-0.1403 -0.29865,-0.0432 -0.59534,-0.0822 -0.88824,-0.1154 -0.29289,-0.0332 -0.58197,-0.0607 -0.86549,-0.0808 -0.28351,-0.0202 -0.56143,-0.0331 -0.83212,-0.0373 -0.27069,-0.004 -0.53412,1.2e-4 -0.78882,0.0143 -0.25469,0.0142 -0.5006,0.0382 -0.73643,0.073 -0.23583,0.0348 -0.46154,0.0804 -0.67604,0.13754 -0.21449,0.0571 -0.41772,0.12587 -0.60883,0.20666 -0.19111,0.0808 -0.37004,0.17372 -0.53619,0.27898 -0.16614,0.10526 -0.31944,0.22294 -0.45955,0.35301 -0.14012,0.13006 -0.26697,0.27257 -0.38051,0.42725 -0.11352,0.15469 -0.21365,0.32162 -0.30058,0.50026 -0.0869,0.17865 -0.16058,0.36907 -0.22143,0.57052 -0.0608,0.20145 -0.10883,0.413975 -0.14466,0.636615 -0.0358,0.22264 -0.0594,0.45544 -0.0718,0.69723 -0.0123,0.2418 -0.0134,0.49263 -0.004,0.75115 0.009,0.25852 0.0284,0.52478 0.0565,0.79726 0.0281,0.27249 0.065,0.55125 0.10928,0.83466 0.0442,0.28341 0.0958,0.5715 0.15304,0.86258 0.0572,0.29107 0.12013,0.58513 0.18691,0.88045 0.0668,0.29531 0.13746,0.59188 0.21018,0.88793 0.0727,0.29605 0.14748,0.59159 0.22239,0.88486 0.0749,0.29327 0.14997,0.58427 0.2233,0.87129 0.0733,0.28704 0.14489,0.57008 0.21288,0.84753 0.068,0.27745 0.13235,0.54928 0.19134,0.81401 0.059,0.26473 0.11259,0.52232 0.15914,0.77144 0.0466,0.24912 0.086,0.48972 0.11689,0.72066 0.0309,0.23094 0.0531,0.45216 0.0655,0.66272 0.0123,0.21055 0.0147,0.41037 0.006,0.59874 -0.009,0.18837 -0.0287,0.36522 -0.0606,0.53006 -0.0319,0.16484 -0.076,0.3176 -0.13272,0.45803 -0.0567,0.14044 -0.12629,0.26847 -0.20898,0.38412 -0.0827,0.11565 -0.17862,0.21883 -0.28785,0.30981 -0.10925,0.091 -0.23189,0.16968 -0.36775,0.23661 -0.13587,0.0669 -0.28504,0.122 -0.44706,0.16597 -0.16203,0.044 -0.33699,0.0768 -0.52418,0.0993 -0.1872,0.0226 -0.3867,0.0349 -0.59757,0.038 -0.21086,0.003 -0.43316,-0.003 -0.66573,-0.0167 -0.23256,-0.0138 -0.47545,-0.0356 -0.7273,-0.0637 -0.25184,-0.0281 -0.5127,-0.0627 -0.78103,-0.10209 -0.26833,-0.0394 -0.54418,-0.0837 -0.82586,-0.1311 -0.28168,-0.0474 -0.56923,-0.0981 -0.86086,-0.15012 -0.29163,-0.0521 -0.58736,-0.10556 -0.88534,-0.15875 -0.29797,-0.0532 -0.5982,-0.10606 -0.89879,-0.15686 -0.30059,-0.0508 -0.60154,-0.0995 -0.90096,-0.14446 -0.29942,-0.0449 -0.5973,-0.0861 -0.89179,-0.12179 -0.2945,-0.0357 -0.58558,-0.066 -0.87148,-0.0893 -0.28591,-0.0233 -0.5666,-0.0397 -0.84043,-0.0477 -0.27383,-0.008 -0.54075,-0.008 -0.79926,0.002 -0.2585,0.01 -0.50855,0.0294 -0.7488,0.0594 -0.24026,0.03 -0.47066,0.0707 -0.69009,0.12275 -0.21944,0.0521 -0.42784,0.11553 -0.6243,0.19098 -0.19646,0.0754 -0.38092,0.16293 -0.55273,0.26271 -0.17181,0.0998 -0.33089,0.21193 -0.47685,0.33648 -0.14597,0.12455 -0.27874,0.26157 -0.39819,0.41083 -0.11946,0.14925 -0.22551,0.31082 -0.31833,0.48422 -0.0928,0.1734 -0.1723,0.35871 -0.23887,0.55522 -0.0666,0.1965 -0.12017,0.40426 -0.16144,0.62235 -0.0413,0.21809 -0.0701,0.44657 -0.0876,0.68431 -0.0174,0.23773 -0.0233,0.48477 -0.0187,0.7398 0.004,0.25503 0.0195,0.5181 0.0436,0.78774 0.0241,0.26964 0.0574,0.54588 0.0983,0.82714 0.0409,0.28126 0.0895,0.56756 0.14415,0.85722 0.0546,0.28967 0.11531,0.5827 0.18027,0.87737 0.065,0.29468 0.13424,0.59099 0.20596,0.88718 0.0717,0.2962 0.14589,0.59227 0.22064,0.88646 0.0747,0.29419 0.15008,0.58649 0.22408,0.8752 0.074,0.28872 0.14668,0.57381 0.21617,0.85367 0.0695,0.27986 0.13577,0.55445 0.19707,0.82227 0.0613,0.26782 0.11759,0.52882 0.16719,0.78164 0.0496,0.25283 0.0925,0.49742 0.1271,0.73261 0.0346,0.23518 0.061,0.4609 0.0776,0.67615 0.0167,0.21525 0.0237,0.41998 0.0198,0.61341 -0.004,0.19344 -0.0187,0.3755 -0.0453,0.54567 -0.0266,0.17016 -0.0652,0.32834 -0.11628,0.47425 -0.0511,0.14591 -0.1149,0.27947 -0.19175,0.40063 -0.0769,0.12117 -0.16687,0.22986 -0.27019,0.32628 -0.10331,0.0964 -0.22001,0.18051 -0.34998,0.25271 -0.12997,0.0722 -0.27329,0.13242 -0.42957,0.18137 -0.15628,0.0489 -0.3256,0.0866 -0.50731,0.11373 -0.18172,0.0272 -0.3759,0.0439 -0.58166,0.0512 -0.20576,0.007 -0.42317,0.005 -0.6511,-0.005 -0.22794,-0.0103 -0.46647,-0.0288 -0.71426,-0.054 -0.24779,-0.0252 -0.5049,-0.0572 -0.76983,-0.0943 -0.26493,-0.0372 -0.53772,-0.0796 -0.81672,-0.1255 -0.279,-0.0459 -0.56424,-0.0954 -0.85397,-0.14677 -0.28972,-0.0513 -0.58394,-0.1045 -0.88083,-0.15775 -0.29688,-0.0532 -0.59644,-0.10656 -0.89677,-0.15819 -0.30033,-0.0516 -0.60146,-0.10158 -0.90146,-0.14811 -0.30001,-0.0465 -0.5989,-0.0896 -0.89481,-0.1277 -0.29591,-0.038 -0.58882,-0.071 -0.87693,-0.0974 -0.28813,-0.0263 -0.57143,-0.046 -0.84823,-0.0577 -0.2768,-0.0117 -0.54706,-0.0153 -0.80924,-0.01 -0.26218,0.006 -0.51623,0.0207 -0.76077,0.0461 -0.24455,0.0254 -0.47954,0.0612 -0.7038,0.1082 -0.22426,0.047 -0.43773,0.10532 -0.63946,0.17547 -0.20172,0.0702 -0.39164,0.15222 -0.56905,0.24654 -0.17741,0.0943 -0.34223,0.20095 -0.49401,0.31999 -0.15179,0.11903 -0.29046,0.25053 -0.41583,0.39432 -0.12538,0.1438 -0.23739,0.29996 -0.3361,0.46807 -0.0987,0.16811 -0.18407,0.34824 -0.25642,0.53972 -0.0724,0.19149 -0.1316,0.39441 -0.17839,0.60785 -0.0468,0.21345 -0.081,0.4375 -0.10359,0.67106 -0.0226,0.23355 -0.0334,0.47667 -0.0335,0.72808 -1.5e-4,0.25141 0.0104,0.51115 0.0304,0.7778 0.02,0.26664 0.0494,0.54022 0.0869,0.81917 0.0374,0.27894 0.0829,0.56329 0.13477,0.85137 0.0519,0.28808 0.11016,0.57992 0.17313,0.87378 0.063,0.29385 0.13064,0.58974 0.20118,0.8859 0.0705,0.29616 0.14394,0.59259 0.21835,0.88753 0.0744,0.29494 0.1498,0.58838 0.22429,0.87861 0.0745,0.29022 0.14809,0.57721 0.21891,0.85932 0.0708,0.28211 0.13883,0.55931 0.20226,0.83007 0.0634,0.27076 0.12224,0.53503 0.17473,0.79143 0.0525,0.25639 0.0986,0.50486 0.13686,0.74418 0.0382,0.23932 0.0685,0.46942 0.0894,0.68928 0.0209,0.21986 0.0324,0.42942 0.0333,0.62784 8.5e-4,0.19842 -0.009,0.38565 -0.0303,0.56108 -0.0214,0.17543 -0.0545,0.33901 -0.10007,0.49036 -0.0455,0.15136 -0.10361,0.29043 -0.17467,0.41711 -0.0711,0.12668 -0.15517,0.2409 -0.25258,0.34279 -0.0973,0.10196 -0.20815,0.19141 -0.33221,0.26891 -0.12406,0.0775 -0.2615,0.14295 -0.41199,0.19696 -0.15049,0.054 -0.31411,0.0965 -0.49027,0.12837 -0.17617,0.0319 -0.36495,0.053 -0.56551,0.0645 -0.20056,0.0115 -0.41298,0.0134 -0.63617,0.007 -0.22319,-0.007 -0.45723,-0.0217 -0.70083,-0.0438 -0.2436,-0.0221 -0.49682,-0.0514 -0.7582,-0.0861 -0.26137,-0.0348 -0.53094,-0.0751 -0.807098,-0.11941 -0.27615,-0.0443 -0.55892,-0.0925 -0.84656,-0.14292 -0.28764,-0.0504 -0.58018,-0.10309 -0.87579,-0.15622 -0.29561,-0.0531 -0.59431,-0.10671 -0.8942,-0.159"
     title="t+cos(0.15*t) 15*sin(0.15*t)"
     id="path6064" />
  <flowRoot
     xml:space="preserve"
     id="flowRoot4813-3"
     style="font-size:12px;font-style:normal;font-variant:normal;font-weight:normal;font-stretch:normal;text-align:start;line-height:125%;letter-spacing:0px;word-spacing:0px;writing-mode:lr-tb;text-anchor:start;fill:#000000;fill-opacity:1;stroke:none;font-family:Sans;-inkscape-font-specification:Sans"
     transform="translate(414.25084,244.14864)"><flowRegion
       id="flowRegion4815-6"><rect
         id="rect4817-5"
         width="85.73893"
         height="18.870901"
         x="-248.57143"
         y="-33.352104" /></flowRegion><flowPara
       id="flowPara4819-2">$\gamma(k)$</flowPara></flowRoot></svg>
