<?xml version="1.0" encoding="UTF-8" standalone="no"?>
<!-- Created with Inkscape (http://www.inkscape.org/) -->

<svg
   xmlns:dc="http://purl.org/dc/elements/1.1/"
   xmlns:cc="http://creativecommons.org/ns#"
   xmlns:rdf="http://www.w3.org/1999/02/22-rdf-syntax-ns#"
   xmlns:svg="http://www.w3.org/2000/svg"
   xmlns="http://www.w3.org/2000/svg"
   xmlns:sodipodi="http://sodipodi.sourceforge.net/DTD/sodipodi-0.dtd"
   xmlns:inkscape="http://www.inkscape.org/namespaces/inkscape"
   sodipodi:docname="feynman5.svg"
   inkscape:version="0.48.4 r9939"
   version="1.1"
   id="svg2"
   height="241.38084"
   width="460.77539">
  <sodipodi:namedview
     id="base"
     pagecolor="#ffffff"
     bordercolor="#666666"
     borderopacity="1.0"
     inkscape:pageopacity="0.0"
     inkscape:pageshadow="2"
     inkscape:zoom="1.4"
     inkscape:cx="82.866985"
     inkscape:cy="52.790204"
     inkscape:document-units="px"
     inkscape:current-layer="svg2"
     showgrid="true"
     inkscape:window-width="1280"
     inkscape:window-height="751"
     inkscape:window-x="0"
     inkscape:window-y="25"
     inkscape:window-maximized="1"
     fit-margin-top="0"
     fit-margin-left="0"
     fit-margin-right="0"
     fit-margin-bottom="0">
    <inkscape:grid
       type="xygrid"
       id="grid8988"
       empspacing="5"
       visible="true"
       enabled="true"
       snapvisiblegridlinesonly="true"
       originx="-10.99609px"
       originy="62.263657px" />
  </sodipodi:namedview>
  <defs
     id="defs4">
    <marker
       inkscape:stockid="Arrow1Lend"
       orient="auto"
       refY="0"
       refX="0"
       id="Arrow1Lend"
       style="overflow:visible">
      <path
         id="path4133"
         d="M 0,0 5,-5 -12.5,0 5,5 0,0 z"
         style="fill-rule:evenodd;stroke:#000000;stroke-width:1pt"
         transform="matrix(-0.8,0,0,-0.8,-10,0)"
         inkscape:connector-curvature="0" />
    </marker>
    <marker
       inkscape:stockid="Arrow1Lstart"
       orient="auto"
       refY="0"
       refX="0"
       id="Arrow1Lstart"
       style="overflow:visible">
      <path
         id="path3997"
         d="M 0,0 5,-5 -12.5,0 5,5 0,0 z"
         style="fill-rule:evenodd;stroke:#000000;stroke-width:1pt"
         transform="matrix(0.8,0,0,0.8,10,0)"
         inkscape:connector-curvature="0" />
    </marker>
  </defs>
  <metadata
     id="metadata7">
    <rdf:RDF>
      <cc:Work
         rdf:about="">
        <dc:format>image/svg+xml</dc:format>
        <dc:type
           rdf:resource="http://purl.org/dc/dcmitype/StillImage" />
        <dc:title></dc:title>
      </cc:Work>
    </rdf:RDF>
  </metadata>
  <g
     inkscape:label="Layer 1"
     inkscape:groupmode="layer"
     id="layer1"
     transform="translate(-355.56629,-140.48534)" />
  <path
     id="path4153-3-6"
     title="t+cos(0.15*t) 15*sin(0.15*t)"
     d="m 28.35975,74.301753 c 0.16519,-0.25573 0.32866,-0.51137 0.49036,-0.76447 0.16169,-0.25314 0.32165,-0.50363 0.47992,-0.74908 0.15827,-0.24542 0.31484,-0.48575 0.46982,-0.71857 0.15501,-0.2328 0.30838,-0.45811 0.4603,-0.67364 0.15191,-0.21556 0.30237,-0.42125 0.45152,-0.61516 0.14912,-0.19392 0.29699,-0.37588 0.44367,-0.54428 0.14668,-0.16839 0.29224,-0.32302 0.43691,-0.46245 0.1448,-0.13928 0.2883,-0.26367 0.43135,-0.37135 0.14298,-0.10776 0.28532,-0.19892 0.42715,-0.27277 0.14183,-0.0738 0.28316,-0.13028 0.42431,-0.16876 0.14116,-0.0385 0.28205,-0.059 0.42299,-0.0614 0.14096,-0.002 0.28191,0.0134 0.42316,0.0473 0.14127,0.0338 0.28277,0.0856 0.42483,0.15496 0.14208,0.0692 0.28463,0.15609 0.42797,0.25945 0.1433,0.10339 0.28744,0.22335 0.43252,0.35869 0.14508,0.13533 0.29115,0.28609 0.43838,0.45067 0.147,0.16481 0.29564,0.34308 0.44535,0.53363 0.14979,0.1905 0.30082,0.39317 0.45345,0.60575 0.15262,0.21259 0.30671,0.43523 0.46243,0.66562 0.15571,0.2304 0.31306,0.46856 0.4721,0.71207 0.15906,0.24351 0.3198,0.49241 0.4823,0.74415 0.1625,0.25173 0.32676,0.50633 0.49279,0.76119 0.166,0.25491 0.33383,0.51002 0.50337,0.76289 0.16957,0.25285 0.34084,0.50344 0.51384,0.74918 0.17303,0.24571 0.34772,0.48662 0.52398,0.72035 0.17629,0.23368 0.35424,0.46005 0.5336,0.67695 0.17938,0.2169 0.36029,0.42418 0.54247,0.61992 0.18217,0.19575 0.36561,0.37992 0.55044,0.55036 0.1847,0.1706 0.37057,0.32764 0.55736,0.46969 0.18677,0.14205 0.3745,0.26898 0.56301,0.37955 0.18847,0.1106 0.37769,0.20479 0.56739,0.2817 0.18973,0.0769 0.3799,0.13649 0.57036,0.17818 0.19044,0.0417 0.38114,0.0654 0.57184,0.071 0.19069,0.006 0.3814,-0.007 0.57184,-0.0376 0.19045,-0.0305 0.38064,-0.0793 0.57034,-0.14545 0.18971,-0.0661 0.37889,-0.14996 0.56735,-0.25042 0.18848,-0.10041 0.37619,-0.21766 0.56298,-0.35035 0.1868,-0.13267 0.37262,-0.28096 0.55729,-0.44324 0.1844,-0.16256 0.36839,-0.33843 0.55026,-0.52736 0.18222,-0.18858 0.36303,-0.38952 0.54242,-0.60062 0.17939,-0.2111 0.35724,-0.43254 0.53351,-0.66197 0.17627,-0.2294 0.35092,-0.46686 0.5239,-0.70994 0.17293,-0.24312 0.34424,-0.49182 0.51376,-0.74367 0.16953,-0.25184 0.33729,-0.50684 0.50329,-0.7624 0.16602,-0.25555 0.33023,-0.51169 0.49271,-0.76582 0.16247,-0.25413 0.32319,-0.50622 0.48221,-0.7538 0.15899,-0.2476 0.31634,-0.49058 0.47203,-0.72663 0.15569,-0.23605 0.30978,-0.46507 0.46236,-0.68484 0.1526,-0.21974 0.30366,-0.4302 0.45339,-0.62926 0.14976,-0.19904 0.29813,-0.38666 0.44531,-0.56104 0.14721,-0.17436 0.29321,-0.33541 0.43829,-0.48153 0.14495,-0.14625 0.28942,-0.27702 0.43224,-0.39256 0.1433,-0.11503 0.28591,-0.21369 0.42793,-0.29524 0.14203,-0.0815 0.28355,-0.14583 0.42482,-0.19225 0.14122,-0.0465 0.28221,-0.075 0.42315,-0.0854 0.14091,-0.0103 0.28185,-0.003 0.423,0.0232 0.14116,0.0258 0.28249,0.0697 0.42433,0.13122 0.14182,0.0615 0.28413,0.14066 0.42713,0.23662 0.14304,0.0959 0.28671,0.20879 0.43137,0.33722 0.14466,0.12844 0.29022,0.27264 0.43694,0.43099 0.1467,0.15838 0.29453,0.33102 0.44373,0.51606 0.14913,0.1851 0.29964,0.38266 0.45159,0.59071 0.15194,0.20804 0.30536,0.42661 0.46036,0.65343 0.15499,0.22684 0.31165,0.46192 0.4699,0.70297 0.15826,0.24105 0.31828,0.48794 0.47999,0.7383 0.16174,0.25033 0.32521,0.5041 0.49044,0.75873 0.16522,0.25463 0.33228,0.51007 0.50104,0.76383 0.16876,0.25376 0.33931,0.50577 0.51154,0.75354 0.17222,0.24779 0.34617,0.49128 0.52177,0.72805 0.17559,0.23674 0.35276,0.46682 0.53154,0.68779 0.1787,0.22102 0.35892,0.43298 0.54057,0.63372 0.1818,0.2006 0.36457,0.39034 0.54874,0.56685 0.18418,0.17648 0.36953,0.33986 0.5559,0.48851 0.18637,0.14864 0.37372,0.28251 0.56186,0.40031 0.18812,0.11783 0.37707,0.21944 0.56654,0.30401 0.18948,0.0845 0.37949,0.15195 0.56982,0.20158 0.19033,0.0496 0.38095,0.0814 0.57164,0.095 0.19069,0.0137 0.38143,0.009 0.57197,-0.0134 0.19055,-0.0225 0.38089,-0.0633 0.5708,-0.12166 0.18988,-0.0583 0.37936,-0.13446 0.56814,-0.22744 0.18875,-0.093 0.37688,-0.20295 0.56407,-0.32869 0.18718,-0.12576 0.37346,-0.26737 0.55866,-0.4233 0.1852,-0.15594 0.36924,-0.32637 0.55181,-0.50966 0.18283,-0.18299 0.36422,-0.37886 0.54423,-0.58535 0.18001,-0.20649 0.35858,-0.42367 0.53554,-0.64945 0.17702,-0.22571 0.35239,-0.46002 0.5261,-0.70048 0.17374,-0.24044 0.34575,-0.48712 0.51605,-0.73746 0.17029,-0.25035 0.33885,-0.50437 0.50564,-0.75956 0.16679,-0.25516 0.33179,-0.51149 0.49505,-0.76638 0.16327,-0.25488 0.32475,-0.50834 0.48453,-0.7578 0.15979,-0.24945 0.31783,-0.49493 0.47425,-0.73396 0.15642,-0.23904 0.31121,-0.47158 0.46446,-0.69536 0.15325,-0.22377 0.30498,-0.43871 0.45532,-0.64275 0.15036,-0.20397 0.29929,-0.39704 0.44702,-0.57722 0.14773,-0.18018 0.29429,-0.34736 0.43974,-0.50011 0.14551,-0.15267 0.28995,-0.29079 0.43358,-0.41296 0.14383,-0.12197 0.28654,-0.22824 0.42882,-0.31742 0.14225,-0.0891 0.28401,-0.16117 0.42537,-0.21555 0.14134,-0.0544 0.28242,-0.0909 0.42339,-0.10938 0.14096,-0.0185 0.28184,-0.0188 0.4229,-8.4e-4 0.14107,0.0177 0.28227,0.0537 0.4239,0.10736 0.14162,0.0537 0.28369,0.1251 0.4264,0.21352 0.14273,0.0884 0.2861,0.19393 0.43028,0.31541 0.14427,0.12142 0.2894,0.25886 0.43556,0.41088 0.14608,0.15209 0.29339,0.31869 0.44208,0.49802 0.14861,0.17943 0.29843,0.37185 0.44974,0.57512 0.15132,0.20328 0.30404,0.41757 0.45835,0.64059 0.15431,0.22304 0.31017,0.4549 0.46774,0.69315 0.15757,0.23825 0.31673,0.48304 0.47772,0.73171 0.16092,0.24873 0.32364,0.50139 0.48809,0.7555 0.16445,0.25413 0.3307,0.50965 0.49868,0.76405 0.16798,0.25438 0.33775,0.5076 0.50921,0.75716 0.1715,0.24951 0.34466,0.49537 0.51953,0.735 0.17486,0.23962 0.35135,0.47308 0.52942,0.69796 0.17806,0.2249 0.35762,0.44127 0.53864,0.6469 0.18101,0.20563 0.36315,0.40074 0.54686,0.58287 0.18372,0.18215 0.36846,0.35175 0.55441,0.50684 0.18588,0.15515 0.37286,0.29579 0.56064,0.42067 0.18775,0.12492 0.37641,0.23389 0.56563,0.32602 0.18917,0.0921 0.37903,0.16727 0.56921,0.22477 0.19018,0.0575 0.3807,0.0972 0.57136,0.11895 0.19064,0.0217 0.38141,0.0252 0.57202,0.0107 0.19063,-0.0145 0.3811,-0.0473 0.57119,-0.0977 0.19008,-0.0505 0.37978,-0.11883 0.56887,-0.20426 0.18908,-0.0854 0.3775,-0.18802 0.56509,-0.30669 0.18761,-0.11864 0.37427,-0.2535 0.56,-0.40293 0.18566,-0.14951 0.37025,-0.31377 0.55355,-0.49117 0.18301,-0.17769 0.36541,-0.3678 0.54606,-0.56942 0.18066,-0.20162 0.35986,-0.41447 0.53756,-0.63629 0.17768,-0.22183 0.3538,-0.45273 0.52824,-0.69034 0.17448,-0.23757 0.34725,-0.48192 0.51832,-0.73049 0.17104,-0.2486 0.3404,-0.50141 0.50797,-0.75596 0.16759,-0.25452 0.33338,-0.5108 0.49742,-0.7662 0.16407,-0.25536 0.32631,-0.50992 0.48685,-0.76104 0.16054,-0.25111 0.31936,-0.49878 0.47651,-0.74055 0.15713,-0.24177 0.31264,-0.4776 0.46656,-0.70517 0.15395,-0.22756 0.30633,-0.44681 0.4573,-0.6556 0.15096,-0.20878 0.30049,-0.40705 0.44877,-0.59283 0.14832,-0.18579 0.29528,-0.35911 0.4413,-0.51813 0.14596,-0.1591 0.29085,-0.30393 0.43489,-0.43306 0.14413,-0.12908 0.28724,-0.24258 0.42978,-0.33925 0.14254,-0.0966 0.2845,-0.1764 0.42602,-0.23863 0.14152,-0.0622 0.28271,-0.10673 0.42373,-0.13323 0.14104,-0.0265 0.28187,-0.0349 0.42287,-0.0252 0.14096,0.01 0.28209,0.0376 0.42354,0.0834 0.14147,0.0457 0.2833,0.10942 0.42572,0.19026 0.14239,0.0809 0.28549,0.17891 0.42933,0.29322 0.14387,0.11426 0.28852,0.24488 0.43434,0.39024 0.14553,0.14563 0.29243,0.30591 0.44066,0.47936 0.14801,0.17364 0.29726,0.36062 0.44793,0.55895 0.15067,0.19832 0.30272,0.40811 0.45639,0.62708 0.1536,0.21905 0.30876,0.44739 0.46561,0.68264 0.15682,0.23527 0.3153,0.47755 0.47545,0.72439 0.1602,0.24679 0.3221,0.49818 0.48577,0.75153 0.1637,0.25331 0.32911,0.5087 0.49631,0.76347 0.16723,0.25475 0.33619,0.50897 0.50689,0.76001 0.17074,0.25104 0.34319,0.49893 0.51727,0.74124 0.17407,0.24231 0.34991,0.47887 0.52722,0.7075 0.17732,0.22862 0.35624,0.44915 0.53665,0.65941 0.18033,0.21032 0.36213,0.41033 0.5449,0.59836 0.18331,0.18756 0.36742,0.36322 0.55286,0.52465 0.18544,0.16143 0.37196,0.30877 0.55935,0.44063 0.1874,0.13186 0.3757,0.2481 0.56464,0.34769 0.1889,0.0996 0.37852,0.18241 0.56853,0.24773 0.19,0.0653 0.38043,0.11303 0.57102,0.14275 0.19059,0.0298 0.38134,0.0413 0.57201,0.0349 0.19066,-0.006 0.38125,-0.0312 0.5715,-0.0737 0.19023,-0.0425 0.38016,-0.10307 0.5695,-0.18086 0.18938,-0.0777 0.37809,-0.17293 0.56606,-0.28438 0.18796,-0.11146 0.37507,-0.23935 0.56122,-0.38221 0.18614,-0.14286 0.37122,-0.30087 0.55507,-0.47236 0.18388,-0.17144 0.36655,-0.3564 0.54781,-0.55299 0.18126,-0.19657 0.36119,-0.40475 0.5395,-0.62251 0.17838,-0.21769 0.35519,-0.44499 0.53038,-0.67949 0.17516,-0.23452 0.34873,-0.47626 0.52056,-0.72282 0.17181,-0.24658 0.34195,-0.49793 0.51031,-0.75159 0.16837,-0.25363 0.33494,-0.5096 0.49975,-0.76526 0.16483,-0.25565 0.32788,-0.51101 0.4892,-0.76351 0.1613,-0.2525 0.32088,-0.50214 0.47877,-0.74642 0.1579,-0.24426 0.3141,-0.48315 0.46874,-0.71428 0.15466,-0.23111 0.30768,-0.45446 0.45929,-0.6678 0.15158,-0.21334 0.30175,-0.41659 0.45058,-0.60786 0.14887,-0.19124 0.2964,-0.37041 0.44286,-0.53571 0.14645,-0.16532 0.29178,-0.31673 0.43621,-0.45279 0.14446,-0.13602 0.28804,-0.25658 0.43082,-0.36072 0.14283,-0.10408 0.285,-0.19151 0.42674,-0.26149 0.14167,-0.07 0.28299,-0.12243 0.42408,-0.15694 0.14111,-0.0345 0.28199,-0.051 0.42294,-0.0493 0.14092,0.002 0.28195,0.0216 0.42327,0.0594 0.14131,0.0378 0.28293,0.0936 0.42511,0.16674 0.14216,0.0732 0.28489,0.16376 0.4284,0.27079 0.14353,0.107 0.28777,0.2306 0.43305,0.36936 0.14527,0.13876 0.2916,0.29274 0.43923,0.46025 0.14719,0.16792 0.29616,0.34904 0.44623,0.54219 0.15008,0.19315 0.30146,0.39824 0.45437,0.61305 0.15293,0.21481 0.30743,0.43936 0.46349,0.67145 0.15605,0.23209 0.31379,0.4717 0.47321,0.71636 0.15944,0.24466 0.32056,0.49445 0.48345,0.74679 0.16291,0.25232 0.32754,0.50725 0.49396,0.76214"
     style="fill:#ffffff;fill-opacity:1;stroke:#000000;stroke-width:1.06429374;stroke-miterlimit:4;stroke-opacity:1;stroke-dasharray:none"
     inkscape:connector-curvature="0" />
  <path
     style="fill:none;stroke:#000000;stroke-width:1.06429374;stroke-linecap:butt;stroke-linejoin:miter;stroke-miterlimit:4;stroke-opacity:1;stroke-dasharray:none;marker-mid:none"
     d="M 185.93646,8.6485052 155.76952,41.568505 126.28892,73.739553"
     id="path4198-7"
     inkscape:connector-curvature="0"
     inkscape:transform-center-x="-0.026866049"
     inkscape:transform-center-y="-61.1133"
     sodipodi:nodetypes="ccc" />
  <path
     style="fill:none;stroke:#000000;stroke-width:1.06400001;stroke-linecap:butt;stroke-linejoin:miter;stroke-miterlimit:4;stroke-opacity:1;stroke-dasharray:none;marker-start:none;marker-mid:none"
     d="m 126.25721,73.945053 31.00977,28.416457 34.08126,31.23108"
     id="path4198-7-8"
     inkscape:connector-curvature="0"
     inkscape:transform-center-x="61.1133"
     inkscape:transform-center-y="-0.026863"
     sodipodi:nodetypes="ccc" />
  <flowRoot
     xml:space="preserve"
     id="flowRoot4805"
     style="font-size:12px;font-style:normal;font-variant:normal;font-weight:normal;font-stretch:normal;text-align:start;line-height:125%;letter-spacing:0px;word-spacing:0px;writing-mode:lr-tb;text-anchor:start;fill:#000000;fill-opacity:1;stroke:none;font-family:Sans;-inkscape-font-specification:Sans"
     transform="translate(-355.56629,-140.48534)"><flowRegion
       id="flowRegion4807"><rect
         id="rect4809"
         width="165.71428"
         height="82.85714"
         x="-225.71428"
         y="-24.780674" /></flowRegion><flowPara
       id="flowPara4811" /></flowRoot>  <flowRoot
     xml:space="preserve"
     id="flowRoot4813"
     style="font-size:12px;font-style:normal;font-variant:normal;font-weight:normal;font-stretch:normal;text-align:start;line-height:125%;letter-spacing:0px;word-spacing:0px;writing-mode:lr-tb;text-anchor:start;fill:#000000;fill-opacity:1;stroke:none;font-family:Sans;-inkscape-font-specification:Sans"
     transform="translate(262.56641,105.49995)"><flowRegion
       id="flowRegion4815"><rect
         id="rect4817"
         width="85.73893"
         height="18.870901"
         x="-248.57143"
         y="-33.352104" /></flowRegion><flowPara
       id="flowPara4819">$\gamma$</flowPara></flowRoot>  <text
     xml:space="preserve"
     style="font-size:12px;font-style:normal;font-variant:normal;font-weight:normal;font-stretch:normal;text-align:start;line-height:125%;letter-spacing:0px;word-spacing:0px;writing-mode:lr-tb;text-anchor:start;fill:#000000;fill-opacity:1;stroke:none;font-family:Sans;-inkscape-font-specification:Sans"
     x="189.00391"
     y="9.1171913"
     id="text4211"
     sodipodi:linespacing="125%"><tspan
       sodipodi:role="line"
       id="tspan4213"
       x="189.00391"
       y="9.1171913">$e^+$</tspan></text>
  <text
     xml:space="preserve"
     style="font-size:12px;font-style:normal;font-variant:normal;font-weight:normal;font-stretch:normal;text-align:start;line-height:125%;letter-spacing:0px;word-spacing:0px;writing-mode:lr-tb;text-anchor:start;fill:#000000;fill-opacity:1;stroke:none;font-family:Sans;-inkscape-font-specification:Sans"
     x="168.98375"
     y="173.21439"
     id="text4236"
     sodipodi:linespacing="125%"><tspan
       sodipodi:role="line"
       x="168.98375"
       y="173.21439"
       id="tspan3120" /></text>
  <path
     id="path4153-3-6-0"
     title="t+cos(0.15*t) 15*sin(0.15*t)"
     d="m 152.26436,195.8007 c -0.25573,-0.16519 -0.51137,-0.32866 -0.76447,-0.49036 -0.25314,-0.16169 -0.50363,-0.32165 -0.74908,-0.47992 -0.24542,-0.15827 -0.48575,-0.31484 -0.71857,-0.46983 -0.2328,-0.155 -0.45811,-0.30837 -0.67364,-0.46029 -0.21556,-0.15191 -0.42125,-0.30237 -0.61516,-0.45152 -0.19392,-0.14912 -0.37588,-0.29699 -0.54428,-0.44367 -0.16839,-0.14668 -0.32302,-0.29225 -0.46245,-0.43691 -0.13928,-0.1448 -0.26367,-0.2883 -0.37135,-0.43135 -0.10776,-0.14298 -0.19892,-0.28532 -0.27277,-0.42715 -0.0738,-0.14183 -0.13028,-0.28316 -0.16876,-0.42431 -0.0385,-0.14116 -0.059,-0.28205 -0.0614,-0.42299 -0.002,-0.14096 0.0134,-0.28192 0.0473,-0.42317 0.0338,-0.14126 0.0856,-0.28276 0.15496,-0.42482 0.0692,-0.14208 0.15609,-0.28463 0.25945,-0.42797 0.10339,-0.1433 0.22335,-0.28744 0.35869,-0.43252 0.13533,-0.14508 0.28609,-0.29116 0.45067,-0.43838 0.16481,-0.147 0.34308,-0.29565 0.53363,-0.44535 0.1905,-0.14979 0.39317,-0.30083 0.60575,-0.45345 0.21259,-0.15263 0.43523,-0.30671 0.66562,-0.46243 0.2304,-0.15571 0.46856,-0.31306 0.71207,-0.4721 0.24351,-0.15906 0.49241,-0.3198 0.74415,-0.48231 0.25173,-0.16249 0.50633,-0.32675 0.76119,-0.49278 0.25491,-0.166 0.51002,-0.33383 0.76289,-0.50338 0.25285,-0.16956 0.50344,-0.34083 0.74918,-0.51384 0.24571,-0.17302 0.48662,-0.34771 0.72035,-0.52397 0.23368,-0.1763 0.46005,-0.35424 0.67695,-0.5336 0.2169,-0.17938 0.42418,-0.36029 0.61992,-0.54248 0.19575,-0.18216 0.37992,-0.3656 0.55036,-0.55044 0.1706,-0.1847 0.32764,-0.37056 0.46969,-0.55735 0.14205,-0.18678 0.26898,-0.3745 0.37955,-0.56301 0.1106,-0.18848 0.20479,-0.37769 0.2817,-0.5674 0.0769,-0.18972 0.13649,-0.37989 0.17818,-0.57035 0.0417,-0.19044 0.0654,-0.38114 0.071,-0.57184 0.006,-0.1907 -0.007,-0.3814 -0.0376,-0.57184 -0.0305,-0.19045 -0.0793,-0.38064 -0.14545,-0.57034 -0.0661,-0.18971 -0.14996,-0.37889 -0.25042,-0.56735 -0.10041,-0.18848 -0.21766,-0.37619 -0.35035,-0.56298 -0.13267,-0.18681 -0.28096,-0.37262 -0.44324,-0.55729 -0.16256,-0.1844 -0.33843,-0.36839 -0.52736,-0.55026 -0.18858,-0.18222 -0.38952,-0.36304 -0.60062,-0.54242 -0.2111,-0.17939 -0.43254,-0.35724 -0.66197,-0.53351 -0.2294,-0.17628 -0.46686,-0.35093 -0.70994,-0.5239 -0.24312,-0.17294 -0.49182,-0.34424 -0.74367,-0.51376 -0.25184,-0.16953 -0.50684,-0.33729 -0.7624,-0.50329 -0.25555,-0.16602 -0.51169,-0.33023 -0.76582,-0.49271 -0.25413,-0.16247 -0.50622,-0.32319 -0.7538,-0.48221 -0.2476,-0.15899 -0.49058,-0.31634 -0.72663,-0.47203 -0.23605,-0.1557 -0.46507,-0.30978 -0.68484,-0.46236 -0.21974,-0.1526 -0.4302,-0.30366 -0.62926,-0.45339 -0.19904,-0.14976 -0.38666,-0.29813 -0.56104,-0.44532 -0.17436,-0.14721 -0.33541,-0.2932 -0.48153,-0.43828 -0.14625,-0.14495 -0.27702,-0.28942 -0.39256,-0.43224 -0.11503,-0.1433 -0.21369,-0.28591 -0.29524,-0.42794 -0.0815,-0.14203 -0.14583,-0.28355 -0.19225,-0.42481 -0.0465,-0.14123 -0.075,-0.28221 -0.0854,-0.42316 -0.0103,-0.1409 -0.003,-0.28184 0.0232,-0.42299 0.0258,-0.14117 0.0697,-0.2825 0.13122,-0.42433 0.0615,-0.14182 0.14066,-0.28414 0.23662,-0.42714 0.0959,-0.14303 0.20879,-0.2867 0.33722,-0.43136 0.12844,-0.14466 0.27264,-0.29022 0.43099,-0.43695 0.15838,-0.14669 0.33102,-0.29452 0.51606,-0.44373 0.1851,-0.14913 0.38266,-0.29963 0.59071,-0.45158 0.20804,-0.15194 0.42661,-0.30536 0.65343,-0.46037 0.22684,-0.15499 0.46192,-0.31165 0.70297,-0.46989 0.24105,-0.15827 0.48794,-0.31828 0.7383,-0.48 0.25033,-0.16174 0.5041,-0.3252 0.75873,-0.49044 0.25463,-0.16521 0.51007,-0.33227 0.76383,-0.50103 0.25376,-0.16876 0.50577,-0.33931 0.75354,-0.51155 0.24779,-0.17222 0.49128,-0.34616 0.72805,-0.52176 0.23674,-0.1756 0.46682,-0.35276 0.68779,-0.53154 0.22102,-0.1787 0.43298,-0.35892 0.63372,-0.54057 0.2006,-0.1818 0.39034,-0.36457 0.56685,-0.54874 0.17648,-0.18418 0.33986,-0.36953 0.48851,-0.5559 0.14864,-0.18638 0.28251,-0.37373 0.40031,-0.56187 0.11783,-0.18811 0.21944,-0.37707 0.30401,-0.56653 0.0845,-0.18948 0.15195,-0.3795 0.20158,-0.56983 0.0496,-0.19032 0.0814,-0.38095 0.095,-0.57164 0.0137,-0.19069 0.009,-0.38143 -0.0134,-0.57197 -0.0225,-0.19055 -0.0633,-0.38088 -0.12166,-0.57079 -0.0583,-0.18989 -0.13446,-0.37937 -0.22744,-0.56815 -0.093,-0.18874 -0.20295,-0.37687 -0.32869,-0.56406 -0.12576,-0.18718 -0.26737,-0.37346 -0.4233,-0.55866 -0.15594,-0.18521 -0.32637,-0.36924 -0.50966,-0.55181 -0.18299,-0.18283 -0.37886,-0.36422 -0.58535,-0.54423 -0.20649,-0.18001 -0.42367,-0.35859 -0.64945,-0.53555 -0.22571,-0.17701 -0.46002,-0.35239 -0.70048,-0.52609 -0.24044,-0.17374 -0.48712,-0.34576 -0.73746,-0.51605 -0.25035,-0.17029 -0.50437,-0.33885 -0.75956,-0.50565 -0.25516,-0.16679 -0.51149,-0.33178 -0.76638,-0.49505 -0.25488,-0.16326 -0.50834,-0.32475 -0.7578,-0.48452 -0.24945,-0.1598 -0.49493,-0.31783 -0.73396,-0.47426 -0.23904,-0.15641 -0.47158,-0.3112 -0.69536,-0.46445 -0.22377,-0.15326 -0.43871,-0.30498 -0.64275,-0.45532 -0.20397,-0.15037 -0.39704,-0.29929 -0.57722,-0.44703 -0.18018,-0.14772 -0.34736,-0.29428 -0.50011,-0.43973 -0.15267,-0.14551 -0.29079,-0.28995 -0.41296,-0.43358 -0.12197,-0.14384 -0.22824,-0.28655 -0.31742,-0.42882 -0.0891,-0.14226 -0.16117,-0.28401 -0.21555,-0.42538 -0.0544,-0.14133 -0.0909,-0.28242 -0.10938,-0.42338 -0.0185,-0.14097 -0.0188,-0.28185 -8.4e-4,-0.4229 0.0177,-0.14107 0.0537,-0.28227 0.10736,-0.4239 0.0537,-0.14162 0.1251,-0.2837 0.21352,-0.4264 0.0884,-0.14273 0.19393,-0.2861 0.31541,-0.43029 0.12142,-0.14426 0.25886,-0.28939 0.41088,-0.43555 0.15209,-0.14609 0.31869,-0.2934 0.49802,-0.44208 0.17943,-0.14862 0.37185,-0.29843 0.57512,-0.44974 0.20328,-0.15133 0.41757,-0.30404 0.64059,-0.45836 0.22304,-0.15431 0.4549,-0.31016 0.69315,-0.46774 0.23825,-0.15757 0.48304,-0.31673 0.73171,-0.47771 0.24873,-0.16092 0.50139,-0.32364 0.7555,-0.48809 0.25413,-0.16446 0.50965,-0.3307 0.76405,-0.49868 0.25438,-0.16799 0.5076,-0.33775 0.75716,-0.50921 0.24951,-0.17151 0.49537,-0.34466 0.735,-0.51953 0.23962,-0.17487 0.47308,-0.35136 0.69796,-0.52942 0.2249,-0.17807 0.44127,-0.35763 0.6469,-0.53864 0.20563,-0.18101 0.40074,-0.36316 0.58287,-0.54687 0.18215,-0.18371 0.35175,-0.36845 0.50684,-0.5544 0.15515,-0.18588 0.29579,-0.37286 0.42067,-0.56065 0.12492,-0.18775 0.23389,-0.3764 0.32602,-0.56562 0.0921,-0.18918 0.16727,-0.37903 0.22477,-0.56921 0.0575,-0.19019 0.0972,-0.38071 0.11895,-0.57136 0.0217,-0.19065 0.0252,-0.38141 0.0107,-0.57203 -0.0145,-0.19062 -0.0473,-0.38109 -0.0977,-0.57118 -0.0505,-0.19008 -0.11883,-0.37978 -0.20426,-0.56887 -0.0854,-0.18908 -0.18802,-0.3775 -0.30669,-0.56509 -0.11864,-0.18761 -0.2535,-0.37427 -0.40293,-0.56 -0.14951,-0.18566 -0.31377,-0.37025 -0.49117,-0.55355 -0.17769,-0.18301 -0.3678,-0.36541 -0.56942,-0.54606 -0.20162,-0.18066 -0.41447,-0.35986 -0.63629,-0.53756 -0.22183,-0.17768 -0.45273,-0.3538 -0.69034,-0.52824 -0.23757,-0.17448 -0.48192,-0.34725 -0.73049,-0.51832 -0.2486,-0.17104 -0.50141,-0.3404 -0.75596,-0.50797 -0.25452,-0.16759 -0.5108,-0.33338 -0.7662,-0.49742 -0.25536,-0.16407 -0.50992,-0.32631 -0.76104,-0.48685 -0.25111,-0.16054 -0.49878,-0.31936 -0.74055,-0.47651 -0.24177,-0.15713 -0.4776,-0.31264 -0.70517,-0.46656 -0.22756,-0.15395 -0.44681,-0.30633 -0.6556,-0.4573 -0.20878,-0.15096 -0.40705,-0.30049 -0.59283,-0.44877 -0.18579,-0.14832 -0.35911,-0.29528 -0.51813,-0.4413 -0.1591,-0.14596 -0.30393,-0.29085 -0.43306,-0.43489 -0.12908,-0.14413 -0.24258,-0.28724 -0.33925,-0.42978 -0.0966,-0.14254 -0.1764,-0.2845 -0.23863,-0.42602 -0.0622,-0.14152 -0.10673,-0.28271 -0.13323,-0.42373 -0.0265,-0.14104 -0.0349,-0.28187 -0.0252,-0.42287 0.01,-0.14096 0.0376,-0.28209 0.0834,-0.42354 0.0457,-0.14147 0.10942,-0.2833 0.19026,-0.42572 0.0809,-0.14239 0.17891,-0.28549 0.29322,-0.42933 0.11426,-0.14387 0.24488,-0.28852 0.39024,-0.43434 0.14563,-0.14553 0.30591,-0.29243 0.47936,-0.44066 0.17364,-0.14801 0.36062,-0.29726 0.55895,-0.44793 0.19832,-0.15067 0.40811,-0.30272 0.62708,-0.45639 0.21905,-0.1536 0.44739,-0.30876 0.68264,-0.46561 0.23527,-0.15682 0.47755,-0.3153 0.72439,-0.47545 0.24679,-0.1602 0.49818,-0.3221 0.75153,-0.48577 0.25331,-0.1637 0.5087,-0.32911 0.76347,-0.49631 0.25475,-0.16723 0.50897,-0.33619 0.76001,-0.50689 0.25104,-0.17074 0.49893,-0.34319 0.74124,-0.51727 0.24231,-0.17407 0.47887,-0.34991 0.7075,-0.52722 0.22862,-0.17732 0.44915,-0.35624 0.65941,-0.53665 0.21032,-0.18033 0.41033,-0.36213 0.59836,-0.5449 0.18756,-0.18331 0.36322,-0.36742 0.52465,-0.55286 0.16143,-0.18544 0.30877,-0.37196 0.44063,-0.55935 0.13186,-0.1874 0.2481,-0.3757 0.34769,-0.56464 0.0996,-0.1889 0.18241,-0.37852 0.24773,-0.56853 0.0653,-0.19 0.11303,-0.38043 0.14275,-0.57102 0.0298,-0.19059 0.0413,-0.38134 0.0349,-0.57201 -0.006,-0.19066 -0.0312,-0.38125 -0.0737,-0.5715 -0.0425,-0.19023 -0.10307,-0.38016 -0.18086,-0.5695 -0.0777,-0.18938 -0.17293,-0.37809 -0.28438,-0.56606 -0.11146,-0.18796 -0.23935,-0.37507 -0.38221,-0.56122 -0.14286,-0.18614 -0.30087,-0.37122 -0.47236,-0.55507 -0.17144,-0.18388 -0.3564,-0.36655 -0.55299,-0.54781 -0.19657,-0.18126 -0.40475,-0.36119 -0.62251,-0.5395 -0.21769,-0.17838 -0.44499,-0.35519 -0.67949,-0.53038 -0.23452,-0.17516 -0.47626,-0.34873 -0.72282,-0.52056 -0.24658,-0.17181 -0.49793,-0.34195 -0.75159,-0.51031 -0.25363,-0.16837 -0.5096,-0.33494 -0.76526,-0.49975 -0.25565,-0.16483 -0.51101,-0.32788 -0.76351,-0.4892 -0.2525,-0.1613 -0.50214,-0.32088 -0.74642,-0.47877 -0.24426,-0.1579 -0.48315,-0.3141 -0.71428,-0.46874 -0.23111,-0.15466 -0.45446,-0.30768 -0.6678,-0.45929 -0.21334,-0.15158 -0.41659,-0.30175 -0.60786,-0.45058 -0.19124,-0.14887 -0.37041,-0.2964 -0.53571,-0.44286 -0.16532,-0.14645 -0.31673,-0.29178 -0.45279,-0.43621 -0.13602,-0.14446 -0.25658,-0.28804 -0.36072,-0.43082 -0.10408,-0.14283 -0.19151,-0.285 -0.26149,-0.42674 -0.07,-0.14167 -0.12243,-0.28299 -0.15694,-0.42408 -0.0345,-0.14111 -0.051,-0.28199 -0.0493,-0.42294 0.002,-0.14092 0.0216,-0.28195 0.0594,-0.42327 0.0378,-0.14131 0.0936,-0.28293 0.16674,-0.42511 0.0732,-0.14216 0.16376,-0.28489 0.27079,-0.4284 0.107,-0.14353 0.2306,-0.28777 0.36936,-0.43305 0.13876,-0.14527 0.29274,-0.2916 0.46025,-0.43923 0.16792,-0.14719 0.34904,-0.29616 0.54219,-0.44623 0.19315,-0.15008 0.39824,-0.301457 0.61305,-0.454367 0.21481,-0.15293 0.43936,-0.30743 0.67145,-0.46349 0.23209,-0.15605 0.4717,-0.31379 0.71636,-0.47321 0.24466,-0.15944 0.49445,-0.32056 0.74679,-0.48345 0.25232,-0.16291 0.50725,-0.32754 0.76214,-0.49396"
     style="fill:#a60ca6;fill-opacity:0.015625;stroke:#fb0000;stroke-width:1.06429374;stroke-miterlimit:4;stroke-opacity:1;stroke-dasharray:none"
     inkscape:connector-curvature="0" />
  <text
     xml:space="preserve"
     style="font-size:12px;font-style:normal;font-variant:normal;font-weight:normal;font-stretch:normal;text-align:start;line-height:125%;letter-spacing:0px;word-spacing:0px;writing-mode:lr-tb;text-anchor:start;fill:#000000;fill-opacity:1;stroke:none;font-family:Sans;-inkscape-font-specification:Sans"
     x="194.00391"
     y="144.11719"
     id="text4211-8"
     sodipodi:linespacing="125%"><tspan
       sodipodi:role="line"
       id="tspan4213-4"
       x="194.00391"
       y="144.11719">$e^-$</tspan></text>
  <path
     sodipodi:type="arc"
     style="fill:#a60ca6;fill-opacity:0.015625;stroke:#fb0000;stroke-width:1.06400001;stroke-miterlimit:4;stroke-opacity:1;stroke-dasharray:none;stroke-dashoffset:0"
     id="path10463"
     sodipodi:cx="147.5"
     sodipodi:cy="277.76196"
     sodipodi:rx="12.5"
     sodipodi:ry="12.5"
     d="m 160,277.76196 a 12.5,12.5 0 1 1 -25,0 12.5,12.5 0 1 1 25,0 z"
     transform="translate(5.6714203,-69.378295)" />
  <text
     xml:space="preserve"
     style="font-size:12px;font-style:normal;font-variant:normal;font-weight:normal;font-stretch:normal;text-align:start;line-height:125%;letter-spacing:0px;word-spacing:0px;writing-mode:lr-tb;text-anchor:start;fill:#fc0000;fill-opacity:1;stroke:#ee0000;stroke-opacity:1;font-family:Sans;-inkscape-font-specification:Sans"
     x="139.00391"
     y="239.11719"
     id="text10465"
     sodipodi:linespacing="125%"><tspan
       sodipodi:role="line"
       id="tspan10467"
       x="139.00391"
       y="239.11719">$Z\cdot e$</tspan></text>
  <path
     id="path4153-3-6-7"
     title="t+cos(0.15*t) 15*sin(0.15*t)"
     d="m 253.35975,74.301753 c 0.16519,-0.25573 0.32866,-0.51137 0.49036,-0.76447 0.16169,-0.25314 0.32165,-0.50363 0.47992,-0.74908 0.15827,-0.24542 0.31484,-0.48575 0.46982,-0.71857 0.15501,-0.2328 0.30838,-0.45811 0.4603,-0.67364 0.15191,-0.21556 0.30237,-0.42125 0.45152,-0.61516 0.14912,-0.19392 0.29699,-0.37588 0.44367,-0.54428 0.14668,-0.16839 0.29224,-0.32302 0.43691,-0.46245 0.1448,-0.13928 0.2883,-0.26367 0.43135,-0.37135 0.14298,-0.10776 0.28532,-0.19892 0.42715,-0.27277 0.14183,-0.0738 0.28316,-0.13028 0.42431,-0.16876 0.14116,-0.0385 0.28205,-0.059 0.42299,-0.0614 0.14096,-0.002 0.28191,0.0134 0.42316,0.0473 0.14127,0.0338 0.28277,0.0856 0.42483,0.15496 0.14208,0.0692 0.28463,0.15609 0.42797,0.25945 0.1433,0.10339 0.28744,0.22335 0.43252,0.35869 0.14508,0.13533 0.29115,0.28609 0.43838,0.45067 0.147,0.16481 0.29564,0.34308 0.44535,0.53363 0.14979,0.1905 0.30082,0.39317 0.45345,0.60575 0.15262,0.21259 0.30671,0.43523 0.46243,0.66562 0.15571,0.2304 0.31306,0.46856 0.4721,0.71207 0.15906,0.24351 0.3198,0.49241 0.4823,0.74415 0.1625,0.25173 0.32676,0.50633 0.49279,0.76119 0.166,0.25491 0.33383,0.51002 0.50337,0.76289 0.16957,0.25285 0.34084,0.50344 0.51384,0.74918 0.17303,0.24571 0.34772,0.48662 0.52398,0.72035 0.17629,0.23368 0.35424,0.46005 0.5336,0.67695 0.17938,0.2169 0.36029,0.42418 0.54247,0.61992 0.18217,0.19575 0.36561,0.37992 0.55044,0.55036 0.1847,0.1706 0.37057,0.32764 0.55736,0.46969 0.18677,0.14205 0.3745,0.26898 0.56301,0.37955 0.18847,0.1106 0.37769,0.20479 0.56739,0.2817 0.18973,0.0769 0.3799,0.13649 0.57036,0.17818 0.19044,0.0417 0.38114,0.0654 0.57184,0.071 0.19069,0.006 0.3814,-0.007 0.57184,-0.0376 0.19045,-0.0305 0.38064,-0.0793 0.57034,-0.14545 0.18971,-0.0661 0.37889,-0.14996 0.56735,-0.25042 0.18848,-0.10041 0.37619,-0.21766 0.56298,-0.35035 0.1868,-0.13267 0.37262,-0.28096 0.55729,-0.44324 0.1844,-0.16256 0.36839,-0.33843 0.55026,-0.52736 0.18222,-0.18858 0.36303,-0.38952 0.54242,-0.60062 0.17939,-0.2111 0.35724,-0.43254 0.53351,-0.66197 0.17627,-0.2294 0.35092,-0.46686 0.5239,-0.70994 0.17293,-0.24312 0.34424,-0.49182 0.51376,-0.74367 0.16953,-0.25184 0.33729,-0.50684 0.50329,-0.7624 0.16602,-0.25555 0.33023,-0.51169 0.49271,-0.76582 0.16247,-0.25413 0.32319,-0.50622 0.48221,-0.7538 0.15899,-0.2476 0.31634,-0.49058 0.47203,-0.72663 0.15569,-0.23605 0.30978,-0.46507 0.46236,-0.68484 0.1526,-0.21974 0.30366,-0.4302 0.45339,-0.62926 0.14976,-0.19904 0.29813,-0.38666 0.44531,-0.56104 0.14721,-0.17436 0.29321,-0.33541 0.43829,-0.48153 0.14495,-0.14625 0.28942,-0.27702 0.43224,-0.39256 0.1433,-0.11503 0.28591,-0.21369 0.42793,-0.29524 0.14203,-0.0815 0.28355,-0.14583 0.42482,-0.19225 0.14122,-0.0465 0.28221,-0.075 0.42315,-0.0854 0.14091,-0.0103 0.28185,-0.003 0.423,0.0232 0.14116,0.0258 0.28249,0.0697 0.42433,0.13122 0.14182,0.0615 0.28413,0.14066 0.42713,0.23662 0.14304,0.0959 0.28671,0.20879 0.43137,0.33722 0.14466,0.12844 0.29022,0.27264 0.43694,0.43099 0.1467,0.15838 0.29453,0.33102 0.44373,0.51606 0.14913,0.1851 0.29964,0.38266 0.45159,0.59071 0.15194,0.20804 0.30536,0.42661 0.46036,0.65343 0.15499,0.22684 0.31165,0.46192 0.4699,0.70297 0.15826,0.24105 0.31828,0.48794 0.47999,0.7383 0.16174,0.25033 0.32521,0.5041 0.49044,0.75873 0.16522,0.25463 0.33228,0.51007 0.50104,0.76383 0.16876,0.25376 0.33931,0.50577 0.51154,0.75354 0.17222,0.24779 0.34617,0.49128 0.52177,0.72805 0.17559,0.23674 0.35276,0.46682 0.53154,0.68779 0.1787,0.22102 0.35892,0.43298 0.54057,0.63372 0.1818,0.2006 0.36457,0.39034 0.54874,0.56685 0.18418,0.17648 0.36953,0.33986 0.5559,0.48851 0.18637,0.14864 0.37372,0.28251 0.56186,0.40031 0.18812,0.11783 0.37707,0.21944 0.56654,0.30401 0.18948,0.0845 0.37949,0.15195 0.56982,0.20158 0.19033,0.0496 0.38095,0.0814 0.57164,0.095 0.19069,0.0137 0.38143,0.009 0.57197,-0.0134 0.19055,-0.0225 0.38089,-0.0633 0.5708,-0.12166 0.18988,-0.0583 0.37936,-0.13446 0.56814,-0.22744 0.18875,-0.093 0.37688,-0.20295 0.56407,-0.32869 0.18718,-0.12576 0.37346,-0.26737 0.55866,-0.4233 0.1852,-0.15594 0.36924,-0.32637 0.55181,-0.50966 0.18283,-0.18299 0.36422,-0.37886 0.54423,-0.58535 0.18001,-0.20649 0.35858,-0.42367 0.53554,-0.64945 0.17702,-0.22571 0.35239,-0.46002 0.5261,-0.70048 0.17374,-0.24044 0.34575,-0.48712 0.51605,-0.73746 0.17029,-0.25035 0.33885,-0.50437 0.50564,-0.75956 0.16679,-0.25516 0.33179,-0.51149 0.49505,-0.76638 0.16327,-0.25488 0.32475,-0.50834 0.48453,-0.7578 0.15979,-0.24945 0.31783,-0.49493 0.47425,-0.73396 0.15642,-0.23904 0.31121,-0.47158 0.46446,-0.69536 0.15325,-0.22377 0.30498,-0.43871 0.45532,-0.64275 0.15036,-0.20397 0.29929,-0.39704 0.44702,-0.57722 0.14773,-0.18018 0.29429,-0.34736 0.43974,-0.50011 0.14551,-0.15267 0.28995,-0.29079 0.43358,-0.41296 0.14383,-0.12197 0.28654,-0.22824 0.42882,-0.31742 0.14225,-0.0891 0.28401,-0.16117 0.42537,-0.21555 0.14134,-0.0544 0.28242,-0.0909 0.42339,-0.10938 0.14096,-0.0185 0.28184,-0.0188 0.4229,-8.4e-4 0.14107,0.0177 0.28227,0.0537 0.4239,0.10736 0.14162,0.0537 0.28369,0.1251 0.4264,0.21352 0.14273,0.0884 0.2861,0.19393 0.43028,0.31541 0.14427,0.12142 0.2894,0.25886 0.43556,0.41088 0.14608,0.15209 0.29339,0.31869 0.44208,0.49802 0.14861,0.17943 0.29843,0.37185 0.44974,0.57512 0.15132,0.20328 0.30404,0.41757 0.45835,0.64059 0.15431,0.22304 0.31017,0.4549 0.46774,0.69315 0.15757,0.23825 0.31673,0.48304 0.47772,0.73171 0.16092,0.24873 0.32364,0.50139 0.48809,0.7555 0.16445,0.25413 0.3307,0.50965 0.49868,0.76405 0.16798,0.25438 0.33775,0.5076 0.50921,0.75716 0.1715,0.24951 0.34466,0.49537 0.51953,0.735 0.17486,0.23962 0.35135,0.47308 0.52942,0.69796 0.17806,0.2249 0.35762,0.44127 0.53864,0.6469 0.18101,0.20563 0.36315,0.40074 0.54686,0.58287 0.18372,0.18215 0.36846,0.35175 0.55441,0.50684 0.18588,0.15515 0.37286,0.29579 0.56064,0.42067 0.18775,0.12492 0.37641,0.23389 0.56563,0.32602 0.18917,0.0921 0.37903,0.16727 0.56921,0.22477 0.19018,0.0575 0.3807,0.0972 0.57136,0.11895 0.19064,0.0217 0.38141,0.0252 0.57202,0.0107 0.19063,-0.0145 0.3811,-0.0473 0.57119,-0.0977 0.19008,-0.0505 0.37978,-0.11883 0.56887,-0.20426 0.18908,-0.0854 0.3775,-0.18802 0.56509,-0.30669 0.18761,-0.11864 0.37427,-0.2535 0.56,-0.40293 0.18566,-0.14951 0.37025,-0.31377 0.55355,-0.49117 0.18301,-0.17769 0.36541,-0.3678 0.54606,-0.56942 0.18066,-0.20162 0.35986,-0.41447 0.53756,-0.63629 0.17768,-0.22183 0.3538,-0.45273 0.52824,-0.69034 0.17448,-0.23757 0.34725,-0.48192 0.51832,-0.73049 0.17104,-0.2486 0.3404,-0.50141 0.50797,-0.75596 0.16759,-0.25452 0.33338,-0.5108 0.49742,-0.7662 0.16407,-0.25536 0.32631,-0.50992 0.48685,-0.76104 0.16054,-0.25111 0.31936,-0.49878 0.47651,-0.74055 0.15713,-0.24177 0.31264,-0.4776 0.46656,-0.70517 0.15395,-0.22756 0.30633,-0.44681 0.4573,-0.6556 0.15096,-0.20878 0.30049,-0.40705 0.44877,-0.59283 0.14832,-0.18579 0.29528,-0.35911 0.4413,-0.51813 0.14596,-0.1591 0.29085,-0.30393 0.43489,-0.43306 0.14413,-0.12908 0.28724,-0.24258 0.42978,-0.33925 0.14254,-0.0966 0.2845,-0.1764 0.42602,-0.23863 0.14152,-0.0622 0.28271,-0.10673 0.42373,-0.13323 0.14104,-0.0265 0.28187,-0.0349 0.42287,-0.0252 0.14096,0.01 0.28209,0.0376 0.42354,0.0834 0.14147,0.0457 0.2833,0.10942 0.42572,0.19026 0.14239,0.0809 0.28549,0.17891 0.42933,0.29322 0.14387,0.11426 0.28852,0.24488 0.43434,0.39024 0.14553,0.14563 0.29243,0.30591 0.44066,0.47936 0.14801,0.17364 0.29726,0.36062 0.44793,0.55895 0.15067,0.19832 0.30272,0.40811 0.45639,0.62708 0.1536,0.21905 0.30876,0.44739 0.46561,0.68264 0.15682,0.23527 0.3153,0.47755 0.47545,0.72439 0.1602,0.24679 0.3221,0.49818 0.48577,0.75153 0.1637,0.25331 0.32911,0.5087 0.49631,0.76347 0.16723,0.25475 0.33619,0.50897 0.50689,0.76001 0.17074,0.25104 0.34319,0.49893 0.51727,0.74124 0.17407,0.24231 0.34991,0.47887 0.52722,0.7075 0.17732,0.22862 0.35624,0.44915 0.53665,0.65941 0.18033,0.21032 0.36213,0.41033 0.5449,0.59836 0.18331,0.18756 0.36742,0.36322 0.55286,0.52465 0.18544,0.16143 0.37196,0.30877 0.55935,0.44063 0.1874,0.13186 0.3757,0.2481 0.56464,0.34769 0.1889,0.0996 0.37852,0.18241 0.56853,0.24773 0.19,0.0653 0.38043,0.11303 0.57102,0.14275 0.19059,0.0298 0.38134,0.0413 0.57201,0.0349 0.19066,-0.006 0.38125,-0.0312 0.5715,-0.0737 0.19023,-0.0425 0.38016,-0.10307 0.5695,-0.18086 0.18938,-0.0777 0.37809,-0.17293 0.56606,-0.28438 0.18796,-0.11146 0.37507,-0.23935 0.56122,-0.38221 0.18614,-0.14286 0.37122,-0.30087 0.55507,-0.47236 0.18388,-0.17144 0.36655,-0.3564 0.54781,-0.55299 0.18126,-0.19657 0.36119,-0.40475 0.5395,-0.62251 0.17838,-0.21769 0.35519,-0.44499 0.53038,-0.67949 0.17516,-0.23452 0.34873,-0.47626 0.52056,-0.72282 0.17181,-0.24658 0.34195,-0.49793 0.51031,-0.75159 0.16837,-0.25363 0.33494,-0.5096 0.49975,-0.76526 0.16483,-0.25565 0.32788,-0.51101 0.4892,-0.76351 0.1613,-0.2525 0.32088,-0.50214 0.47877,-0.74642 0.1579,-0.24426 0.3141,-0.48315 0.46874,-0.71428 0.15466,-0.23111 0.30768,-0.45446 0.45929,-0.6678 0.15158,-0.21334 0.30175,-0.41659 0.45058,-0.60786 0.14887,-0.19124 0.2964,-0.37041 0.44286,-0.53571 0.14645,-0.16532 0.29178,-0.31673 0.43621,-0.45279 0.14446,-0.13602 0.28804,-0.25658 0.43082,-0.36072 0.14283,-0.10408 0.285,-0.19151 0.42674,-0.26149 0.14167,-0.07 0.28299,-0.12243 0.42408,-0.15694 0.14111,-0.0345 0.28199,-0.051 0.42294,-0.0493 0.14092,0.002 0.28195,0.0216 0.42327,0.0594 0.14131,0.0378 0.28293,0.0936 0.42511,0.16674 0.14216,0.0732 0.28489,0.16376 0.4284,0.27079 0.14353,0.107 0.28777,0.2306 0.43305,0.36936 0.14527,0.13876 0.2916,0.29274 0.43923,0.46025 0.14719,0.16792 0.29616,0.34904 0.44623,0.54219 0.15008,0.19315 0.30146,0.39824 0.45437,0.61305 0.15293,0.21481 0.30743,0.43936 0.46349,0.67145 0.15605,0.23209 0.31379,0.4717 0.47321,0.71636 0.15944,0.24466 0.32056,0.49445 0.48345,0.74679 0.16291,0.25232 0.32754,0.50725 0.49396,0.76214"
     style="fill:#ffffff;fill-opacity:1;stroke:#000000;stroke-width:1.06429374;stroke-miterlimit:4;stroke-opacity:1;stroke-dasharray:none"
     inkscape:connector-curvature="0" />
  <path
     style="fill:none;stroke:#000000;stroke-width:1.06429374;stroke-linecap:butt;stroke-linejoin:miter;stroke-miterlimit:4;stroke-opacity:1;stroke-dasharray:none;marker-mid:none"
     d="M 410.93646,8.6485012 380.76952,41.5685 351.28892,73.739553"
     id="path4198-7-3"
     inkscape:connector-curvature="0"
     inkscape:transform-center-x="-0.026866049"
     inkscape:transform-center-y="-61.1133"
     sodipodi:nodetypes="ccc" />
  <path
     style="fill:none;stroke:#000000;stroke-width:1.06400001;stroke-linecap:butt;stroke-linejoin:miter;stroke-miterlimit:4;stroke-opacity:1;stroke-dasharray:none;marker-start:none;marker-mid:none"
     d="m 351.25721,73.945053 31.00977,28.416457 34.08126,31.23108"
     id="path4198-7-8-2"
     inkscape:connector-curvature="0"
     inkscape:transform-center-x="61.1133"
     inkscape:transform-center-y="-0.026863"
     sodipodi:nodetypes="ccc" />
  <flowRoot
     xml:space="preserve"
     id="flowRoot4805-8"
     style="font-size:12px;font-style:normal;font-variant:normal;font-weight:normal;font-stretch:normal;text-align:start;line-height:125%;letter-spacing:0px;word-spacing:0px;writing-mode:lr-tb;text-anchor:start;fill:#000000;fill-opacity:1;stroke:none;font-family:Sans;-inkscape-font-specification:Sans"
     transform="translate(-165.56629,-165.48534)"><flowRegion
       id="flowRegion4807-2"><rect
         id="rect4809-1"
         width="165.71428"
         height="82.85714"
         x="-225.71428"
         y="-24.780674" /></flowRegion><flowPara
       id="flowPara4811-1" /></flowRoot>  <flowRoot
     xml:space="preserve"
     id="flowRoot4813-8"
     style="font-size:12px;font-style:normal;font-variant:normal;font-weight:normal;font-stretch:normal;text-align:start;line-height:125%;letter-spacing:0px;word-spacing:0px;writing-mode:lr-tb;text-anchor:start;fill:#000000;fill-opacity:1;stroke:none;font-family:Sans;-inkscape-font-specification:Sans"
     transform="translate(487.56641,105.49995)"><flowRegion
       id="flowRegion4815-0"><rect
         id="rect4817-7"
         width="85.73893"
         height="18.870901"
         x="-248.57143"
         y="-33.352104" /></flowRegion><flowPara
       id="flowPara4819-2">$\gamma$</flowPara></flowRoot>  <text
     xml:space="preserve"
     style="font-size:12px;font-style:normal;font-variant:normal;font-weight:normal;font-stretch:normal;text-align:start;line-height:125%;letter-spacing:0px;word-spacing:0px;writing-mode:lr-tb;text-anchor:start;fill:#000000;fill-opacity:1;stroke:none;font-family:Sans;-inkscape-font-specification:Sans"
     x="414.00391"
     y="9.1171875"
     id="text4211-5"
     sodipodi:linespacing="125%"><tspan
       sodipodi:role="line"
       id="tspan4213-9"
       x="414.00391"
       y="9.1171875">$e^-$</tspan></text>
  <text
     xml:space="preserve"
     style="font-size:12px;font-style:normal;font-variant:normal;font-weight:normal;font-stretch:normal;text-align:start;line-height:125%;letter-spacing:0px;word-spacing:0px;writing-mode:lr-tb;text-anchor:start;fill:#000000;fill-opacity:1;stroke:none;font-family:Sans;-inkscape-font-specification:Sans"
     x="358.98373"
     y="148.21439"
     id="text4236-1"
     sodipodi:linespacing="125%"><tspan
       sodipodi:role="line"
       x="358.98373"
       y="148.21439"
       id="tspan3120-4" /></text>
  <path
     id="path4153-3-6-0-8"
     title="t+cos(0.15*t) 15*sin(0.15*t)"
     d="m 377.26436,195.8007 c -0.25573,-0.16519 -0.51137,-0.32866 -0.76447,-0.49036 -0.25314,-0.16169 -0.50363,-0.32165 -0.74908,-0.47992 -0.24542,-0.15827 -0.48575,-0.31484 -0.71857,-0.46983 -0.2328,-0.155 -0.45811,-0.30837 -0.67364,-0.46029 -0.21556,-0.15191 -0.42125,-0.30237 -0.61516,-0.45152 -0.19392,-0.14912 -0.37588,-0.29699 -0.54428,-0.44367 -0.16839,-0.14668 -0.32302,-0.29225 -0.46245,-0.43691 -0.13928,-0.1448 -0.26367,-0.2883 -0.37135,-0.43135 -0.10776,-0.14298 -0.19892,-0.28532 -0.27277,-0.42715 -0.0738,-0.14183 -0.13028,-0.28316 -0.16876,-0.42431 -0.0385,-0.14116 -0.059,-0.28205 -0.0614,-0.42299 -0.002,-0.14096 0.0134,-0.28192 0.0473,-0.42317 0.0338,-0.14126 0.0856,-0.28276 0.15496,-0.42482 0.0692,-0.14208 0.15609,-0.28463 0.25945,-0.42797 0.10339,-0.1433 0.22335,-0.28744 0.35869,-0.43252 0.13533,-0.14508 0.28609,-0.29116 0.45067,-0.43838 0.16481,-0.147 0.34308,-0.29565 0.53363,-0.44535 0.1905,-0.14979 0.39317,-0.30083 0.60575,-0.45345 0.21259,-0.15263 0.43523,-0.30671 0.66562,-0.46243 0.2304,-0.15571 0.46856,-0.31306 0.71207,-0.4721 0.24351,-0.15906 0.49241,-0.3198 0.74415,-0.48231 0.25173,-0.16249 0.50633,-0.32675 0.76119,-0.49278 0.25491,-0.166 0.51002,-0.33383 0.76289,-0.50338 0.25285,-0.16956 0.50344,-0.34083 0.74918,-0.51384 0.24571,-0.17302 0.48662,-0.34771 0.72035,-0.52397 0.23368,-0.1763 0.46005,-0.35424 0.67695,-0.5336 0.2169,-0.17938 0.42418,-0.36029 0.61992,-0.54248 0.19575,-0.18216 0.37992,-0.3656 0.55036,-0.55044 0.1706,-0.1847 0.32764,-0.37056 0.46969,-0.55735 0.14205,-0.18678 0.26898,-0.3745 0.37955,-0.56301 0.1106,-0.18848 0.20479,-0.37769 0.2817,-0.5674 0.0769,-0.18972 0.13649,-0.37989 0.17818,-0.57035 0.0417,-0.19044 0.0654,-0.38114 0.071,-0.57184 0.006,-0.1907 -0.007,-0.3814 -0.0376,-0.57184 -0.0305,-0.19045 -0.0793,-0.38064 -0.14545,-0.57034 -0.0661,-0.18971 -0.14996,-0.37889 -0.25042,-0.56735 -0.10041,-0.18848 -0.21766,-0.37619 -0.35035,-0.56298 -0.13267,-0.18681 -0.28096,-0.37262 -0.44324,-0.55729 -0.16256,-0.1844 -0.33843,-0.36839 -0.52736,-0.55026 -0.18858,-0.18222 -0.38952,-0.36304 -0.60062,-0.54242 -0.2111,-0.17939 -0.43254,-0.35724 -0.66197,-0.53351 -0.2294,-0.17628 -0.46686,-0.35093 -0.70994,-0.5239 -0.24312,-0.17294 -0.49182,-0.34424 -0.74367,-0.51376 -0.25184,-0.16953 -0.50684,-0.33729 -0.7624,-0.50329 -0.25555,-0.16602 -0.51169,-0.33023 -0.76582,-0.49271 -0.25413,-0.16247 -0.50622,-0.32319 -0.7538,-0.48221 -0.2476,-0.15899 -0.49058,-0.31634 -0.72663,-0.47203 -0.23605,-0.1557 -0.46507,-0.30978 -0.68484,-0.46236 -0.21974,-0.1526 -0.4302,-0.30366 -0.62926,-0.45339 -0.19904,-0.14976 -0.38666,-0.29813 -0.56104,-0.44532 -0.17436,-0.14721 -0.33541,-0.2932 -0.48153,-0.43828 -0.14625,-0.14495 -0.27702,-0.28942 -0.39256,-0.43224 -0.11503,-0.1433 -0.21369,-0.28591 -0.29524,-0.42794 -0.0815,-0.14203 -0.14583,-0.28355 -0.19225,-0.42481 -0.0465,-0.14123 -0.075,-0.28221 -0.0854,-0.42316 -0.0103,-0.1409 -0.003,-0.28184 0.0232,-0.42299 0.0258,-0.14117 0.0697,-0.2825 0.13122,-0.42433 0.0615,-0.14182 0.14066,-0.28414 0.23662,-0.42714 0.0959,-0.14303 0.20879,-0.2867 0.33722,-0.43136 0.12844,-0.14466 0.27264,-0.29022 0.43099,-0.43695 0.15838,-0.14669 0.33102,-0.29452 0.51606,-0.44373 0.1851,-0.14913 0.38266,-0.29963 0.59071,-0.45158 0.20804,-0.15194 0.42661,-0.30536 0.65343,-0.46037 0.22684,-0.15499 0.46192,-0.31165 0.70297,-0.46989 0.24105,-0.15827 0.48794,-0.31828 0.7383,-0.48 0.25033,-0.16174 0.5041,-0.3252 0.75873,-0.49044 0.25463,-0.16521 0.51007,-0.33227 0.76383,-0.50103 0.25376,-0.16876 0.50577,-0.33931 0.75354,-0.51155 0.24779,-0.17222 0.49128,-0.34616 0.72805,-0.52176 0.23674,-0.1756 0.46682,-0.35276 0.68779,-0.53154 0.22102,-0.1787 0.43298,-0.35892 0.63372,-0.54057 0.2006,-0.1818 0.39034,-0.36457 0.56685,-0.54874 0.17648,-0.18418 0.33986,-0.36953 0.48851,-0.5559 0.14864,-0.18638 0.28251,-0.37373 0.40031,-0.56187 0.11783,-0.18811 0.21944,-0.37707 0.30401,-0.56653 0.0845,-0.18948 0.15195,-0.3795 0.20158,-0.56983 0.0496,-0.19032 0.0814,-0.38095 0.095,-0.57164 0.0137,-0.19069 0.009,-0.38143 -0.0134,-0.57197 -0.0225,-0.19055 -0.0633,-0.38088 -0.12166,-0.57079 -0.0583,-0.18989 -0.13446,-0.37937 -0.22744,-0.56815 -0.093,-0.18874 -0.20295,-0.37687 -0.32869,-0.56406 -0.12576,-0.18718 -0.26737,-0.37346 -0.4233,-0.55866 -0.15594,-0.18521 -0.32637,-0.36924 -0.50966,-0.55181 -0.18299,-0.18283 -0.37886,-0.36422 -0.58535,-0.54423 -0.20649,-0.18001 -0.42367,-0.35859 -0.64945,-0.53555 -0.22571,-0.17701 -0.46002,-0.35239 -0.70048,-0.52609 -0.24044,-0.17374 -0.48712,-0.34576 -0.73746,-0.51605 -0.25035,-0.17029 -0.50437,-0.33885 -0.75956,-0.50565 -0.25516,-0.16679 -0.51149,-0.33178 -0.76638,-0.49505 -0.25488,-0.16326 -0.50834,-0.32475 -0.7578,-0.48452 -0.24945,-0.1598 -0.49493,-0.31783 -0.73396,-0.47426 -0.23904,-0.15641 -0.47158,-0.3112 -0.69536,-0.46445 -0.22377,-0.15326 -0.43871,-0.30498 -0.64275,-0.45532 -0.20397,-0.15037 -0.39704,-0.29929 -0.57722,-0.44703 -0.18018,-0.14772 -0.34736,-0.29428 -0.50011,-0.43973 -0.15267,-0.14551 -0.29079,-0.28995 -0.41296,-0.43358 -0.12197,-0.14384 -0.22824,-0.28655 -0.31742,-0.42882 -0.0891,-0.14226 -0.16117,-0.28401 -0.21555,-0.42538 -0.0544,-0.14133 -0.0909,-0.28242 -0.10938,-0.42338 -0.0185,-0.14097 -0.0188,-0.28185 -8.4e-4,-0.4229 0.0177,-0.14107 0.0537,-0.28227 0.10736,-0.4239 0.0537,-0.14162 0.1251,-0.2837 0.21352,-0.4264 0.0884,-0.14273 0.19393,-0.2861 0.31541,-0.43029 0.12142,-0.14426 0.25886,-0.28939 0.41088,-0.43555 0.15209,-0.14609 0.31869,-0.2934 0.49802,-0.44208 0.17943,-0.14862 0.37185,-0.29843 0.57512,-0.44974 0.20328,-0.15133 0.41757,-0.30404 0.64059,-0.45836 0.22304,-0.15431 0.4549,-0.31016 0.69315,-0.46774 0.23825,-0.15757 0.48304,-0.31673 0.73171,-0.47771 0.24873,-0.16092 0.50139,-0.32364 0.7555,-0.48809 0.25413,-0.16446 0.50965,-0.3307 0.76405,-0.49868 0.25438,-0.16799 0.5076,-0.33775 0.75716,-0.50921 0.24951,-0.17151 0.49537,-0.34466 0.735,-0.51953 0.23962,-0.17487 0.47308,-0.35136 0.69796,-0.52942 0.2249,-0.17807 0.44127,-0.35763 0.6469,-0.53864 0.20563,-0.18101 0.40074,-0.36316 0.58287,-0.54687 0.18215,-0.18371 0.35175,-0.36845 0.50684,-0.5544 0.15515,-0.18588 0.29579,-0.37286 0.42067,-0.56065 0.12492,-0.18775 0.23389,-0.3764 0.32602,-0.56562 0.0921,-0.18918 0.16727,-0.37903 0.22477,-0.56921 0.0575,-0.19019 0.0972,-0.38071 0.11895,-0.57136 0.0217,-0.19065 0.0252,-0.38141 0.0107,-0.57203 -0.0145,-0.19062 -0.0473,-0.38109 -0.0977,-0.57118 -0.0505,-0.19008 -0.11883,-0.37978 -0.20426,-0.56887 -0.0854,-0.18908 -0.18802,-0.3775 -0.30669,-0.56509 -0.11864,-0.18761 -0.2535,-0.37427 -0.40293,-0.56 -0.14951,-0.18566 -0.31377,-0.37025 -0.49117,-0.55355 -0.17769,-0.18301 -0.3678,-0.36541 -0.56942,-0.54606 -0.20162,-0.18066 -0.41447,-0.35986 -0.63629,-0.53756 -0.22183,-0.17768 -0.45273,-0.3538 -0.69034,-0.52824 -0.23757,-0.17448 -0.48192,-0.34725 -0.73049,-0.51832 -0.2486,-0.17104 -0.50141,-0.3404 -0.75596,-0.50797 -0.25452,-0.16759 -0.5108,-0.33338 -0.7662,-0.49742 -0.25536,-0.16407 -0.50992,-0.32631 -0.76104,-0.48685 -0.25111,-0.16054 -0.49878,-0.31936 -0.74055,-0.47651 -0.24177,-0.15713 -0.4776,-0.31264 -0.70517,-0.46656 -0.22756,-0.15395 -0.44681,-0.30633 -0.6556,-0.4573 -0.20878,-0.15096 -0.40705,-0.30049 -0.59283,-0.44877 -0.18579,-0.14832 -0.35911,-0.29528 -0.51813,-0.4413 -0.1591,-0.14596 -0.30393,-0.29085 -0.43306,-0.43489 -0.12908,-0.14413 -0.24258,-0.28724 -0.33925,-0.42978 -0.0966,-0.14254 -0.1764,-0.2845 -0.23863,-0.42602 -0.0622,-0.14152 -0.10673,-0.28271 -0.13323,-0.42373 -0.0265,-0.14104 -0.0349,-0.28187 -0.0252,-0.42287 0.01,-0.14096 0.0376,-0.28209 0.0834,-0.42354 0.0457,-0.14147 0.10942,-0.2833 0.19026,-0.42572 0.0809,-0.14239 0.17891,-0.28549 0.29322,-0.42933 0.11426,-0.14387 0.24488,-0.28852 0.39024,-0.43434 0.14563,-0.14553 0.30591,-0.29243 0.47936,-0.44066 0.17364,-0.14801 0.36062,-0.29726 0.55895,-0.44793 0.19832,-0.15067 0.40811,-0.30272 0.62708,-0.45639 0.21905,-0.1536 0.44739,-0.30876 0.68264,-0.46561 0.23527,-0.15682 0.47755,-0.3153 0.72439,-0.47545 0.24679,-0.1602 0.49818,-0.3221 0.75153,-0.48577 0.25331,-0.1637 0.5087,-0.32911 0.76347,-0.49631 0.25475,-0.16723 0.50897,-0.33619 0.76001,-0.50689 0.25104,-0.17074 0.49893,-0.34319 0.74124,-0.51727 0.24231,-0.17407 0.47887,-0.34991 0.7075,-0.52722 0.22862,-0.17732 0.44915,-0.35624 0.65941,-0.53665 0.21032,-0.18033 0.41033,-0.36213 0.59836,-0.5449 0.18756,-0.18331 0.36322,-0.36742 0.52465,-0.55286 0.16143,-0.18544 0.30877,-0.37196 0.44063,-0.55935 0.13186,-0.1874 0.2481,-0.3757 0.34769,-0.56464 0.0996,-0.1889 0.18241,-0.37852 0.24773,-0.56853 0.0653,-0.19 0.11303,-0.38043 0.14275,-0.57102 0.0298,-0.19059 0.0413,-0.38134 0.0349,-0.57201 -0.006,-0.19066 -0.0312,-0.38125 -0.0737,-0.5715 -0.0425,-0.19023 -0.10307,-0.38016 -0.18086,-0.5695 -0.0777,-0.18938 -0.17293,-0.37809 -0.28438,-0.56606 -0.11146,-0.18796 -0.23935,-0.37507 -0.38221,-0.56122 -0.14286,-0.18614 -0.30087,-0.37122 -0.47236,-0.55507 -0.17144,-0.18388 -0.3564,-0.36655 -0.55299,-0.54781 -0.19657,-0.18126 -0.40475,-0.36119 -0.62251,-0.5395 -0.21769,-0.17838 -0.44499,-0.35519 -0.67949,-0.53038 -0.23452,-0.17516 -0.47626,-0.34873 -0.72282,-0.52056 -0.24658,-0.17181 -0.49793,-0.34195 -0.75159,-0.51031 -0.25363,-0.16837 -0.5096,-0.33494 -0.76526,-0.49975 -0.25565,-0.16483 -0.51101,-0.32788 -0.76351,-0.4892 -0.2525,-0.1613 -0.50214,-0.32088 -0.74642,-0.47877 -0.24426,-0.1579 -0.48315,-0.3141 -0.71428,-0.46874 -0.23111,-0.15466 -0.45446,-0.30768 -0.6678,-0.45929 -0.21334,-0.15158 -0.41659,-0.30175 -0.60786,-0.45058 -0.19124,-0.14887 -0.37041,-0.2964 -0.53571,-0.44286 -0.16532,-0.14645 -0.31673,-0.29178 -0.45279,-0.43621 -0.13602,-0.14446 -0.25658,-0.28804 -0.36072,-0.43082 -0.10408,-0.14283 -0.19151,-0.285 -0.26149,-0.42674 -0.07,-0.14167 -0.12243,-0.28299 -0.15694,-0.42408 -0.0345,-0.14111 -0.051,-0.28199 -0.0493,-0.42294 0.002,-0.14092 0.0216,-0.28195 0.0594,-0.42327 0.0378,-0.14131 0.0936,-0.28293 0.16674,-0.42511 0.0732,-0.14216 0.16376,-0.28489 0.27079,-0.4284 0.107,-0.14353 0.2306,-0.28777 0.36936,-0.43305 0.13876,-0.14527 0.29274,-0.2916 0.46025,-0.43923 0.16792,-0.14719 0.34904,-0.29616 0.54219,-0.44623 0.19315,-0.15008 0.39824,-0.301457 0.61305,-0.454367 0.21481,-0.15293 0.43936,-0.30743 0.67145,-0.46349 0.23209,-0.15605 0.4717,-0.31379 0.71636,-0.47321 0.24466,-0.15944 0.49445,-0.32056 0.74679,-0.48345 0.25232,-0.16291 0.50725,-0.32754 0.76214,-0.49396"
     style="fill:#a60ca6;fill-opacity:0.015625;stroke:#fb0000;stroke-width:1.06429374;stroke-miterlimit:4;stroke-opacity:1;stroke-dasharray:none"
     inkscape:connector-curvature="0" />
  <text
     xml:space="preserve"
     style="font-size:12px;font-style:normal;font-variant:normal;font-weight:normal;font-stretch:normal;text-align:start;line-height:125%;letter-spacing:0px;word-spacing:0px;writing-mode:lr-tb;text-anchor:start;fill:#000000;fill-opacity:1;stroke:none;font-family:Sans;-inkscape-font-specification:Sans"
     x="419.00391"
     y="144.11719"
     id="text4211-8-3"
     sodipodi:linespacing="125%"><tspan
       sodipodi:role="line"
       id="tspan4213-4-2"
       x="419.00391"
       y="144.11719">$e^+$</tspan></text>
  <path
     sodipodi:type="arc"
     style="fill:#a60ca6;fill-opacity:0.015625;stroke:#fb0000;stroke-width:1.06400001;stroke-miterlimit:4;stroke-opacity:1;stroke-dasharray:none;stroke-dashoffset:0"
     id="path10463-2"
     sodipodi:cx="147.5"
     sodipodi:cy="277.76196"
     sodipodi:rx="12.5"
     sodipodi:ry="12.5"
     d="m 160,277.76196 a 12.5,12.5 0 1 1 -25,0 12.5,12.5 0 1 1 25,0 z"
     transform="translate(230.67142,-69.3783)" />
  <text
     xml:space="preserve"
     style="font-size:12px;font-style:normal;font-variant:normal;font-weight:normal;font-stretch:normal;text-align:start;line-height:125%;letter-spacing:0px;word-spacing:0px;writing-mode:lr-tb;text-anchor:start;fill:#fc0000;fill-opacity:1;stroke:#fb0000;stroke-opacity:1;font-family:Sans;-inkscape-font-specification:Sans"
     x="369.00391"
     y="239.11719"
     id="text10465-4"
     sodipodi:linespacing="125%"><tspan
       sodipodi:role="line"
       id="tspan10467-1"
       x="369.00391"
       y="239.11719">$Z\cdot e$</tspan></text>
</svg>
