<?xml version="1.0" encoding="UTF-8" standalone="no"?>
<!-- Created with Inkscape (http://www.inkscape.org/) -->

<svg
   xmlns:dc="http://purl.org/dc/elements/1.1/"
   xmlns:cc="http://creativecommons.org/ns#"
   xmlns:rdf="http://www.w3.org/1999/02/22-rdf-syntax-ns#"
   xmlns:svg="http://www.w3.org/2000/svg"
   xmlns="http://www.w3.org/2000/svg"
   xmlns:sodipodi="http://sodipodi.sourceforge.net/DTD/sodipodi-0.dtd"
   xmlns:inkscape="http://www.inkscape.org/namespaces/inkscape"
   sodipodi:docname="feynman6.svg"
   inkscape:version="0.48.4 r9939"
   version="1.1"
   id="svg2"
   height="144.33119"
   width="263.54102">
  <sodipodi:namedview
     id="base"
     pagecolor="#ffffff"
     bordercolor="#666666"
     borderopacity="1.0"
     inkscape:pageopacity="0.0"
     inkscape:pageshadow="2"
     inkscape:zoom="2.8"
     inkscape:cx="165.6469"
     inkscape:cy="81.945407"
     inkscape:document-units="px"
     inkscape:current-layer="svg2"
     showgrid="false"
     inkscape:window-width="1280"
     inkscape:window-height="751"
     inkscape:window-x="0"
     inkscape:window-y="25"
     inkscape:window-maximized="1"
     fit-margin-top="0"
     fit-margin-left="0"
     fit-margin-right="0"
     fit-margin-bottom="0">
    <inkscape:grid
       type="xygrid"
       id="grid8988"
       empspacing="5"
       visible="true"
       enabled="true"
       snapvisiblegridlinesonly="true"
       originx="-10.996097px"
       originy="9.7140169px" />
  </sodipodi:namedview>
  <defs
     id="defs4">
    <marker
       inkscape:stockid="Arrow1Lend"
       orient="auto"
       refY="0"
       refX="0"
       id="Arrow1Lend"
       style="overflow:visible">
      <path
         id="path4133"
         d="M 0,0 5,-5 -12.5,0 5,5 0,0 z"
         style="fill-rule:evenodd;stroke:#000000;stroke-width:1pt"
         transform="matrix(-0.8,0,0,-0.8,-10,0)"
         inkscape:connector-curvature="0" />
    </marker>
    <marker
       inkscape:stockid="Arrow1Lstart"
       orient="auto"
       refY="0"
       refX="0"
       id="Arrow1Lstart"
       style="overflow:visible">
      <path
         id="path3997"
         d="M 0,0 5,-5 -12.5,0 5,5 0,0 z"
         style="fill-rule:evenodd;stroke:#000000;stroke-width:1pt"
         transform="matrix(0.8,0,0,0.8,10,0)"
         inkscape:connector-curvature="0" />
    </marker>
  </defs>
  <metadata
     id="metadata7">
    <rdf:RDF>
      <cc:Work
         rdf:about="">
        <dc:format>image/svg+xml</dc:format>
        <dc:type
           rdf:resource="http://purl.org/dc/dcmitype/StillImage" />
        <dc:title></dc:title>
      </cc:Work>
    </rdf:RDF>
  </metadata>
  <g
     inkscape:label="Layer 1"
     inkscape:groupmode="layer"
     id="layer1"
     transform="translate(-355.56629,-184.98534)" />
  <path
     style="fill:none;stroke:#000000;stroke-width:1.48441386;stroke-linecap:butt;stroke-linejoin:miter;stroke-miterlimit:4;stroke-opacity:1;stroke-dasharray:none;marker-mid:none"
     d="M 170.44301,0.96920027 143.37924,35.825073 116.93122,69.887941"
     id="path4198-7"
     inkscape:connector-curvature="0"
     inkscape:transform-center-x="5.2349407"
     inkscape:transform-center-y="-59.93819"
     sodipodi:nodetypes="ccc" />
  <path
     style="fill:none;stroke:#000000;stroke-width:1.2329644;stroke-linecap:butt;stroke-linejoin:miter;stroke-miterlimit:4;stroke-opacity:1;stroke-dasharray:none;marker-start:none;marker-mid:none"
     d="M 117.37189,69.645372 82.799226,69.518779 44.802188,69.379643"
     id="path4198-7-8"
     inkscape:connector-curvature="0"
     inkscape:transform-center-x="-37.174302"
     inkscape:transform-center-y="-33.786016"
     sodipodi:nodetypes="ccc" />
  <flowRoot
     xml:space="preserve"
     id="flowRoot4805"
     style="font-size:12px;font-style:normal;font-variant:normal;font-weight:normal;font-stretch:normal;text-align:start;line-height:125%;letter-spacing:0px;word-spacing:0px;writing-mode:lr-tb;text-anchor:start;fill:#000000;fill-opacity:1;stroke:none;font-family:Sans;-inkscape-font-specification:Sans"
     transform="translate(-355.56629,-184.98534)"><flowRegion
       id="flowRegion4807"><rect
         id="rect4809"
         width="165.71428"
         height="82.85714"
         x="-225.71428"
         y="-24.780674" /></flowRegion><flowPara
       id="flowPara4811" /></flowRoot>  <flowRoot
     xml:space="preserve"
     id="flowRoot4813"
     style="font-size:12px;font-style:normal;font-variant:normal;font-weight:normal;font-stretch:normal;text-align:start;line-height:125%;letter-spacing:0px;word-spacing:0px;writing-mode:lr-tb;text-anchor:start;fill:#000000;fill-opacity:1;stroke:none;font-family:Sans;-inkscape-font-specification:Sans"
     transform="translate(259.13239,98.525316)"><flowRegion
       id="flowRegion4815"><rect
         id="rect4817"
         width="85.73893"
         height="18.870901"
         x="-248.57143"
         y="-33.352104" /></flowRegion><flowPara
       id="flowPara4819">$z\cdot e$</flowPara></flowRoot>  <text
     xml:space="preserve"
     style="font-size:12px;font-style:normal;font-variant:normal;font-weight:normal;font-stretch:normal;text-align:start;line-height:125%;letter-spacing:0px;word-spacing:0px;writing-mode:lr-tb;text-anchor:start;fill:#000000;fill-opacity:1;stroke:none;font-family:Sans;-inkscape-font-specification:Sans"
     x="168.98375"
     y="128.71439"
     id="text4236"
     sodipodi:linespacing="125%"><tspan
       sodipodi:role="line"
       x="168.98375"
       y="128.71439"
       id="tspan3120" /></text>
  <path
     id="path4153-3-6-0"
     title="t+cos(0.15*t) 15*sin(0.15*t)"
     d="m 176.48148,124.43907 c -0.24225,0.0627 -0.48342,0.12636 -0.7221,0.18944 -0.23869,0.0631 -0.47487,0.12558 -0.70722,0.18594 -0.23233,0.0603 -0.4608,0.11856 -0.68413,0.17311 -0.22333,0.0545 -0.44151,0.10544 -0.65336,0.15124 -0.21186,0.0458 -0.41735,0.0865 -0.6155,0.12076 -0.19813,0.0343 -0.38885,0.062 -0.5713,0.0822 -0.18244,0.0202 -0.35656,0.0327 -0.52167,0.0365 -0.16511,0.003 -0.32113,-8.2e-4 -0.46759,-0.0155 -0.14646,-0.0144 -0.2833,-0.0385 -0.41019,-0.0727 -0.12686,-0.0343 -0.24378,-0.0788 -0.35057,-0.13411 -0.10681,-0.0553 -0.20343,-0.12131 -0.29002,-0.1983 -0.0864,-0.0773 -0.16305,-0.16503 -0.22962,-0.26415 -0.0667,-0.0991 -0.12337,-0.20916 -0.17069,-0.33019 -0.0474,-0.12094 -0.0853,-0.25283 -0.11444,-0.39514 -0.0291,-0.14229 -0.0496,-0.29508 -0.062,-0.45769 -0.0124,-0.1626 -0.0168,-0.3351 -0.0143,-0.51659 0.002,-0.18151 0.0122,-0.37207 0.0276,-0.57065 0.0154,-0.1986 0.0369,-0.40525 0.0629,-0.61877 0.0261,-0.21354 0.0567,-0.43397 0.0908,-0.65998 0.034,-0.22603 0.0714,-0.45766 0.1108,-0.69347 0.0394,-0.23582 0.0806,-0.47584 0.12248,-0.71855 0.0418,-0.2427 0.0842,-0.48812 0.12563,-0.73468 0.0415,-0.24658 0.082,-0.4943 0.12017,-0.74161 0.0382,-0.24732 0.0741,-0.49422 0.10621,-0.73915 0.0321,-0.24492 0.0606,-0.48786 0.084,-0.72734 0.0234,-0.23947 0.0418,-0.47543 0.0541,-0.70645 0.0122,-0.23104 0.0182,-0.4571 0.0169,-0.6769 -8.2e-4,-0.21979 -0.01,-0.43329 -0.0266,-0.63926 -0.0168,-0.20599 -0.0418,-0.40443 -0.0757,-0.59432 -0.0339,-0.18987 -0.0768,-0.37114 -0.12927,-0.54294 -0.0524,-0.17181 -0.11445,-0.33409 -0.18638,-0.4862 -0.0719,-0.15212 -0.1538,-0.29401 -0.2458,-0.42524 -0.092,-0.13122 -0.19412,-0.2517 -0.30635,-0.36123 -0.112,-0.10978 -0.23458,-0.20806 -0.3668,-0.29555 -0.13216,-0.0876 -0.27436,-0.16391 -0.42592,-0.22949 -0.15153,-0.0656 -0.31264,-0.12019 -0.48254,-0.16433 -0.16989,-0.0442 -0.34868,-0.0778 -0.53552,-0.10146 -0.18683,-0.0238 -0.38177,-0.0375 -0.58378,-0.0421 -0.20202,-0.004 -0.4112,-3.5e-4 -0.62636,0.0127 -0.21517,0.0127 -0.43638,0.0335 -0.66239,0.0613 -0.226,0.0279 -0.45683,0.0628 -0.69114,0.10343 -0.23431,0.0406 -0.47212,0.087 -0.71204,0.13778 -0.23992,0.0508 -0.48196,0.10587 -0.72468,0.16384 -0.24271,0.058 -0.48611,0.11882 -0.72876,0.18099 -0.24266,0.0621 -0.48455,0.12568 -0.72428,0.18895 -0.23972,0.0633 -0.47724,0.1263 -0.71123,0.18753 -0.23398,0.0612 -0.4644,0.12064 -0.68995,0.17675 -0.22556,0.0561 -0.44623,0.10887 -0.66084,0.15687 -0.21461,0.0479 -0.42312,0.0912 -0.62448,0.12824 -0.20137,0.0371 -0.39555,0.0679 -0.58163,0.0915 -0.18609,0.0235 -0.36403,0.0397 -0.53311,0.0473 -0.16908,0.007 -0.32925,0.007 -0.47995,-0.003 -0.1507,-0.0102 -0.29186,-0.0299 -0.42317,-0.0596 -0.13126,-0.0298 -0.25266,-0.0696 -0.36394,-0.12018 -0.11131,-0.0505 -0.21244,-0.11171 -0.30348,-0.18388 -0.091,-0.0722 -0.17213,-0.15506 -0.24293,-0.24947 -0.071,-0.0942 -0.13207,-0.1994 -0.18361,-0.31556 -0.0515,-0.11613 -0.0936,-0.24323 -0.12665,-0.38086 -0.0331,-0.13761 -0.0572,-0.28587 -0.0732,-0.44406 -0.016,-0.15821 -0.0238,-0.32645 -0.0244,-0.5039 -5.6e-4,-0.17744 0.006,-0.36414 0.0189,-0.55912 0.0128,-0.19496 0.0317,-0.39822 0.0556,-0.60863 0.0239,-0.21041 0.0528,-0.428 0.0853,-0.65147 0.0325,-0.22347 0.0686,-0.45285 0.10707,-0.68673 0.0385,-0.23389 0.0791,-0.47228 0.12063,-0.71372 0.0415,-0.24144 0.0839,-0.48591 0.12568,-0.7319 0.0418,-0.24597 0.0829,-0.49345 0.12211,-0.74087 0.0392,-0.24742 0.0763,-0.49477 0.11002,-0.7405 0.0338,-0.24573 0.0641,-0.48983 0.0897,-0.73077 0.0256,-0.24093 0.0464,-0.4787 0.0613,-0.71187 0.015,-0.23314 0.0239,-0.46166 0.0258,-0.68418 0.002,-0.22252 -0.003,-0.43901 -0.0164,-0.64829 -0.0131,-0.20926 -0.0343,-0.41124 -0.0643,-0.60488 -0.03,-0.19365 -0.0688,-0.3789 -0.11703,-0.55487 -0.0482,-0.17598 -0.10592,-0.34261 -0.17344,-0.49922 -0.0676,-0.15657 -0.14496,-0.30314 -0.23245,-0.43909 -0.0875,-0.13594 -0.18511,-0.26127 -0.29287,-0.37564 -0.10771,-0.11443 -0.2257,-0.21775 -0.35341,-0.31027 -0.12778,-0.0924 -0.2656,-0.17371 -0.41295,-0.24412 -0.14731,-0.0704 -0.30431,-0.12983 -0.47024,-0.17867 -0.16592,-0.0488 -0.34091,-0.087 -0.52412,-0.11516 -0.18321,-0.0281 -0.3747,-0.0461 -0.57351,-0.0549 -0.19882,-0.009 -0.40499,-0.008 -0.61744,8.2e-4 -0.21244,0.009 -0.43117,0.0265 -0.65498,0.0511 -0.22381,0.0247 -0.45271,0.0566 -0.68542,0.0947 -0.23269,0.038 -0.46919,0.0821 -0.70809,0.13085 -0.23891,0.0487 -0.48026,0.10218 -0.7226,0.1588 -0.24235,0.0566 -0.48569,0.11646 -0.72862,0.17797 -0.2429,0.0615 -0.48537,0.12469 -0.726,0.18799 -0.24061,0.0633 -0.47937,0.1267 -0.71485,0.18865 -0.23551,0.062 -0.46772,0.12245 -0.69538,0.17995 -0.22766,0.0575 -0.45072,0.11202 -0.66797,0.16207 -0.21725,0.05 -0.42865,0.0956 -0.63316,0.13532 -0.20447,0.0397 -0.40201,0.0736 -0.59166,0.1003 -0.18964,0.0268 -0.37134,0.0463 -0.54433,0.0577 -0.17299,0.0113 -0.33724,0.0145 -0.49211,0.008 -0.15489,-0.007 -0.30035,-0.0215 -0.43604,-0.0467 -0.13565,-0.0253 -0.26149,-0.0606 -0.37727,-0.1064 -0.11576,-0.0458 -0.22141,-0.10222 -0.31696,-0.16951 -0.0956,-0.0672 -0.18093,-0.1455 -0.25625,-0.23488 -0.0755,-0.0892 -0.14084,-0.1896 -0.19663,-0.30088 -0.0557,-0.11131 -0.10196,-0.23358 -0.13906,-0.36648 -0.0372,-0.13292 -0.0651,-0.27655 -0.0847,-0.43028 -0.0196,-0.15374 -0.0309,-0.31765 -0.0348,-0.49095 -0.004,-0.17331 -8e-5,-0.35607 0.01,-0.54729 0.01,-0.19125 0.0265,-0.39102 0.0481,-0.59819 0.0216,-0.20718 0.0485,-0.42179 0.0793,-0.64258 0.0308,-0.22079 0.0656,-0.44778 0.10292,-0.67959 0.0373,-0.23181 0.0773,-0.46845 0.11834,-0.70846 0.0411,-0.24002 0.0833,-0.48341 0.1253,-0.72864 0.042,-0.24524 0.0837,-0.49233 0.12366,-0.73969 0.04,-0.24737 0.0782,-0.49501 0.11345,-0.74139 0.0352,-0.24638 0.0672,-0.49146 0.0949,-0.73374 0.0276,-0.24226 0.0508,-0.4817 0.0683,-0.71683 0.0175,-0.23514 0.0293,-0.46596 0.0343,-0.69108 0.005,-0.22513 0.003,-0.44453 -0.007,-0.65694 -0.01,-0.21243 -0.027,-0.41784 -0.0532,-0.61514 -0.0261,-0.1973 -0.0609,-0.38644 -0.10496,-0.5665 -0.0441,-0.18006 -0.0975,-0.35098 -0.16064,-0.51202 -0.0631,-0.16101 -0.13615,-0.31215 -0.21917,-0.45278 -0.083,-0.14064 -0.17617,-0.2707 -0.27937,-0.38997 -0.10323,-0.11924 -0.21667,-0.22754 -0.34003,-0.32487 -0.12336,-0.0973 -0.25683,-0.18351 -0.39985,-0.25883 -0.14308,-0.0753 -0.29585,-0.13952 -0.45777,-0.1931 -0.16189,-0.0536 -0.33298,-0.0964 -0.5125,-0.12903 -0.1795,-0.0326 -0.36747,-0.055 -0.56298,-0.068 -0.19551,-0.0129 -0.39859,-0.0163 -0.6082,-0.011 -0.20959,0.006 -0.42573,0.0191 -0.64722,0.0404 -0.2215,0.0214 -0.44835,0.0504 -0.67931,0.0856 -0.23094,0.0353 -0.46598,0.0769 -0.70375,0.12352 -0.23776,0.0466 -0.47826,0.0982 -0.7201,0.15332 -0.24181,0.0551 -0.48497,0.1138 -0.72801,0.17449 -0.24303,0.0607 -0.48596,0.12339 -0.72733,0.18656 -0.24137,0.0631 -0.48119,0.12679 -0.71807,0.18932 -0.23688,0.0626 -0.47079,0.12392 -0.70041,0.18268 -0.22961,0.0588 -0.45493,0.11485 -0.6747,0.16683 -0.21978,0.052 -0.43398,0.0997 -0.64151,0.14199 -0.20752,0.0422 -0.40832,0.0789 -0.60141,0.10877 -0.19312,0.0298 -0.37848,0.0529 -0.55531,0.0677 -0.17684,0.015 -0.34509,0.0219 -0.50408,0.0199 -0.15902,-0.002 -0.30876,-0.0131 -0.44878,-0.034 -0.13998,-0.0209 -0.27026,-0.0517 -0.39049,-0.0928 -0.12023,-0.0412 -0.2304,-0.0928 -0.33045,-0.15527 -0.10006,-0.0625 -0.18991,-0.13578 -0.26979,-0.22012 -0.0797,-0.0845 -0.14969,-0.17976 -0.20976,-0.2862 -0.0602,-0.10638 -0.11044,-0.22386 -0.15159,-0.35203 -0.0411,-0.12819 -0.0731,-0.26712 -0.0965,-0.41633 -0.0234,-0.14919 -0.0382,-0.3087 -0.0455,-0.47779 -0.007,-0.16908 -0.007,-0.34779 2.9e-4,-0.5352 0.007,-0.18741 0.021,-0.38358 0.0402,-0.5874 0.0192,-0.20382 0.0441,-0.41534 0.073,-0.63332 0.029,-0.21798 0.0623,-0.44245 0.0983,-0.67205 0.0361,-0.22958 0.0751,-0.46434 0.11563,-0.70278 0.0404,-0.23843 0.0825,-0.4806 0.1245,-0.72493 0.042,-0.24434 0.0841,-0.49087 0.12477,-0.73803 0.0407,-0.24717 0.08,-0.49497 0.11645,-0.74183 0.0365,-0.24687 0.0701,-0.49279 0.0997,-0.73625 0.0296,-0.24344 0.0549,-0.4844 0.0749,-0.72137 0.02,-0.236979 0.0345,-0.469951 0.0424,-0.697548 0.008,-0.227581 0.009,-0.449745 0.003,-0.665209 -0.007,-0.215473 -0.0201,-0.424198 -0.0423,-0.625056 -0.0223,-0.200858 -0.0531,-0.393792 -0.0931,-0.577849 -0.0399,-0.184057 -0.0891,-0.359179 -0.14799,-0.524577 -0.0589,-0.16539 -0.12742,-0.321023 -0.20598,-0.466291 -0.0786,-0.145251 -0.16719,-0.280113 -0.26592,-0.404174 -0.0987,-0.12411 -0.20766,-0.237239 -0.32655,-0.339493 -0.11866,-0.1025 -0.24796,-0.193337 -0.38669,-0.273529 -0.13871,-0.08014 -0.2873,-0.149262 -0.44512,-0.207598 -0.1578,-0.05844 -0.32494,-0.105854 -0.50067,-0.143073 -0.17572,-0.03724 -0.36007,-0.06403 -0.55218,-0.08121 -0.19211,-0.01718 -0.392,-0.02466 -0.59865,-0.02326 -0.20664,0.0016 -0.42008,0.01151 -0.63914,0.02951 -0.21904,0.018 -0.44375,0.04373 -0.67281,0.0762 -0.22906,0.03239 -0.46252,0.07143 -0.699,0.115767 -0.23648,0.04439 -0.47602,0.09395 -0.71719,0.147438 -0.24116,0.05351 -0.48397,0.110835 -0.727,0.170544 -0.24301,0.05967 -0.48623,0.1218 -0.72821,0.184698 -0.242,0.06288 -0.48275,0.126576 -0.72086,0.189506 -0.23811,0.06296 -0.47359,0.125105 -0.70505,0.18497 -0.23146,0.05984 -0.45891,0.117394 -0.68109,0.171119 -0.22218,0.05367 -0.43905,0.103618 -0.64951,0.148268 -0.21042,0.04463 -0.41438,0.08401 -0.61086,0.116852 -0.19649,0.0328 -0.38545,0.05902 -0.56604,0.07751 -0.1806,0.0185 -0.35278,0.02918 -0.51586,0.03107 -0.16309,0.0016 -0.31704,-0.0049 -0.46136,-0.02162 -0.14433,-0.01652 -0.27898,-0.04282 -0.40366,-0.0794 -0.12465,-0.0365 -0.23931,-0.08346 -0.34386,-0.141125 -0.10454,-0.0577 -0.19894,-0.126108 -0.28324,-0.205593 -0.0841,-0.07965 -0.15852,-0.170001 -0.22295,-0.271523 -0.0645,-0.101523 -0.11903,-0.2141 -0.16432,-0.337471 -0.0452,-0.123403 -0.0811,-0.257624 -0.10838,-0.402242 -0.0273,-0.144602 -0.0457,-0.299652 -0.0563,-0.464441 -0.0106,-0.164782 -0.0134,-0.33937 -0.009,-0.52286 0.004,-0.183489 0.0151,-0.375955 0.0319,-0.576312 0.0168,-0.200357 0.0393,-0.408662 0.0664,-0.623699 0.027,-0.215045 0.0586,-0.436864 0.0934,-0.664099 0.0348,-0.227244 0.0727,-0.459962 0.11252,-0.696683 0.0397,-0.236721 0.0813,-0.477486 0.12326,-0.720774 0.0419,-0.243297 0.0842,-0.489117 0.12545,-0.735916"
     style="fill:#a60ca6;fill-opacity:0.015625;stroke:#fb0000;stroke-width:1.2329644;stroke-miterlimit:4;stroke-opacity:1;stroke-dasharray:none"
     inkscape:connector-curvature="0" />
  <path
     sodipodi:type="arc"
     style="fill:#a60ca6;fill-opacity:0.015625;stroke:#fb0000;stroke-width:1.43228412;stroke-miterlimit:4;stroke-opacity:1;stroke-dasharray:none;stroke-dashoffset:0"
     id="path10463"
     sodipodi:cx="147.5"
     sodipodi:cy="277.76196"
     sodipodi:rx="12.5"
     sodipodi:ry="12.5"
     d="m 160,277.76196 a 12.5,12.5 0 1 1 -25,0 12.5,12.5 0 1 1 25,0 z"
     transform="matrix(0.82032234,0,0,0.90335449,62.960228,-118.51673)" />
  <text
     xml:space="preserve"
     style="font-size:12px;font-style:normal;font-variant:normal;font-weight:normal;font-stretch:normal;text-align:start;line-height:125%;letter-spacing:0px;word-spacing:0px;writing-mode:lr-tb;text-anchor:start;fill:#fc0000;fill-opacity:1;stroke:#ee0000;stroke-opacity:1;font-family:Sans;-inkscape-font-specification:Sans"
     x="199.00391"
     y="137.14256"
     id="text10465"
     sodipodi:linespacing="125%"><tspan
       sodipodi:role="line"
       id="tspan10467"
       x="199.00391"
       y="137.14256">$Z\cdot e$</tspan></text>
  <flowRoot
     xml:space="preserve"
     id="flowRoot4805-8"
     style="font-size:12px;font-style:normal;font-variant:normal;font-weight:normal;font-stretch:normal;text-align:start;line-height:125%;letter-spacing:0px;word-spacing:0px;writing-mode:lr-tb;text-anchor:start;fill:#000000;fill-opacity:1;stroke:none;font-family:Sans;-inkscape-font-specification:Sans"
     transform="translate(-165.56629,-209.98534)"><flowRegion
       id="flowRegion4807-2"><rect
         id="rect4809-1"
         width="165.71428"
         height="82.85714"
         x="-225.71428"
         y="-24.780674" /></flowRegion><flowPara
       id="flowPara4811-1" /></flowRoot>  <text
     xml:space="preserve"
     style="font-size:12px;font-style:normal;font-variant:normal;font-weight:normal;font-stretch:normal;text-align:start;line-height:125%;letter-spacing:0px;word-spacing:0px;writing-mode:lr-tb;text-anchor:start;fill:#000000;fill-opacity:1;stroke:none;font-family:Sans;-inkscape-font-specification:Sans"
     x="358.98373"
     y="103.71439"
     id="text4236-1"
     sodipodi:linespacing="125%"><tspan
       sodipodi:role="line"
       x="358.98373"
       y="103.71439"
       id="tspan3120-4" /></text>
  <path
     style="fill:none;stroke:#000000;stroke-width:1.10966802;stroke-linecap:butt;stroke-linejoin:miter;stroke-miterlimit:4;stroke-opacity:1;stroke-dasharray:8.87734393, 8.87734393;stroke-dashoffset:0"
     d="m 120.36689,69.623236 74.33336,0"
     id="path10566"
     inkscape:connector-curvature="0" />
  <path
     sodipodi:type="arc"
     style="fill:#ffffff;fill-opacity:1;stroke:#000000;stroke-width:0.86565948;stroke-miterlimit:4;stroke-opacity:1;stroke-dasharray:none;stroke-dashoffset:0"
     id="path10570"
     sodipodi:cx="201.50391"
     sodipodi:cy="76.617188"
     sodipodi:rx="12.5"
     sodipodi:ry="12.5"
     d="m 206.92708,65.354896 a 12.5,12.5 0 0 1 0.11609,22.467942"
     transform="matrix(1.3524923,-0.87895791,0.91614707,1.409717,-198.12335,127.61984)"
     sodipodi:start="5.1611547"
     sodipodi:end="7.3948824"
     sodipodi:open="true" />
  <flowRoot
     xml:space="preserve"
     id="flowRoot4813-2"
     style="font-size:12px;font-style:normal;font-variant:normal;font-weight:normal;font-stretch:normal;text-align:start;line-height:125%;letter-spacing:0px;word-spacing:0px;writing-mode:lr-tb;text-anchor:start;fill:#000000;fill-opacity:1;stroke:none;font-family:Sans;-inkscape-font-specification:Sans"
     transform="translate(388.12225,84.030398)"><flowRegion
       id="flowRegion4815-9"><rect
         id="rect4817-2"
         width="85.73893"
         height="18.870901"
         x="-248.57143"
         y="-33.352104" /></flowRegion><flowPara
       id="flowPara4819-7">$\Theta$</flowPara></flowRoot></svg>
