<?xml version="1.0" encoding="UTF-8" standalone="no"?>
<!-- Created with Inkscape (http://www.inkscape.org/) -->

<svg
   xmlns:dc="http://purl.org/dc/elements/1.1/"
   xmlns:cc="http://creativecommons.org/ns#"
   xmlns:rdf="http://www.w3.org/1999/02/22-rdf-syntax-ns#"
   xmlns:svg="http://www.w3.org/2000/svg"
   xmlns="http://www.w3.org/2000/svg"
   xmlns:xlink="http://www.w3.org/1999/xlink"
   xmlns:sodipodi="http://sodipodi.sourceforge.net/DTD/sodipodi-0.dtd"
   xmlns:inkscape="http://www.inkscape.org/namespaces/inkscape"
   sodipodi:docname="hadronen.svg"
   width="359.93024"
   height="181.94043"
   id="svg5860"
   version="1.1"
   inkscape:version="0.48.4 r9939">
  <sodipodi:namedview
     id="base"
     pagecolor="#ffffff"
     bordercolor="#666666"
     borderopacity="1.0"
     inkscape:pageopacity="0.0"
     inkscape:pageshadow="2"
     inkscape:zoom="2.8"
     inkscape:cx="177.05649"
     inkscape:cy="65.001372"
     inkscape:document-units="px"
     inkscape:current-layer="layer1"
     showgrid="false"
     inkscape:window-width="1280"
     inkscape:window-height="751"
     inkscape:window-x="0"
     inkscape:window-y="25"
     inkscape:window-maximized="1"
     fit-margin-top="0"
     fit-margin-left="0"
     fit-margin-right="0"
     fit-margin-bottom="0">
    <inkscape:grid
       id="grid5874"
       type="xygrid"
       empspacing="5"
       visible="true"
       enabled="true"
       snapvisiblegridlinesonly="true"
       originx="-218.77449px"
       originy="-209.70215px" />
  </sodipodi:namedview>
  <defs
     id="defs5862">
    <marker
       inkscape:stockid="Arrow1Lend"
       orient="auto"
       refY="0"
       refX="0"
       id="Arrow1Lend"
       style="overflow:visible">
      <path
         id="path3934"
         d="M 0,0 5,-5 -12.5,0 5,5 0,0 z"
         style="fill-rule:evenodd;stroke:#000000;stroke-width:1pt"
         transform="matrix(-0.8,0,0,-0.8,-10,0)"
         inkscape:connector-curvature="0" />
    </marker>
    <marker
       inkscape:stockid="Arrow1Mstart"
       orient="auto"
       refY="0"
       refX="0"
       id="Arrow1Mstart"
       style="overflow:visible">
      <path
         id="path3937"
         d="M 0,0 5,-5 -12.5,0 5,5 0,0 z"
         style="fill-rule:evenodd;stroke:#000000;stroke-width:1pt"
         transform="matrix(0.4,0,0,0.4,4,0)"
         inkscape:connector-curvature="0" />
    </marker>
    <marker
       inkscape:stockid="Arrow1Send"
       orient="auto"
       refY="0"
       refX="0"
       id="Arrow1Send"
       style="overflow:visible">
      <path
         id="path3946"
         d="M 0,0 5,-5 -12.5,0 5,5 0,0 z"
         style="fill-rule:evenodd;stroke:#000000;stroke-width:1pt"
         transform="matrix(-0.2,0,0,-0.2,-1.2,0)"
         inkscape:connector-curvature="0" />
    </marker>
    <marker
       inkscape:stockid="Arrow1Mend"
       orient="auto"
       refY="0"
       refX="0"
       id="Arrow1Mend"
       style="overflow:visible">
      <path
         id="path3940"
         d="M 0,0 5,-5 -12.5,0 5,5 0,0 z"
         style="fill-rule:evenodd;stroke:#000000;stroke-width:1pt"
         transform="matrix(-0.4,0,0,-0.4,-4,0)"
         inkscape:connector-curvature="0" />
    </marker>
    <marker
       inkscape:stockid="Arrow1Sstart"
       orient="auto"
       refY="0"
       refX="0"
       id="Arrow1Sstart"
       style="overflow:visible">
      <path
         id="path3943"
         d="M 0,0 5,-5 -12.5,0 5,5 0,0 z"
         style="fill-rule:evenodd;stroke:#000000;stroke-width:1pt"
         transform="matrix(0.2,0,0,0.2,1.2,0)"
         inkscape:connector-curvature="0" />
    </marker>
    <marker
       inkscape:stockid="Arrow1Mstart"
       orient="auto"
       refY="0"
       refX="0"
       id="Arrow1Mstart-0"
       style="overflow:visible">
      <path
         inkscape:connector-curvature="0"
         id="path3937-7"
         d="M 0,0 5,-5 -12.5,0 5,5 0,0 z"
         style="fill-rule:evenodd;stroke:#000000;stroke-width:1pt"
         transform="matrix(0.4,0,0,0.4,4,0)" />
    </marker>
    <marker
       inkscape:stockid="Arrow1Mend"
       orient="auto"
       refY="0"
       refX="0"
       id="Arrow1Mend-0"
       style="overflow:visible">
      <path
         inkscape:connector-curvature="0"
         id="path3940-0"
         d="M 0,0 5,-5 -12.5,0 5,5 0,0 z"
         style="fill-rule:evenodd;stroke:#000000;stroke-width:1pt"
         transform="matrix(-0.4,0,0,-0.4,-4,0)" />
    </marker>
  </defs>
  <metadata
     id="metadata5865">
    <rdf:RDF>
      <cc:Work
         rdf:about="">
        <dc:format>image/svg+xml</dc:format>
        <dc:type
           rdf:resource="http://purl.org/dc/dcmitype/StillImage" />
        <dc:title />
      </cc:Work>
    </rdf:RDF>
  </metadata>
  <g
     id="layer1"
     inkscape:groupmode="layer"
     inkscape:label="Layer 1"
     transform="translate(-218.77449,-660.7196)">
    <g
       id="g10230"
       transform="matrix(1.1118621,0,0,1.1118621,-53.674882,-93.690126)">
      <path
         sodipodi:type="arc"
         style="fill:none;stroke:#000000;stroke-width:1.34692585;stroke-miterlimit:4;stroke-opacity:1;stroke-dasharray:none;stroke-dashoffset:0"
         id="path5868"
         sodipodi:cx="284.86301"
         sodipodi:cy="742.49786"
         sodipodi:rx="40.911179"
         sodipodi:ry="41.163715"
         d="m 325.77419,742.49786 c 0,22.7341 -18.31656,41.16372 -40.91118,41.16372 -22.59462,0 -40.91118,-18.42962 -40.91118,-41.16372 0,-22.73409 18.31656,-41.16371 40.91118,-41.16371 22.59462,0 40.91118,18.42962 40.91118,41.16371 z"
         transform="matrix(0.75057374,0,0,0.73437736,62.438297,188.59462)" />
      <path
         id="path6939-6"
         title="t+cos(3*t) 3*sin(3*t)"
         d="m 259.26599,740.04523 c 0.12216,-0.0883 0.22521,-0.19421 0.30546,-0.31497 0.0806,-0.12055 0.13764,-0.25619 0.17061,-0.40188 0.033,-0.14567 0.0415,-0.30154 0.0262,-0.46228 -0.0154,-0.16074 -0.0548,-0.32632 -0.11569,-0.49098 -0.0605,-0.16481 -0.14317,-0.32842 -0.2426,-0.48555 -0.0995,-0.15716 -0.216,-0.30764 -0.34385,-0.44643 -0.12788,-0.13875 -0.26701,-0.26579 -0.41071,-0.37697 -0.14365,-0.11122 -0.29184,-0.20647 -0.43735,-0.28326 -0.14558,-0.0766 -0.28847,-0.13464 -0.42179,-0.17291 -0.13339,-0.0382 -0.25704,-0.0566 -0.3651,-0.0558 -0.10803,7.3e-4 -0.20032,0.0211 -0.27218,0.0582 -0.0719,0.0372 -0.12314,0.0916 -0.15105,0.15934 -0.0278,0.0678 -0.0321,0.14904 -0.012,0.23898 0.0202,0.0899 0.0645,0.18863 0.13301,0.29024 0.0681,0.10173 0.15972,0.20658 0.27156,0.3088 0.11192,0.10216 0.24413,0.2017 0.39179,0.29308 0.14753,0.0916 0.31093,0.17433 0.4835,0.24428 0.17256,0.0699 0.35446,0.12675 0.53871,0.16678 0.18429,0.04 0.3709,0.0631 0.55276,0.0671 0.18186,0.004 0.35891,-0.0113 0.52443,-0.0466 0.16555,-0.0349 0.3195,-0.0898 0.45621,-0.16339 0.13667,-0.0736 0.25603,-0.16604 0.35382,-0.27461 0.0978,-0.10855 0.17392,-0.23329 0.22628,-0.37 0.0522,-0.13684 0.0803,-0.28579 0.084,-0.44181 0.004,-0.15604 -0.017,-0.3191 -0.0604,-0.48357 -0.0434,-0.1645 -0.1097,-0.33027 -0.19461,-0.49185 -0.0851,-0.16151 -0.18937,-0.31856 -0.30727,-0.46587 -0.11797,-0.14731 -0.24966,-0.28477 -0.38866,-0.40792 -0.13902,-0.12312 -0.28531,-0.23185 -0.43183,-0.32291 -0.14643,-0.0912 -0.29326,-0.16431 -0.43309,-0.21815 -0.13984,-0.0538 -0.27276,-0.088 -0.39234,-0.10259 -0.11956,-0.0145 -0.22566,-0.009 -0.31303,0.0139 -0.0875,0.0233 -0.15593,0.0647 -0.20201,0.12124 -0.0461,0.0565 -0.0696,0.12807 -0.0687,0.21038 4.2e-4,0.0823 0.0261,0.17521 0.0753,0.27358 0.0494,0.0984 0.12277,0.20211 0.21799,0.30551 0.0952,0.10344 0.21227,0.20642 0.34685,0.30341 0.13459,0.097 0.28685,0.18784 0.45103,0.26742 0.16416,0.0796 0.34019,0.1479 0.52147,0.20069 0.18125,0.0529 0.36774,0.09 0.55227,0.10889 0.18454,0.0189 0.36707,0.0192 0.54072,-10e-5 0.1737,-0.0187 0.3383,-0.0584 0.48782,-0.11701 0.14952,-0.0585 0.28385,-0.13646 0.39813,-0.23176 0.11429,-0.0953 0.20844,-0.20797 0.27931,-0.33453 0.0707,-0.12668 0.11841,-0.26699 0.14149,-0.41658 0.0231,-0.14959 0.0215,-0.30835 -0.004,-0.47084 -0.0251,-0.16245 -0.0738,-0.32862 -0.14316,-0.4927 -0.0693,-0.16406 -0.15958,-0.32596 -0.26572,-0.48021 -0.10612,-0.15423 -0.22836,-0.3007 -0.36053,-0.43454 -0.1322,-0.13381 -0.27432,-0.25495 -0.41956,-0.35952 -0.14521,-0.10464 -0.29333,-0.19288 -0.43768,-0.2617 -0.1442,-0.069 -0.28424,-0.11905 -0.41343,-0.14924 -0.12921,-0.0303 -0.24738,-0.0405 -0.34885,-0.0319 -0.10145,0.009 -0.18599,0.0363 -0.24947,0.0801 -0.0634,0.044 -0.10547,0.10453 -0.12369,0.17762 -0.0182,0.073 -0.0126,0.15871 0.0178,0.2519 0.0305,0.093 0.0847,0.19403 0.16222,0.29678 0.0774,0.10284 0.17803,0.20748 0.29797,0.30838 0.11995,0.10093 0.25942,0.19788 0.41318,0.28564 0.15381,0.0877 0.32186,0.16618 0.49795,0.23061 0.17605,0.0645 0.36007,0.1149 0.54502,0.14794 0.18494,0.0331 0.37077,0.0486 0.55039,0.0447 0.17962,-0.004 0.35304,-0.0269 0.51361,-0.0702 0.1606,-0.043 0.30845,-0.10551 0.4378,-0.18699 0.12944,-0.0812 0.24057,-0.1807 0.32946,-0.29567 0.0889,-0.11496 0.15509,-0.24561 0.19789,-0.38691 0.0424,-0.14156 0.0604,-0.29428 0.0542,-0.45293 -0.006,-0.15865 -0.0363,-0.32329 -0.089,-0.48805 -0.0526,-0.16479 -0.12712,-0.3298 -0.21978,-0.48927 -0.0927,-0.15946 -0.20344,-0.31339 -0.3267,-0.45652 -0.12327,-0.14313 -0.25909,-0.27537 -0.40076,-0.39252 -0.1417,-0.11714 -0.28927,-0.21904 -0.43554,-0.30289 -0.14621,-0.0839 -0.29131,-0.14927 -0.42811,-0.19512 -0.13677,-0.0459 -0.2652,-0.0719 -0.37908,-0.0785 -0.11388,-0.007 -0.21309,0.006 -0.29266,0.0368 -0.0797,0.0301 -0.13941,0.0787 -0.17622,0.14124 -0.0364,0.0626 -0.0506,0.1392 -0.0397,0.22558 0.0108,0.0864 0.0461,0.18244 0.1051,0.28274 0.0591,0.10027 0.1419,0.20486 0.24581,0.30788 0.10391,0.10303 0.2289,0.20451 0.37048,0.29874 0.14181,0.0939 0.29973,0.18122 0.46838,0.25615 0.16869,0.0749 0.34806,0.13735 0.53114,0.18374 0.18309,0.0464 0.36991,0.0765 0.55336,0.0877 0.18346,0.0113 0.36345,0.004 0.53318,-0.0237 0.16974,-0.0274 0.32913,-0.0747 0.4723,-0.14091 0.14315,-0.0663 0.26995,-0.15179 0.37591,-0.25405 0.10599,-0.10216 0.19097,-0.22124 0.25226,-0.35328 0.0614,-0.13198 0.0989,-0.27699 0.11206,-0.43011 0.0132,-0.1531 0.002,-0.31432 -0.0329,-0.47805 -0.0346,-0.16372 -0.0924,-0.32996 -0.17028,-0.49283 -0.0776,-0.16296 -0.17522,-0.32261 -0.28765,-0.47348 -0.11235,-0.15093 -0.23977,-0.29292 -0.3757,-0.42143 -0.13594,-0.12852 -0.28053,-0.24336 -0.4267,-0.34116 -0.14624,-0.0976 -0.2938,-0.17848 -0.43616,-0.23957 -0.14227,-0.0612 -0.27891,-0.10317 -0.40338,-0.12534 -0.12449,-0.0221 -0.2367,-0.0245 -0.33113,-0.008 -0.0945,0.0156 -0.17093,0.051 -0.22556,0.10163 -0.0546,0.0506 -0.0872,0.11692 -0.0957,0.19491 -0.009,0.078 0.008,0.1675 0.0471,0.26366 0.0404,0.096 0.10432,0.19864 0.19112,0.30193 0.0867,0.10334 0.19588,0.2074 0.32353,0.3065 0.12765,0.0991 0.27392,0.19315 0.43331,0.27679 0.15933,0.0838 0.3318,0.15712 0.51081,0.21578 0.17902,0.0586 0.36457,0.10241 0.54958,0.12827 0.18502,0.0257 0.36943,0.0337 0.54626,0.0219 0.17681,-0.012 0.34597,-0.0432 0.50111,-0.0942 0.15521,-0.0509 0.29621,-0.12167 0.41805,-0.21017 0.12181,-0.0885 0.22435,-0.19497 0.30412,-0.31603 0.0798,-0.121 0.13663,-0.25679 0.16907,-0.40269 0.0325,-0.14591 0.0405,-0.30192 0.0246,-0.46277 -0.0165,-0.16078 -0.0558,-0.32645 -0.1171,-0.49111 -0.0614,-0.16464 -0.1441,-0.32829 -0.24385,-0.48531 -0.0998,-0.15699 -0.21666,-0.30729 -0.34476,-0.44583 -0.12813,-0.13849 -0.26742,-0.26523 -0.4112,-0.37607 -0.14376,-0.1109 -0.29202,-0.20568 -0.43735,-0.28226 -0.1455,-0.0763 -0.28827,-0.13384 -0.4214,-0.17171 -0.1331,-0.0379 -0.25655,-0.0558 -0.36425,-0.0545 -0.10766,0.002 -0.19956,0.0221 -0.27103,0.0593 -0.0714,0.0377 -0.12228,0.0923 -0.14961,0.16034 -0.0274,0.068 -0.0312,0.14958 -0.0105,0.23967 0.0207,0.0901 0.0655,0.18897 0.13456,0.29062 0.0686,0.10177 0.16069,0.20665 0.27296,0.30882 0.11227,0.10215 0.24495,0.20152 0.39299,0.29264 0.14813,0.091 0.31153,0.17394 0.48429,0.24361 0.17276,0.0697 0.35476,0.12616 0.53908,0.16582 0.1843,0.0397 0.37094,0.0624 0.5527,0.0659 0.18175,0.004 0.35862,-0.012 0.52392,-0.0475 0.16528,-0.0354 0.31893,-0.0907 0.45522,-0.1648 0.13632,-0.074 0.25523,-0.16682 0.35257,-0.27573 0.0973,-0.10891 0.17296,-0.23395 0.22487,-0.37087 0.0518,-0.13707 0.0792,-0.28627 0.0824,-0.44243 0.003,-0.15619 -0.018,-0.31936 -0.0619,-0.48386 -0.0439,-0.16449 -0.11059,-0.33028 -0.19597,-0.49174 -0.0856,-0.16139 -0.19008,-0.31832 -0.30833,-0.4654 -0.11824,-0.14711 -0.25017,-0.2843 -0.38933,-0.40714 -0.13918,-0.1228 -0.28557,-0.23113 -0.43207,-0.32187 -0.14641,-0.0909 -0.29317,-0.16357 -0.43288,-0.21695 -0.13972,-0.0533 -0.27239,-0.0872 -0.39167,-0.10132 -0.11928,-0.0141 -0.22502,-0.009 -0.31199,0.0151 -0.0869,0.0238 -0.15509,0.0654 -0.20067,0.12234 -0.0457,0.0568 -0.0686,0.12866 -0.0673,0.21116 0.001,0.0826 0.0271,0.17563 0.0769,0.2741 0.0499,0.0985 0.12379,0.20227 0.21947,0.30568 0.0957,0.10335 0.21313,0.20636 0.34811,0.30322 0.13498,0.0969 0.28765,0.18736 0.45198,0.26684 0.16441,0.0793 0.34063,0.14739 0.52203,0.19982 0.18139,0.0525 0.36788,0.0893 0.55237,0.1078 0.18449,0.0184 0.3669,0.0184 0.54035,-10e-4 0.17348,-0.0197 0.33784,-0.0593 0.48706,-0.11825 0.14909,-0.0593 0.28314,-0.13727 0.397,-0.23294 0.11384,-0.0956 0.20751,-0.2087 0.27788,-0.33555 0.0707,-0.12667 0.1174,-0.26752 0.13995,-0.41732 0.0226,-0.14982 0.0205,-0.3087 -0.005,-0.47125 -0.0256,-0.16255 -0.0748,-0.3287 -0.14457,-0.49275 -0.0699,-0.164 -0.16041,-0.32583 -0.26691,-0.4799 -0.10651,-0.15406 -0.22899,-0.30031 -0.36136,-0.43388 -0.13237,-0.13355 -0.27466,-0.25439 -0.41997,-0.35861 -0.14527,-0.10428 -0.29347,-0.19199 -0.43766,-0.2605 -0.1441,-0.0687 -0.284,-0.11822 -0.41296,-0.148 -0.12897,-0.0298 -0.24683,-0.0397 -0.34793,-0.0307 -0.10111,0.009 -0.18524,0.037 -0.24818,0.0814 -0.0631,0.0444 -0.10455,0.10514 -0.12224,0.17855 -0.0178,0.0733 -0.0115,0.15923 0.0198,0.25251 0.0306,0.0934 0.0858,0.19429 0.16375,0.29711 0.078,0.10284 0.179,0.2075 0.29935,0.30832 0.12035,0.10081 0.26019,0.19767 0.41426,0.28521 0.15394,0.0878 0.32239,0.16574 0.49864,0.22988 0.17622,0.0642 0.36036,0.11426 0.54531,0.14693 0.18498,0.0327 0.37073,0.0478 0.55023,0.0435 0.1795,-0.004 0.35267,-0.0279 0.513,-0.0715 0.16032,-0.0434 0.30761,-0.10694 0.43679,-0.18822 0.12909,-0.0816 0.23972,-0.18148 0.32813,-0.29677 0.0884,-0.11532 0.15451,-0.246 0.19637,-0.38777 0.0419,-0.14181 0.0593,-0.2947 0.0527,-0.4535 -0.007,-0.15872 -0.0373,-0.32347 -0.0905,-0.48823 -0.0526,-0.16495 -0.12792,-0.32977 -0.22104,-0.48912 -0.0931,-0.15933 -0.20417,-0.31308 -0.3277,-0.45597 -0.12353,-0.1429 -0.25954,-0.27487 -0.40135,-0.39168 -0.14181,-0.11683 -0.28943,-0.21837 -0.43568,-0.30181 -0.14647,-0.083 -0.29121,-0.14843 -0.42782,-0.19386 -0.13659,-0.0454 -0.26479,-0.071 -0.37834,-0.0773 -0.11358,-0.006 -0.21239,0.007 -0.29156,0.038 -0.0791,0.0308 -0.13849,0.0795 -0.17483,0.14223 -0.0364,0.0626 -0.0495,0.13977 -0.0382,0.22634 0.0108,0.0866 0.0471,0.18282 0.10625,0.28336 0.0595,0.10038 0.14292,0.20497 0.24726,0.30795 0.1044,0.10301 0.22983,0.2043 0.37168,0.2985 0.14198,0.094 0.30046,0.1807 0.46925,0.25553 0.1689,0.0746 0.34843,0.1368 0.53161,0.18283 0.18316,0.0461 0.37,0.0757 0.55337,0.0866 0.18337,0.0109 0.36319,0.003 0.53274,-0.0249 0.16951,-0.0278 0.32861,-0.0755 0.47141,-0.14224 0.14281,-0.0667 0.26921,-0.15257 0.37472,-0.25517 0.10555,-0.10252 0.19004,-0.22194 0.25088,-0.35422 0.0608,-0.13227 0.0979,-0.27752 0.1105,-0.43079 0.0127,-0.15325 6.7e-4,-0.31461 -0.0342,-0.47839 -0.0351,-0.16379 -0.0933,-0.33002 -0.1712,-0.49297 -0.078,-0.16291 -0.17603,-0.32242 -0.28875,-0.47311 -0.11274,-0.15072 -0.24035,-0.29248 -0.37647,-0.4207"
         style="fill:none;stroke:#e2ce00;stroke-width:0.44400001;stroke-miterlimit:4;stroke-opacity:1;stroke-dasharray:none;stroke-dashoffset:0"
         inkscape:connector-curvature="0"
         inkscape:transform-center-x="-19.369668"
         inkscape:transform-center-y="-0.52560798" />
      <use
         x="0"
         y="0"
         xlink:href="#path6939-6"
         inkscape:transform-center-x="-3.8779946"
         inkscape:transform-center-y="-18.702228"
         id="use7082"
         transform="matrix(-0.28453524,0.95866558,-0.95866558,-0.28453524,1061.1251,682.22835)"
         width="744.09448"
         height="1052.3622" />
      <path
         sodipodi:type="arc"
         style="fill:#ff0000;fill-opacity:1;stroke:#ff0000;stroke-width:1.5;stroke-miterlimit:4;stroke-opacity:1;stroke-dasharray:none;stroke-dashoffset:0"
         id="path6384"
         sodipodi:cx="280"
         sodipodi:cy="802.36218"
         sodipodi:rx="5"
         sodipodi:ry="5"
         d="m 285,802.36218 c 0,2.76143 -2.23858,5 -5,5 -2.76142,0 -5,-2.23857 -5,-5 0,-2.76142 2.23858,-5 5,-5 2.76142,0 5,2.23858 5,5 z"
         transform="matrix(0.80177618,0,0,0.80177618,49.694367,74.889104)" />
      <path
         inkscape:transform-center-y="0.9536269"
         inkscape:transform-center-x="-4.2434742"
         inkscape:connector-curvature="0"
         style="fill:none;stroke:#e2ce00;stroke-width:0.44400001;stroke-miterlimit:4;stroke-opacity:1;stroke-dasharray:none;stroke-dashoffset:0"
         d="m 263.55921,745.44118 c 0.0706,0.16477 0.16393,0.32618 0.27767,0.47518 0.11375,0.149 0.24787,0.28544 0.39749,0.40172 0.14961,0.11627 0.31476,0.21219 0.48893,0.28235 0.17416,0.0702 0.35734,0.11438 0.54207,0.1301 0.18474,0.0153 0.37095,0.002 0.5511,-0.0385 0.18015,-0.0412 0.35412,-0.11076 0.51504,-0.20509 0.16092,-0.0944 0.30868,-0.21356 0.43783,-0.35147 0.12915,-0.1379 0.23957,-0.29455 0.32786,-0.46174 0.0883,-0.16718 0.15433,-0.34491 0.19713,-0.52388 0.0428,-0.17897 0.0623,-0.35914 0.0599,-0.53115 -0.002,-0.17199 -0.0268,-0.33569 -0.069,-0.4827 -0.0423,-0.147 -0.10274,-0.27714 -0.17542,-0.38386 -0.0727,-0.10672 -0.15767,-0.18984 -0.24782,-0.24538 -0.0901,-0.0556 -0.18546,-0.0832 -0.27827,-0.0823 -0.0927,7.1e-4 -0.18311,0.0307 -0.26349,0.0875 -0.0804,0.0567 -0.15083,0.14024 -0.20508,0.2457 -0.0543,0.10545 -0.0922,0.23289 -0.10941,0.37494 -0.0172,0.14204 -0.0136,0.29874 0.013,0.46119 0.0269,0.16242 0.0766,0.33062 0.14912,0.49507 0.0727,0.16442 0.1682,0.32505 0.28386,0.47285 0.11564,0.1478 0.25149,0.28264 0.40258,0.39698 0.15106,0.11435 0.31738,0.20803 0.49238,0.27574 0.17501,0.0677 0.35868,0.10929 0.54352,0.12228 0.18488,0.0128 0.37084,-0.002 0.55039,-0.0466 0.17956,-0.0439 0.35258,-0.11602 0.51225,-0.21265 0.15969,-0.0966 0.30587,-0.21799 0.43325,-0.35764 0.12739,-0.13967 0.23582,-0.2977 0.32201,-0.46587 0.0862,-0.16816 0.15001,-0.34644 0.19062,-0.52551 0.0406,-0.17908 0.0579,-0.35887 0.0533,-0.53008 -0.004,-0.1712 -0.0308,-0.33367 -0.0744,-0.47912 -0.0441,-0.14541 -0.10585,-0.27357 -0.17972,-0.37807 -0.0738,-0.10449 -0.15964,-0.18512 -0.25026,-0.23803 -0.0906,-0.053 -0.18604,-0.078 -0.2786,-0.0742 -0.0926,0.004 -0.1822,0.0362 -0.26167,0.0954 -0.0795,0.0592 -0.14861,0.14511 -0.2013,0.25263 -0.0526,0.1075 -0.0888,0.23671 -0.1041,0.38011 -0.0152,0.14342 -0.0102,0.30107 0.0193,0.46405 0.0286,0.16301 0.0808,0.33122 0.15566,0.49529 0.0748,0.16405 0.17242,0.32384 0.28996,0.47041 0.11756,0.14656 0.25511,0.27977 0.40761,0.39216 0.15249,0.11239 0.31996,0.20378 0.49576,0.26904 0.17582,0.0653 0.35994,0.10415 0.54489,0.11444 0.18495,0.0103 0.37066,-0.008 0.54957,-0.0548 0.17893,-0.0464 0.35098,-0.1212 0.50938,-0.22016 0.15839,-0.099 0.303,-0.22237 0.4286,-0.36375 0.12558,-0.14138 0.23199,-0.30078 0.31609,-0.46989 0.0841,-0.1691 0.1457,-0.34787 0.18409,-0.52699 0.0385,-0.17912 0.0535,-0.35853 0.0469,-0.52888 -0.007,-0.17037 -0.0346,-0.33158 -0.0803,-0.47534 -0.0457,-0.14376 -0.10897,-0.26995 -0.18396,-0.37217 -0.0748,-0.10224 -0.16154,-0.18036 -0.2526,-0.23064 -0.091,-0.0503 -0.18655,-0.0726 -0.27883,-0.0661 -0.0922,0.007 -0.18127,0.0417 -0.25975,0.10335 -0.0785,0.0617 -0.14629,0.14995 -0.19744,0.2595 -0.0511,0.10955 -0.0855,0.24046 -0.0987,0.38521 -0.0134,0.14472 -0.005,0.30333 0.0258,0.46677 0.0312,0.16342 0.0853,0.33174 0.16225,0.49537 0.077,0.16363 0.17663,0.32255 0.29606,0.46785 0.11942,0.1453 0.25866,0.27683 0.41254,0.38722 0.15391,0.1104 0.32249,0.19951 0.49906,0.26227 0.17658,0.0627 0.36113,0.099 0.54613,0.10658 0.18502,0.007 0.37041,-0.0137 0.54868,-0.0628 0.17826,-0.0492 0.3493,-0.12636 0.50637,-0.22763 0.1571,-0.10121 0.30011,-0.22671 0.42389,-0.36977 0.12377,-0.14305 0.22818,-0.30379 0.31014,-0.47378 0.082,-0.16999 0.14136,-0.34923 0.17757,-0.52838 0.0361,-0.17913 0.0491,-0.35808 0.0405,-0.52756 -0.008,-0.16948 -0.0385,-0.32938 -0.0859,-0.47148 -0.0473,-0.1421 -0.11205,-0.26624 -0.18808,-0.36619 -0.0759,-0.1 -0.1634,-0.17554 -0.25487,-0.22318 -0.0914,-0.0478 -0.18698,-0.0672 -0.27893,-0.0581 -0.0919,0.009 -0.18026,0.047 -0.25772,0.11125 -0.0775,0.0641 -0.14395,0.15476 -0.1935,0.26631 -0.0496,0.11154 -0.082,0.24413 -0.0933,0.39017 -0.011,0.14604 -8.3e-4,0.3055 0.032,0.46939 0.0333,0.16389 0.0898,0.33214 0.16881,0.49532 0.0791,0.16321 0.18083,0.3212 0.3021,0.46518 0.1213,0.14398 0.2622,0.2738 0.41745,0.38219 0.15527,0.10839 0.32495,0.19516 0.50226,0.25541 0.1773,0.0603 0.36226,0.0939 0.54728,0.0987 0.18504,0.004 0.3701,-0.0191 0.54768,-0.0708 0.17758,-0.0518 0.34756,-0.1315 0.50331,-0.23505 0.15576,-0.10351 0.29714,-0.23097 0.41909,-0.37568 0.12194,-0.14472 0.22431,-0.30673 0.30415,-0.47757 0.0798,-0.17086 0.13701,-0.35051 0.17102,-0.52962 0.034,-0.1791 0.0448,-0.35755 0.0342,-0.52612 -0.0105,-0.16857 -0.0421,-0.32714 -0.0914,-0.46751 -0.0489,-0.14039 -0.11507,-0.26248 -0.19215,-0.36013 -0.0772,-0.0977 -0.16517,-0.17069 -0.25701,-0.2157 -0.0918,-0.045 -0.18736,-0.0618 -0.27896,-0.05 -0.0916,0.0115 -0.17917,0.0524 -0.2556,0.11914 -0.0764,0.0667 -0.14153,0.15951 -0.18946,0.27302 -0.048,0.11352 -0.0786,0.24777 -0.0878,0.39506 -0.009,0.14727 0.003,0.30759 0.0385,0.47187 0.0354,0.16428 0.0941,0.33249 0.17533,0.49516 0.0813,0.16269 0.18501,0.31973 0.30814,0.46236 0.12312,0.14265 0.26564,0.27072 0.42226,0.37706 0.1566,0.10634 0.32734,0.19077 0.50535,0.24851 0.17802,0.0577 0.3633,0.0886 0.54834,0.0907 0.18501,0.002 0.36969,-0.0245 0.54653,-0.079 0.17684,-0.0544 0.34576,-0.13664 0.50014,-0.2424 0.15439,-0.10576 0.29413,-0.23519 0.41422,-0.38153 0.1201,-0.14632 0.22041,-0.30959 0.29812,-0.48125 0.0777,-0.17167 0.13264,-0.3517 0.16447,-0.53072 0.0319,-0.17903 0.0403,-0.35695 0.0278,-0.52457 -0.0126,-0.16759 -0.0463,-0.32476 -0.0968,-0.46342 -0.0506,-0.13867 -0.11797,-0.25866 -0.19613,-0.35398 -0.0781,-0.0953 -0.1669,-0.16581 -0.25906,-0.20815 -0.0922,-0.0423 -0.18767,-0.0563 -0.27888,-0.0419 -0.0911,0.015 -0.17802,0.0578 -0.25338,0.12693 -0.0754,0.0692 -0.13907,0.16423 -0.18535,0.27968 -0.0463,0.11546 -0.0749,0.25133 -0.0823,0.39982 -0.007,0.14849 0.007,0.30962 0.0448,0.47425 0.0376,0.16465 0.0986,0.33274 0.18189,0.49488 0.0833,0.16213 0.18914,0.31818 0.31407,0.45944 0.12495,0.14125 0.26909,0.26754 0.42702,0.37181 0.15792,0.10427 0.32966,0.18633 0.50837,0.24153 0.17869,0.0553 0.3643,0.0834 0.54928,0.0828 0.18497,-5.8e-4 0.36923,-0.0301 0.54528,-0.0874 0.17608,-0.0571 0.3439,-0.14175 0.4969,-0.24973 0.15299,-0.10799 0.29106,-0.23936 0.40927,-0.38727 0.11824,-0.14791 0.21648,-0.31238 0.29205,-0.48481 0.0756,-0.17243 0.12827,-0.35282 0.15791,-0.53171 0.0296,-0.1789 0.0361,-0.35625 0.0218,-0.52285 -0.0146,-0.1666 -0.05,-0.32237 -0.10231,-0.45922 -0.052,-0.1369 -0.12088,-0.25478 -0.20001,-0.34776 -0.0791,-0.093 -0.16856,-0.16088 -0.26102,-0.20056 -0.0924,-0.0397 -0.1879,-0.0509 -0.27869,-0.0337 -0.0908,0.0174 -0.17683,0.0631 -0.25106,0.1347 -0.0743,0.0716 -0.13653,0.1689 -0.18116,0.28626 -0.0446,0.11737 -0.0715,0.25482 -0.0767,0.40448 -0.005,0.14965 0.0114,0.31156 0.0511,0.4765 0.0399,0.16494 0.10296,0.3329 0.18841,0.49445 0.0854,0.16154 0.19327,0.31656 0.32001,0.4564 0.12675,0.13982 0.27247,0.26431 0.43168,0.36647 0.15922,0.10218 0.33195,0.18184 0.51129,0.2345 0.17932,0.0526 0.36524,0.0781 0.55013,0.0748 0.18489,-0.003 0.36871,-0.0355 0.54399,-0.0952 0.1753,-0.0596 0.34198,-0.14678 0.49355,-0.25697 0.1516,-0.11017 0.28796,-0.24347 0.40429,-0.39292 0.11635,-0.14944 0.21252,-0.31509 0.28593,-0.48826 0.0734,-0.17316 0.12389,-0.35382 0.15134,-0.53256 0.0274,-0.17874 0.0318,-0.35548 0.0152,-0.52105 -0.0164,-0.1656 -0.0539,-0.31985 -0.1076,-0.45493 -0.0537,-0.13509 -0.12374,-0.25083 -0.20381,-0.34144 -0.08,-0.0906 -0.17015,-0.15592 -0.26288,-0.19292 -0.0928,-0.0371 -0.18807,-0.0455 -0.27839,-0.0254 -0.0903,0.0199 -0.17555,0.0684 -0.24865,0.14243 -0.073,0.0739 -0.13396,0.17354 -0.1769,0.29279 -0.043,0.11924 -0.0679,0.25823 -0.071,0.40904 -0.002,0.15081 0.0157,0.31339 0.0576,0.47861 0.0421,0.16521 0.10736,0.33299 0.19491,0.49389 0.0876,0.16091 0.19737,0.31486 0.32589,0.45325 0.12851,0.13837 0.27581,0.26101 0.43628,0.36104 0.16048,0.10009 0.33418,0.17731 0.51412,0.22739 0.17993,0.0501 0.36608,0.0729 0.55087,0.0668 0.18477,-0.006 0.3681,-0.041 0.54257,-0.10321 0.17447,-0.0622 0.33997,-0.15181 0.49011,-0.26416 0.15014,-0.11235 0.28478,-0.24753 0.39922,-0.39848 0.11443,-0.15097 0.20852,-0.31774 0.27976,-0.4916 0.0713,-0.17385 0.11952,-0.35477 0.14479,-0.5333 0.0254,-0.17852 0.0274,-0.35459 0.009,-0.51907 -0.0187,-0.16447 -0.0576,-0.31729 -0.11287,-0.45053 -0.0553,-0.13327 -0.12656,-0.24683 -0.20754,-0.33505 -0.081,-0.0882 -0.17169,-0.15094 -0.26464,-0.18524 -0.093,-0.0343 -0.18819,-0.04 -0.27801,-0.0171 -0.0898,0.0226 -0.17421,0.0737 -0.24614,0.15016 -0.072,0.0764 -0.13131,0.17809 -0.17254,0.29917 -0.0413,0.1211 -0.0641,0.26161 -0.0653,0.4135 -8.3e-4,0.15189 0.02,0.31517 0.0645,0.48057 0.0441,0.16544 0.11173,0.33298 0.20142,0.4932 0.0896,0.16026 0.20143,0.31308 0.33169,0.44996 0.13029,0.13688 0.27911,0.25764 0.44082,0.35553 0.16171,0.0978 0.33633,0.1727 0.51684,0.22022 0.18051,0.0475 0.36689,0.0675 0.55151,0.0589 0.18462,-0.009 0.36744,-0.0463 0.54105,-0.11119 0.17361,-0.0648 0.33794,-0.1568 0.48661,-0.27129 0.14866,-0.11449 0.28156,-0.25153 0.39408,-0.40395 0.1125,-0.15243 0.20449,-0.32029 0.27358,-0.49479 0.0691,-0.17451 0.11512,-0.35563 0.13822,-0.53391 0.023,-0.17829 0.0231,-0.35366 0.002,-0.51703 -0.0203,-0.1634 -0.0614,-0.31461 -0.11814,-0.446 -0.0567,-0.13139 -0.12928,-0.24276 -0.21117,-0.32857 -0.0819,-0.0858 -0.17313,-0.1459 -0.2663,-0.17751 -0.0932,-0.0316 -0.18819,-0.0346 -0.27748,-0.009 -0.0893,0.0254 -0.17279,0.079 -0.24354,0.15781 -0.0708,0.0787 -0.12862,0.18262 -0.16811,0.30553 -0.0395,0.1229 -0.0605,0.26489 -0.0594,0.41785 8.3e-4,0.15295 0.0242,0.31686 0.0706,0.48247 0.0464,0.16562 0.1162,0.33287 0.20789,0.49242 0.0917,0.15952 0.20549,0.3112 0.33751,0.44655 0.13201,0.13535 0.28236,0.2542 0.44525,0.3499 0.16293,0.0957 0.33844,0.16809 0.51949,0.21301 0.18103,0.0449 0.3676,0.0622 0.55204,0.0507 0.18444,-0.0114 0.36666,-0.0522 0.53944,-0.11923 0.17271,-0.0674 0.3358,-0.16175 0.48298,-0.27835 0.14718,-0.1166 0.27831,-0.25547 0.38888,-0.40934 0.11057,-0.15386 0.20045,-0.32277 0.26736,-0.49788 0.0669,-0.1751 0.11072,-0.35639 0.13164,-0.53437"
         title="t+cos(3*t) 3*sin(3*t)"
         id="path7620" />
      <path
         sodipodi:type="arc"
         style="fill:#00ff00;fill-opacity:1;stroke:#00fe00;stroke-width:1.50041878;stroke-miterlimit:4;stroke-opacity:1;stroke-dasharray:none;stroke-dashoffset:0"
         id="path6384-1"
         sodipodi:cx="280"
         sodipodi:cy="802.36218"
         sodipodi:rx="5"
         sodipodi:ry="5"
         d="m 285,802.36218 c 0,2.76143 -2.23858,5 -5,5 -2.76142,0 -5,-2.23857 -5,-5 0,-2.76142 2.23858,-5 5,-5 2.76142,0 5,2.23858 5,5 z"
         transform="matrix(0.80177618,0,0,0.80177618,34.897998,100.99272)" />
      <path
         sodipodi:type="arc"
         style="fill:#0000ff;fill-opacity:1;stroke:#0000ff;stroke-width:1.5;stroke-miterlimit:4;stroke-opacity:1;stroke-dasharray:none;stroke-dashoffset:0"
         id="path6384-4"
         sodipodi:cx="280"
         sodipodi:cy="802.36218"
         sodipodi:rx="5"
         sodipodi:ry="5"
         d="m 285,802.36218 c 0,2.76143 -2.23858,5 -5,5 -2.76142,0 -5,-2.23857 -5,-5 0,-2.76142 2.23858,-5 5,-5 2.76142,0 5,2.23858 5,5 z"
         transform="matrix(0.80177618,0,0,0.80177618,72.896278,96.061426)" />
    </g>
    <g
       id="g11227"
       transform="matrix(1.1118621,0,0,1.1118621,-24.472975,-74.596572)">
      <g
         transform="translate(-0.75761441,-1.9276713)"
         id="g8833">
        <use
           x="0"
           y="0"
           xlink:href="#path5868"
           id="use7655"
           transform="translate(128.28937,22.728432)"
           width="744.09448"
           height="1052.3622" />
        <use
           x="0"
           y="0"
           xlink:href="#path6939-6"
           inkscape:transform-center-x="-19.369668"
           inkscape:transform-center-y="-0.52560798"
           id="use7657"
           transform="translate(128.28937,22.728432)"
           width="744.09448"
           height="1052.3622" />
        <use
           x="0"
           y="0"
           xlink:href="#use7082"
           inkscape:transform-center-x="-3.8779946"
           inkscape:transform-center-y="-18.702228"
           id="use7659"
           transform="translate(128.28937,22.728432)"
           width="744.09448"
           height="1052.3622" />
        <use
           x="0"
           y="0"
           xlink:href="#path6384"
           id="use7661"
           transform="translate(128.28937,22.728432)"
           width="744.09448"
           height="1052.3622" />
        <use
           x="0"
           y="0"
           xlink:href="#path7620"
           inkscape:transform-center-x="-4.2434742"
           inkscape:transform-center-y="0.9536269"
           id="use7663"
           transform="translate(128.28937,22.728432)"
           width="744.09448"
           height="1052.3622" />
        <use
           x="0"
           y="0"
           xlink:href="#path6384-1"
           id="use7665"
           transform="translate(128.28937,22.728432)"
           width="744.09448"
           height="1052.3622" />
        <use
           x="0"
           y="0"
           xlink:href="#path6384-4"
           id="use7667"
           transform="translate(128.28937,22.728432)"
           width="744.09448"
           height="1052.3622" />
      </g>
      <g
         transform="translate(-0.75761441,0.09263371)"
         id="g8851">
        <g
           id="g8842">
          <use
             height="1052.3622"
             width="744.09448"
             transform="translate(205.56604,20.708127)"
             id="use7669"
             xlink:href="#path5868"
             y="0"
             x="0" />
          <use
             height="1052.3622"
             width="744.09448"
             transform="translate(205.56604,20.708127)"
             id="use7671"
             inkscape:transform-center-y="-0.52560798"
             inkscape:transform-center-x="-19.369668"
             xlink:href="#path6939-6"
             y="0"
             x="0" />
          <use
             height="1052.3622"
             width="744.09448"
             transform="translate(205.56604,20.708127)"
             id="use7673"
             inkscape:transform-center-y="-18.702228"
             inkscape:transform-center-x="-3.8779946"
             xlink:href="#use7082"
             y="0"
             x="0" />
          <use
             height="1052.3622"
             width="744.09448"
             transform="translate(205.56604,20.708127)"
             id="use7675"
             xlink:href="#path6384"
             y="0"
             x="0" />
          <use
             height="1052.3622"
             width="744.09448"
             transform="translate(205.56604,20.708127)"
             id="use7677"
             inkscape:transform-center-y="0.9536269"
             inkscape:transform-center-x="-4.2434742"
             xlink:href="#path7620"
             y="0"
             x="0" />
          <use
             height="1052.3622"
             width="744.09448"
             transform="translate(205.56604,20.708127)"
             id="use7679"
             xlink:href="#path6384-1"
             y="0"
             x="0" />
          <use
             height="1052.3622"
             width="744.09448"
             transform="translate(205.56604,20.708127)"
             id="use7681"
             xlink:href="#path6384-4"
             y="0"
             x="0" />
        </g>
      </g>
      <path
         transform="matrix(-2.7743182,1.2830487,-1.2830487,-2.7743182,2542.7003,2159.0073)"
         sodipodi:open="true"
         sodipodi:end="2.720173"
         sodipodi:start="1.3100066"
         d="m 432.57844,717.02405 c -4.73962,1.26485 -9.69691,-1.095 -11.70353,-5.5713"
         sodipodi:ry="10"
         sodipodi:rx="10"
         sodipodi:cy="707.36218"
         sodipodi:cx="430"
         id="path7683"
         style="fill:none;stroke:#000303;stroke-width:0.26172519;stroke-miterlimit:4;stroke-opacity:1;stroke-dasharray:none;stroke-dashoffset:0;marker-start:url(#Arrow1Mstart);marker-end:url(#Arrow1Mend)"
         sodipodi:type="arc" />
      <path
         transform="matrix(2.8030829,-1.2189264,1.2189264,2.8030829,-1624.1138,-697.74581)"
         sodipodi:open="true"
         sodipodi:end="2.720173"
         sodipodi:start="1.3100066"
         d="m 432.57844,717.02405 c -4.73962,1.26485 -9.69691,-1.095 -11.70353,-5.5713"
         sodipodi:ry="10"
         sodipodi:rx="10"
         sodipodi:cy="707.36218"
         sodipodi:cx="430"
         id="path7683-6"
         style="fill:none;stroke:#000303;stroke-width:0.26172519;stroke-miterlimit:4;stroke-opacity:1;stroke-dasharray:none;stroke-dashoffset:0;marker-start:url(#Arrow1Mstart);marker-end:url(#Arrow1Mend)"
         sodipodi:type="arc" />
      <g
         transform="translate(0,-8.5862966)"
         id="g10224">
        <path
           sodipodi:type="arc"
           style="fill:none;stroke:#000303;stroke-width:0.80000001;stroke-miterlimit:4;stroke-opacity:1;stroke-dasharray:none;stroke-dashoffset:0"
           id="path8863-0"
           sodipodi:cx="440"
           sodipodi:cy="662.36218"
           sodipodi:rx="15"
           sodipodi:ry="15"
           d="m 455,662.36218 c 0,8.28427 -6.71573,15 -15,15 -8.28427,0 -15,-6.71573 -15,-15 0,-8.28427 6.71573,-15 15,-15 8.28427,0 15,6.71573 15,15 z"
           transform="translate(3.03046,155.80965)" />
        <path
           id="path10149"
           title="t+cos(3*t) 3*sin(3*t)"
           d="m 438.19657,815.76895 c -0.023,0.0687 -0.044,0.13856 -0.0626,0.20928 -0.0187,0.0707 -0.0349,0.14219 -0.0487,0.21407 -0.0138,0.0719 -0.0251,0.14415 -0.0337,0.21641 -0.009,0.0723 -0.0146,0.14442 -0.0179,0.21615 -0.003,0.0717 -0.004,0.14302 -10e-4,0.21346 0.002,0.0704 0.008,0.13995 0.0158,0.20825 0.008,0.0683 0.0192,0.13527 0.0332,0.20064 0.014,0.0654 0.0309,0.12899 0.0506,0.1907 0.0198,0.0617 0.0424,0.12133 0.0679,0.17859 0.0255,0.0573 0.0538,0.11214 0.0847,0.16443 0.031,0.0523 0.0647,0.10181 0.10093,0.14845 0.0363,0.0467 0.0751,0.0903 0.11635,0.13078 0.0412,0.0405 0.0849,0.0778 0.13073,0.11172 0.0456,0.0343 0.094,0.0643 0.14375,0.0917 0.0498,0.0274 0.10201,0.0505 0.15569,0.0703 0.054,0.0195 0.10908,0.0361 0.1659,0.0486 0.0568,0.0125 0.11513,0.0214 0.17452,0.0265 0.0594,0.005 0.11994,0.007 0.18132,0.004 0.0614,-0.002 0.12357,-0.008 0.18627,-0.0177 0.0627,-0.009 0.12597,-0.0226 0.18931,-0.0391 0.0634,-0.0166 0.12695,-0.0366 0.19036,-0.0598 0.0634,-0.0233 0.12663,-0.0498 0.18945,-0.0794 0.0627,-0.0296 0.12503,-0.0623 0.18656,-0.0978 0.0615,-0.0355 0.12215,-0.0738 0.18172,-0.1146 0.0596,-0.0407 0.11806,-0.0841 0.17509,-0.12964 0.057,-0.0456 0.11266,-0.0932 0.16658,-0.14276 0.0539,-0.0495 0.10614,-0.10093 0.15642,-0.15377 0.0503,-0.0528 0.0986,-0.10712 0.14471,-0.1625 0.0462,-0.0554 0.0901,-0.11178 0.13164,-0.16887 0.0419,-0.0569 0.0808,-0.11479 0.11739,-0.17275 0.0367,-0.0579 0.0703,-0.11638 0.10222,-0.17405 0.0311,-0.0582 0.0597,-0.11602 0.0858,-0.17305 0.0259,-0.0572 0.0489,-0.11385 0.069,-0.16945 0.0201,-0.0555 0.0374,-0.11019 0.0518,-0.16335 0.0144,-0.0532 0.0259,-0.10491 0.0345,-0.15485 0.009,-0.0499 0.0143,-0.0981 0.017,-0.14414 0.003,-0.046 0.003,-0.0899 -7e-5,-0.13125 -0.003,-0.0414 -0.008,-0.0803 -0.0168,-0.1164 -0.008,-0.0361 -0.0192,-0.0695 -0.0326,-0.0998 -0.0135,-0.0303 -0.0294,-0.0576 -0.0477,-0.0816 -0.0183,-0.024 -0.0389,-0.0448 -0.0616,-0.0621 -0.0226,-0.0176 -0.0478,-0.0309 -0.0744,-0.0416 -0.0265,-0.0106 -0.0554,-0.017 -0.0856,-0.0201 -0.0303,-0.003 -0.0621,-0.002 -0.0953,0.002 -0.0332,0.004 -0.0677,0.0123 -0.10324,0.024 -0.0355,0.0117 -0.0722,0.0271 -0.10941,0.0462 -0.0373,0.019 -0.0752,0.0417 -0.11369,0.0679 -0.0384,0.0263 -0.0771,0.056 -0.11598,0.0891 -0.0389,0.0331 -0.0777,0.0697 -0.11634,0.10948 -0.0386,0.0398 -0.0769,0.0828 -0.11469,0.12868 -0.0378,0.0458 -0.0749,0.0949 -0.11108,0.14651 -0.0365,0.0515 -0.0713,0.10609 -0.10562,0.16268 -0.0338,0.0569 -0.0669,0.11588 -0.0982,0.1771 -0.0316,0.0611 -0.0611,0.12449 -0.0891,0.18943 -0.0281,0.065 -0.0542,0.13165 -0.0785,0.1996 -0.0242,0.068 -0.0464,0.13727 -0.0662,0.20753 -0.0199,0.0702 -0.0376,0.14134 -0.0527,0.21297 -0.0152,0.0716 -0.0279,0.14379 -0.038,0.21601 -0.0101,0.0723 -0.0176,0.14454 -0.0223,0.21649 -0.005,0.072 -0.007,0.14358 -0.006,0.21447 8e-4,0.0709 0.005,0.14099 0.0111,0.20994 0.007,0.0689 0.0161,0.13676 0.0284,0.20299 0.0124,0.0662 0.0276,0.13091 0.0458,0.19369 0.0181,0.0628 0.0392,0.12365 0.0631,0.18215 0.0239,0.0586 0.0506,0.11486 0.0801,0.16856 0.0295,0.0537 0.0617,0.10482 0.0965,0.15306 0.0348,0.0482 0.0723,0.0936 0.11214,0.13587 0.0399,0.0422 0.0822,0.0813 0.12682,0.11719 0.0445,0.0359 0.0915,0.0683 0.14039,0.0972 0.0489,0.029 0.0996,0.0549 0.15266,0.0761 0.0526,0.0221 0.10724,0.0401 0.16323,0.0547 0.056,0.0146 0.11353,0.0255 0.17233,0.0326 0.0587,0.007 0.11875,0.0106 0.17959,0.0105 0.0609,-2.2e-4 0.12269,-0.004 0.1851,-0.0116 0.0624,-0.008 0.12542,-0.0186 0.18866,-0.0332 0.0633,-0.0146 0.12682,-0.0327 0.19028,-0.0542 0.0635,-0.0214 0.12685,-0.0462 0.18989,-0.0741 0.0631,-0.0279 0.12562,-0.0589 0.18756,-0.0928 0.0619,-0.0339 0.12313,-0.0707 0.18326,-0.11011 0.0602,-0.0394 0.11926,-0.0814 0.17707,-0.12567 0.0578,-0.0443 0.11429,-0.0908 0.16911,-0.13933 0.0548,-0.0485 0.1081,-0.0989 0.1594,-0.15092 0.0513,-0.0521 0.10083,-0.10555 0.14816,-0.16029 0.0473,-0.0547 0.0926,-0.11064 0.13548,-0.1673 0.0429,-0.0567 0.0834,-0.11414 0.12142,-0.17194 0.0379,-0.0579 0.0735,-0.11598 0.10671,-0.17384 0.0328,-0.0581 0.0631,-0.11602 0.0904,-0.1736 0.0273,-0.0576 0.052,-0.11454 0.0738,-0.17068 0.0218,-0.0561 0.0406,-0.11137 0.0567,-0.16525 0.016,-0.0539 0.0291,-0.10652 0.0393,-0.15744 0.0102,-0.0509 0.0175,-0.10018 0.0219,-0.14733 0.004,-0.0472 0.006,-0.0923 0.005,-0.13504 -0.001,-0.0427 -0.005,-0.0831 -0.0122,-0.12079 -0.007,-0.0377 -0.0163,-0.0726 -0.0283,-0.10457 -0.0121,-0.032 -0.0267,-0.061 -0.0436,-0.0869 -0.017,-0.0258 -0.0364,-0.0485 -0.0579,-0.0676 -0.0216,-0.0193 -0.0452,-0.0352 -0.0708,-0.0476 -0.0256,-0.0124 -0.0532,-0.0213 -0.0827,-0.0261 -0.0294,-0.005 -0.0604,-0.007 -0.0927,-0.004 -0.0324,0.002 -0.0663,0.008 -0.10119,0.0178 -0.035,0.01 -0.0711,0.023 -0.10792,0.04 -0.0369,0.017 -0.0746,0.0377 -0.11268,0.0619 -0.0381,0.0242 -0.0768,0.0521 -0.11552,0.0833 -0.0388,0.0312 -0.0777,0.066 -0.11641,0.10395 -0.0387,0.038 -0.0773,0.0792 -0.11538,0.12346 -0.038,0.0443 -0.0755,0.0916 -0.11225,0.14171 -0.0368,0.05 -0.0726,0.10299 -0.10729,0.15839 -0.0351,0.0551 -0.0684,0.11318 -0.10048,0.17327 -0.0322,0.06 -0.0632,0.12205 -0.0919,0.18618 -0.0287,0.0641 -0.0563,0.12979 -0.0816,0.197 -0.0253,0.0672 -0.0486,0.13589 -0.0698,0.20554 -0.0211,0.0697 -0.0401,0.14037 -0.0566,0.2117 -0.0165,0.0714 -0.0307,0.14324 -0.0422,0.21539 -0.0115,0.0721 -0.0206,0.14446 -0.0268,0.2166 -0.006,0.0722 -0.01,0.14403 -0.0106,0.21526 -7.9e-4,0.0713 10e-4,0.14188 0.006,0.21145 0.005,0.0696 0.0128,0.13806 0.0235,0.20517 0.0108,0.067 0.0244,0.13268 0.041,0.19649 0.0165,0.0638 0.036,0.12585 0.0583,0.18558 0.0223,0.0598 0.0474,0.1174 0.0754,0.17253 0.028,0.0551 0.0587,0.10771 0.092,0.15753 0.0333,0.0498 0.0694,0.0968 0.1079,0.1408 0.0385,0.044 0.0795,0.0849 0.12284,0.12252 0.0433,0.0377 0.089,0.072 0.13671,0.10293 0.0478,0.0309 0.0976,0.0583 0.14928,0.0822 0.0517,0.0239 0.10527,0.0442 0.16045,0.0607 0.0552,0.0166 0.11192,0.0295 0.16998,0.0388 0.0581,0.009 0.11739,0.0148 0.17778,0.0166 0.0604,0.002 0.12172,0 0.18374,-0.005 0.0621,-0.006 0.12477,-0.0146 0.18787,-0.0273 0.0631,-0.0127 0.12655,-0.0288 0.19001,-0.0484 0.0635,-0.0196 0.12703,-0.0425 0.1902,-0.0687 0.0632,-0.0261 0.12608,-0.0555 0.1884,-0.0878 0.0622,-0.0323 0.12397,-0.0675 0.18466,-0.10547 0.0607,-0.0379 0.12049,-0.0785 0.17896,-0.12153 0.0586,-0.043 0.11576,-0.0884 0.17154,-0.13572 0.0557,-0.0474 0.10989,-0.0968 0.16228,-0.14791 0.0524,-0.0511 0.10296,-0.10384 0.15141,-0.15792 0.0485,-0.054 0.095,-0.10938 0.13912,-0.16561 0.0441,-0.0562 0.086,-0.11332 0.12543,-0.1709 0.0398,-0.0573 0.0766,-0.11545 0.1111,-0.17345 0.0344,-0.0581 0.066,-0.11622 0.0952,-0.17384 0.0286,-0.0579 0.0547,-0.11538 0.0784,-0.17176 0.0233,-0.0566 0.0439,-0.11239 0.0614,-0.16704 0.0176,-0.0546 0.0323,-0.10804 0.0441,-0.15984 0.0118,-0.0518 0.0207,-0.10207 0.0267,-0.15036 0.006,-0.0483 0.009,-0.0946 0.009,-0.13866 2.5e-4,-0.044 -0.002,-0.0857 -0.008,-0.12489 -0.005,-0.0391 -0.0133,-0.0757 -0.0239,-0.1092 -0.0106,-0.0336 -0.0239,-0.0643 -0.0395,-0.0919 -0.0157,-0.0275 -0.0338,-0.052 -0.0541,-0.0731 -0.0204,-0.0209 -0.0429,-0.0388 -0.0675,-0.0531 -0.0246,-0.0142 -0.0513,-0.0248 -0.0796,-0.0321 -0.0283,-0.007 -0.0585,-0.0106 -0.0901,-0.0105 -0.0316,1.9e-4 -0.0647,0.004 -0.099,0.0116 -0.0343,0.008 -0.0699,0.0188 -0.10623,0.0338 -0.0364,0.015 -0.0737,0.0336 -0.11152,0.0559 -0.0378,0.0222 -0.0763,0.0481 -0.11492,0.0775 -0.0386,0.0294 -0.0775,0.0621 -0.11639,0.0983 -0.0388,0.0362 -0.0775,0.0756 -0.1158,0.11819 -0.0383,0.0426 -0.0763,0.0882 -0.11335,0.13678 -0.0371,0.0486 -0.0735,0.1 -0.10887,0.15391 -0.0355,0.0539 -0.0693,0.11071 -0.10286,0.16914 -0.0329,0.0588 -0.0643,0.11999 -0.0945,0.18277 -0.0303,0.0628 -0.0583,0.1278 -0.0846,0.19421 -0.0264,0.0664 -0.0508,0.13435 -0.0732,0.20342 -0.0223,0.069 -0.0425,0.13931 -0.0604,0.21024 -0.0179,0.0709 -0.0333,0.14263 -0.0463,0.21463 -0.013,0.072 -0.0234,0.14434 -0.0311,0.21654 -0.008,0.0722 -0.0129,0.14431 -0.0151,0.21592 -0.002,0.0715 -0.002,0.14266 0.002,0.21276 0.003,0.0701 0.01,0.13932 0.0187,0.20715 0.009,0.0679 0.0211,0.13433 0.0361,0.19914 0.0149,0.0647 0.0328,0.12781 0.0535,0.18882 0.0207,0.061 0.0443,0.11987 0.0707,0.17637 0.0264,0.0564 0.0556,0.11054 0.0875,0.16184 0.0319,0.0514 0.0665,0.1 0.10358,0.14559 0.0371,0.0456 0.0768,0.0883 0.11882,0.12771 0.042,0.0395 0.0864,0.0757 0.13301,0.10841 0.0467,0.0326 0.0955,0.0618 0.1458,0.0883 0.0507,0.0257 0.10341,0.0478 0.1575,0.0668 0.0542,0.0187 0.11019,0.0336 0.16748,0.0449 0.0573,0.0113 0.11602,0.0189 0.17576,0.0228 0.0598,0.004 0.12063,0.004 0.18228,6.3e-4 0.0616,-0.003 0.12409,-0.0106 0.18693,-0.0213 0.0629,-0.0107 0.12619,-0.025 0.18961,-0.0426 0.0634,-0.0177 0.12699,-0.0388 0.19035,-0.0632 0.0634,-0.0244 0.12647,-0.052 0.1891,-0.0826 0.0626,-0.0306 0.12466,-0.0643 0.18588,-0.10072 0.0613,-0.0364 0.12157,-0.0756 0.18076,-0.11723 0.0592,-0.0417 0.11724,-0.0857 0.17377,-0.13197 0.0565,-0.0463 0.11162,-0.0946 0.16497,-0.14477 0.0534,-0.0502 0.10495,-0.10207 0.15457,-0.15538 0.0496,-0.0533 0.0973,-0.10799 0.14265,-0.16372 0.0454,-0.0557 0.0886,-0.11239 0.12934,-0.16968 0.0409,-0.0572 0.0791,-0.11514 0.11487,-0.17318 0.0356,-0.0581 0.069,-0.11618 0.0994,-0.17415 0.0308,-0.0577 0.0583,-0.11557 0.0831,-0.17263 0.0247,-0.0571 0.047,-0.11335 0.0662,-0.16858"
           style="fill:none;stroke:#e2ce00;stroke-width:0.44400001;stroke-miterlimit:4;stroke-opacity:1;stroke-dasharray:none;stroke-dashoffset:0"
           inkscape:connector-curvature="0"
           inkscape:transform-center-x="2.5559757"
           inkscape:transform-center-y="-3.4187591" />
        <path
           transform="matrix(0.80177618,0,0,0.80177618,209.66405,172.27336)"
           d="m 285,802.36218 c 0,2.76143 -2.23858,5 -5,5 -2.76142,0 -5,-2.23857 -5,-5 0,-2.76142 2.23858,-5 5,-5 2.76142,0 5,2.23858 5,5 z"
           sodipodi:ry="5"
           sodipodi:rx="5"
           sodipodi:cy="802.36218"
           sodipodi:cx="280"
           id="path6384-4-2"
           style="fill:#0000ff;fill-opacity:1;stroke:#0000ff;stroke-width:1.5;stroke-miterlimit:4;stroke-opacity:1;stroke-dasharray:none;stroke-dashoffset:0"
           sodipodi:type="arc" />
        <path
           transform="matrix(0.80177618,0,0,0.80177618,226.66577,178.5181)"
           d="m 285,802.36218 c 0,2.76143 -2.23858,5 -5,5 -2.76142,0 -5,-2.23857 -5,-5 0,-2.76142 2.23858,-5 5,-5 2.76142,0 5,2.23858 5,5 z"
           sodipodi:ry="5"
           sodipodi:rx="5"
           sodipodi:cy="802.36218"
           sodipodi:cx="280"
           id="path6384-1-0"
           style="fill:#00ff00;fill-opacity:1;stroke:#00fe00;stroke-width:1.50041878;stroke-miterlimit:4;stroke-opacity:1;stroke-dasharray:none;stroke-dashoffset:0"
           sodipodi:type="arc" />
      </g>
      <g
         transform="translate(-1.0101525,4.5456865)"
         id="g10218">
        <path
           sodipodi:type="arc"
           style="fill:none;stroke:#000303;stroke-width:0.80000001;stroke-miterlimit:4;stroke-opacity:1;stroke-dasharray:none;stroke-dashoffset:0"
           id="path8863"
           sodipodi:cx="440"
           sodipodi:cy="662.36218"
           sodipodi:rx="15"
           sodipodi:ry="15"
           d="m 455,662.36218 c 0,8.28427 -6.71573,15 -15,15 -8.28427,0 -15,-6.71573 -15,-15 0,-8.28427 6.71573,-15 15,-15 8.28427,0 15,6.71573 15,15 z"
           transform="translate(3.0304576,30.809653)" />
        <path
           id="path10149-4"
           title="t+cos(3*t) 3*sin(3*t)"
           d="m 437.97386,694.19688 c 0.0333,0.0643 0.0688,0.12812 0.10647,0.19073 0.0377,0.0627 0.0776,0.12412 0.11959,0.18411 0.0419,0.06 0.0859,0.11846 0.13172,0.17497 0.0456,0.0569 0.0934,0.11108 0.14256,0.16346 0.0492,0.0522 0.0998,0.10255 0.1524,0.14948 0.0519,0.0476 0.10595,0.0919 0.16037,0.1338 0.0546,0.0418 0.1104,0.0805 0.16703,0.11602 0.0567,0.0356 0.11404,0.0678 0.17203,0.0967 0.0581,0.0287 0.11657,0.0541 0.1754,0.0757 0.0588,0.0217 0.11791,0.0397 0.17694,0.0539 0.0591,0.014 0.11806,0.0249 0.17687,0.0308 0.0588,0.007 0.11716,0.009 0.17489,0.007 0.0579,-10e-4 0.11496,-0.007 0.17123,-0.0159 0.0564,-0.008 0.11162,-0.0226 0.16595,-0.0393 0.0544,-0.0166 0.1073,-0.0379 0.15891,-0.0627 0.0516,-0.0252 0.10185,-0.053 0.15047,-0.0851 0.0487,-0.0321 0.0956,-0.0678 0.14063,-0.1067 0.0449,-0.0392 0.0887,-0.0811 0.12922,-0.12727 0.0414,-0.0455 0.0803,-0.0942 0.11708,-0.14591 0.0372,-0.0512 0.0716,-0.10611 0.10389,-0.16303 0.0323,-0.057 0.0623,-0.11655 0.0898,-0.1782 0.0275,-0.0618 0.0525,-0.12552 0.075,-0.19122 0.0225,-0.0655 0.0424,-0.13308 0.0598,-0.20196 0.0175,-0.0687 0.0322,-0.13904 0.0445,-0.21019 0.0118,-0.0711 0.022,-0.14328 0.0286,-0.21599 0.007,-0.0727 0.0117,-0.14574 0.014,-0.21892 0.002,-0.0733 0.002,-0.14647 -10e-4,-0.21934 -0.003,-0.0728 -0.008,-0.14535 -0.0157,-0.21703 -0.008,-0.0717 -0.0173,-0.1425 -0.0294,-0.21208 -0.0116,-0.0697 -0.026,-0.13794 -0.0421,-0.20458 -0.0161,-0.0666 -0.0345,-0.13151 -0.0537,-0.1946 -0.0201,-0.0629 -0.0416,-0.12367 -0.0643,-0.18212 -0.0231,-0.0584 -0.0476,-0.11441 -0.0734,-0.16756 -0.0258,-0.0531 -0.0529,-0.10356 -0.081,-0.151 -0.0281,-0.0474 -0.0572,-0.0917 -0.087,-0.13265 -0.0295,-0.0412 -0.0603,-0.0786 -0.0915,-0.11262 -0.0309,-0.0342 -0.0624,-0.0649 -0.0942,-0.0913 -0.0317,-0.0268 -0.0632,-0.0502 -0.0951,-0.0691 -0.0316,-0.0195 -0.0632,-0.0347 -0.0943,-0.0462 -0.0311,-0.0118 -0.0618,-0.0195 -0.0917,-0.023 -0.03,-0.003 -0.0592,-0.003 -0.0875,10e-4 -0.0284,0.004 -0.0554,0.0128 -0.0817,0.0244 -0.026,0.0116 -0.0508,0.0279 -0.074,0.0473 -0.0232,0.0196 -0.0446,0.0432 -0.065,0.0696 -0.0202,0.0267 -0.0383,0.0571 -0.0547,0.0907 -0.0163,0.0335 -0.0309,0.0706 -0.0431,0.11065 -0.0121,0.04 -0.0227,0.083 -0.0306,0.12886 -0.008,0.046 -0.0138,0.0943 -0.0169,0.14528 -0.004,0.0509 -0.005,0.10428 -0.002,0.15973 0.002,0.0555 0.006,0.11285 0.012,0.17195 0.006,0.0591 0.0158,0.11983 0.0276,0.18175 0.0115,0.062 0.0264,0.12509 0.0431,0.18912 0.0173,0.0639 0.0365,0.12874 0.0586,0.19385 0.0218,0.0652 0.0468,0.13058 0.0738,0.19592 0.027,0.0655 0.0567,0.1306 0.0885,0.19539 0.0319,0.0648 0.0662,0.12894 0.10271,0.1921 0.0365,0.0633 0.0752,0.12547 0.11602,0.18619 0.0407,0.0609 0.0837,0.12023 0.12843,0.17779 0.0449,0.0577 0.0914,0.11341 0.13974,0.16687 0.0482,0.0537 0.0981,0.10511 0.14963,0.15375 0.0514,0.0489 0.10461,0.0947 0.15831,0.13834 0.0543,0.0429 0.10929,0.0838 0.16538,0.12114 0.0562,0.0372 0.11311,0.0714 0.17081,0.10213 0.0576,0.0309 0.11599,0.0582 0.17462,0.0816 0.0587,0.0237 0.11765,0.0438 0.17673,0.0599 0.0591,0.016 0.11817,0.0288 0.17701,0.0375 0.0587,0.009 0.1175,0.0137 0.17559,0.0143 0.058,6.5e-4 0.11561,-0.002 0.17245,-0.009 0.0567,-0.007 0.11273,-0.018 0.16752,-0.033 0.055,-0.0149 0.10878,-0.0331 0.16097,-0.0565 0.0525,-0.0223 0.10348,-0.049 0.153,-0.0789 0.0495,-0.03 0.0972,-0.0636 0.14346,-0.10087 0.0459,-0.0373 0.0904,-0.0777 0.13268,-0.12148 0.0422,-0.0438 0.0826,-0.0908 0.12067,-0.14085 0.0377,-0.0503 0.0741,-0.10291 0.10765,-0.15845 0.0336,-0.0555 0.0649,-0.11373 0.0938,-0.17423 0.0288,-0.0605 0.0553,-0.12316 0.0791,-0.18783 0.024,-0.0647 0.0453,-0.13114 0.0642,-0.19918 0.0183,-0.0681 0.0351,-0.13758 0.0487,-0.20817 0.0137,-0.0706 0.0245,-0.1423 0.0333,-0.21458 0.009,-0.0723 0.0148,-0.14522 0.0179,-0.21838 0.003,-0.0731 0.004,-0.14648 0.003,-0.2195 -0.002,-0.0731 -0.005,-0.14588 -0.0121,-0.21796 -0.007,-0.0721 -0.0148,-0.1435 -0.0256,-0.21375 -0.0106,-0.0703 -0.0238,-0.13936 -0.0386,-0.20691 -0.0151,-0.0675 -0.0319,-0.13352 -0.0503,-0.19766 -0.0189,-0.064 -0.0392,-0.1261 -0.0614,-0.18581 -0.0222,-0.0597 -0.0458,-0.11709 -0.0709,-0.17186 -0.025,-0.0547 -0.0517,-0.10671 -0.079,-0.15581 -0.0274,-0.0491 -0.0561,-0.0951 -0.0854,-0.13791 -0.0295,-0.0428 -0.0596,-0.0823 -0.0904,-0.11838 -0.0311,-0.0358 -0.0619,-0.0686 -0.0934,-0.0976 -0.0313,-0.0291 -0.0631,-0.0543 -0.0951,-0.0754 -0.0319,-0.0213 -0.0634,-0.0389 -0.0947,-0.0525 -0.0314,-0.0139 -0.0624,-0.0234 -0.0927,-0.0292 -0.0303,-0.005 -0.0602,-0.008 -0.0889,-0.005 -0.0289,0.002 -0.0567,0.008 -0.0834,0.0177 -0.0267,0.01 -0.0524,0.0232 -0.0763,0.0411 -0.024,0.0176 -0.0471,0.0385 -0.0674,0.0637 -0.0212,0.0246 -0.0405,0.0532 -0.0577,0.085 -0.0172,0.0321 -0.0331,0.067 -0.0466,0.10528 -0.0138,0.0382 -0.0249,0.0797 -0.034,0.12395 -0.01,0.0441 -0.0168,0.0913 -0.0206,0.1409 -0.005,0.0496 -0.007,0.10179 -0.007,0.15591 9.1e-4,0.0543 0.003,0.11063 0.008,0.1688 0.005,0.0581 0.0131,0.11797 0.0234,0.17926 0.0104,0.0612 0.0232,0.12383 0.0388,0.18733 0.0151,0.0636 0.0336,0.12794 0.0542,0.19279 0.0205,0.0649 0.0435,0.13039 0.0695,0.19566 0.0259,0.0652 0.0539,0.13083 0.0844,0.19581 0.0305,0.065 0.0635,0.12954 0.0987,0.1933 0.0353,0.0637 0.0727,0.12657 0.11239,0.1881 0.0396,0.0616 0.0814,0.12185 0.12507,0.18037 0.0437,0.0585 0.0892,0.11545 0.13667,0.17017 0.0476,0.0546 0.0963,0.10758 0.147,0.1576 0.0506,0.0502 0.10246,0.0981 0.15582,0.14305 0.0534,0.045 0.10794,0.0871 0.16355,0.12612 0.0556,0.039 0.11215,0.075 0.16947,0.1076 0.0572,0.0326 0.11535,0.0619 0.17374,0.0875 0.0584,0.0257 0.11723,0.0477 0.17628,0.0661 0.059,0.018 0.11815,0.033 0.1771,0.0437 0.059,0.0109 0.1178,0.0178 0.17619,0.0205 0.0584,0.003 0.11625,0.002 0.17345,-0.003 0.0572,-0.004 0.11366,-0.0136 0.16911,-0.0263 0.0554,-0.0127 0.10981,-0.0294 0.16298,-0.0498 0.0531,-0.0203 0.10504,-0.0448 0.15535,-0.0728 0.0504,-0.0281 0.0991,-0.0597 0.14627,-0.0948 0.047,-0.0354 0.0925,-0.0739 0.13581,-0.11594 0.0434,-0.0419 0.0849,-0.0873 0.12446,-0.13526 0.039,-0.0487 0.0764,-0.0997 0.11139,-0.15375 0.0349,-0.0541 0.0675,-0.11085 0.0977,-0.17002 0.0301,-0.0592 0.058,-0.12073 0.0833,-0.18429 0.0252,-0.0635 0.048,-0.1291 0.0684,-0.19628 0.0202,-0.067 0.0379,-0.13596 0.053,-0.20594 0.0146,-0.0701 0.0274,-0.14116 0.0372,-0.2131 0.01,-0.072 0.0168,-0.14468 0.0219,-0.21764 0.005,-0.0729 0.007,-0.14626 0.007,-0.21944 2.9e-4,-0.0731 -0.003,-0.14622 -0.008,-0.21864 -0.005,-0.0724 -0.0124,-0.14435 -0.0218,-0.2152 -0.01,-0.0708 -0.0214,-0.14064 -0.0352,-0.20904 -0.0133,-0.0685 -0.0295,-0.1354 -0.047,-0.20056 -0.0176,-0.0652 -0.0374,-0.12832 -0.0584,-0.18942 -0.0215,-0.0609 -0.0446,-0.11964 -0.0685,-0.17593 -0.0244,-0.0562 -0.0501,-0.10981 -0.0771,-0.16044 -0.0269,-0.0507 -0.055,-0.0984 -0.0839,-0.14301 -0.0289,-0.0445 -0.0587,-0.0861 -0.0892,-0.12393 -0.0305,-0.0379 -0.0616,-0.0724 -0.0932,-0.10305 -0.0313,-0.0308 -0.0628,-0.0583 -0.0951,-0.0813 -0.0317,-0.0237 -0.0635,-0.0432 -0.095,-0.0589 -0.0315,-0.0159 -0.0628,-0.0276 -0.0935,-0.0356 -0.0307,-0.007 -0.0608,-0.0122 -0.09,-0.0126 -0.0292,-3.2e-4 -0.0576,0.003 -0.0852,0.011 -0.0274,0.008 -0.0536,0.0195 -0.0785,0.0346 -0.0248,0.0154 -0.0484,0.0345 -0.0704,0.0573 -0.0219,0.0228 -0.0423,0.0492 -0.0607,0.0791 -0.0181,0.0302 -0.0352,0.0632 -0.0497,0.0997 -0.0147,0.0365 -0.0273,0.0763 -0.0375,0.11896 -0.0105,0.0427 -0.0183,0.0883 -0.0246,0.13639 -0.006,0.0482 -0.009,0.0988 -0.0105,0.152 -7.6e-4,0.0531 5.3e-4,0.10824 0.004,0.16541 0.004,0.0572 0.01,0.11619 0.019,0.1766 0.009,0.0604 0.0206,0.12241 0.0345,0.18535 0.0139,0.0631 0.0312,0.12684 0.0497,0.19163 0.0193,0.0646 0.0412,0.12974 0.0653,0.19513 0.0239,0.0655 0.0511,0.13088 0.0803,0.19603 0.0292,0.0652 0.0609,0.13006 0.0949,0.19425 0.0339,0.064 0.0703,0.12756 0.10871,0.18983 0.0384,0.0622 0.0791,0.12328 0.12166,0.18278 0.0426,0.0595 0.0872,0.11736 0.13362,0.1732 0.0462,0.056 0.0945,0.10984 0.14434,0.16129 0.0499,0.0513 0.10088,0.10079 0.15398,0.14685 0.0523,0.0466 0.10689,0.0899 0.1616,0.13093 0.055,0.0408 0.11106,0.0784 0.16799,0.11282 0.0568,0.0344 0.11453,0.0656 0.1727,0.0932 0.0582,0.0277 0.11685,0.0517 0.17577,0.0721 0.0588,0.0204 0.11801,0.0373 0.17705,0.05 0.0591,0.0129 0.11807,0.0219 0.17661,0.0272 0.0586,0.005 0.11681,0.006 0.17439,0.004 0.0576,-0.002 0.11449,-0.01 0.17045,-0.0199 0.056,-0.0103 0.11089,-0.0254 0.16492,-0.043 0.0538,-0.0185 0.10638,-0.0408 0.15768,-0.0664 0.0512,-0.0257 0.10092,-0.0556 0.14891,-0.0888 0.0479,-0.0332 0.0944,-0.07 0.13884,-0.11015 0.0445,-0.0402 0.087,-0.0838 0.12747,-0.1303 0.0408,-0.0464 0.0789,-0.0964 0.11501,-0.14892 0.0362,-0.0525 0.07,-0.10792 0.10166,-0.16565 0.0315,-0.0579 0.0607,-0.11811 0.0873,-0.18055 0.0267,-0.0625 0.051,-0.12695 0.0725,-0.1932 0.0218,-0.0662 0.0407,-0.13422 0.0573,-0.2035 0.0165,-0.0694 0.0302,-0.13991 0.042,-0.21131 0.0109,-0.0716 0.0197,-0.14386 0.0267,-0.21659 0.006,-0.0728 0.01,-0.14598 0.011,-0.21921 0.001,-0.0732 -4.1e-4,-0.14641 -0.004,-0.21912 -0.004,-0.0728 -0.009,-0.14505 -0.0181,-0.21641 -0.009,-0.0713 -0.0188,-0.14186 -0.0315,-0.211 -0.0124,-0.0691 -0.0275,-0.13698 -0.0442,-0.20309 -0.0168,-0.066 -0.0353,-0.13044 -0.0556,-0.19263 -0.02,-0.0623 -0.0423,-0.12234 -0.0659,-0.1799 -0.0238,-0.0576 -0.0485,-0.1127 -0.0748,-0.16495"
           style="fill:none;stroke:#e2ce00;stroke-width:0.44400001;stroke-miterlimit:4;stroke-opacity:1;stroke-dasharray:none;stroke-dashoffset:0"
           inkscape:connector-curvature="0"
           inkscape:transform-center-x="4.6222284"
           inkscape:transform-center-y="-0.4977663" />
        <path
           transform="matrix(0.80177618,0,0,0.80177618,210.2502,51.101028)"
           d="m 285,802.36218 c 0,2.76143 -2.23858,5 -5,5 -2.76142,0 -5,-2.23857 -5,-5 0,-2.76142 2.23858,-5 5,-5 2.76142,0 5,2.23858 5,5 z"
           sodipodi:ry="5"
           sodipodi:rx="5"
           sodipodi:cy="802.36218"
           sodipodi:cx="280"
           id="path6384-6"
           style="fill:#ff0000;fill-opacity:1;stroke:#ff0000;stroke-width:1.5;stroke-miterlimit:4;stroke-opacity:1;stroke-dasharray:none;stroke-dashoffset:0"
           sodipodi:type="arc" />
        <path
           transform="matrix(0.80177618,0,0,0.80177618,226.93689,48.28351)"
           d="m 285,802.36218 c 0,2.76143 -2.23858,5 -5,5 -2.76142,0 -5,-2.23857 -5,-5 0,-2.76142 2.23858,-5 5,-5 2.76142,0 5,2.23858 5,5 z"
           sodipodi:ry="5"
           sodipodi:rx="5"
           sodipodi:cy="802.36218"
           sodipodi:cx="280"
           id="path6384-4-8"
           style="fill:#0000ff;fill-opacity:1;stroke:#0000ff;stroke-width:1.5;stroke-miterlimit:4;stroke-opacity:1;stroke-dasharray:none;stroke-dashoffset:0"
           sodipodi:type="arc" />
      </g>
    </g>
    <path
       style="fill:none;stroke:#000000;stroke-width:1.77417016;stroke-linecap:butt;stroke-linejoin:miter;stroke-miterlimit:4;stroke-opacity:1;stroke-dasharray:none;marker-end:url(#Arrow1Mend-0)"
       d="m 292.64875,711.39862 87.25293,-14.19725"
       id="path10239"
       inkscape:connector-curvature="0" />
    <flowRoot
       xml:space="preserve"
       id="flowRoot10631"
       style="font-size:12px;font-style:normal;font-variant:normal;font-weight:normal;font-stretch:normal;text-align:start;line-height:125%;letter-spacing:0px;word-spacing:0px;writing-mode:lr-tb;text-anchor:start;fill:#000000;fill-opacity:1;stroke:none;font-family:Sans;-inkscape-font-specification:Sans"
       transform="translate(-56.28125,13.619943)"><flowRegion
         id="flowRegion10633"><rect
           id="rect10635"
           width="131.58041"
           height="48.071167"
           x="276.27673"
           y="746.79102" /></flowRegion><flowPara
         id="flowPara10637">&quot;`muss nahe heranfliegen, um Kernkraft zu spren&quot;'</flowPara></flowRoot>    <path
       style="fill:none;stroke:#000000;stroke-width:1.11186206px;stroke-linecap:butt;stroke-linejoin:miter;stroke-opacity:1;marker-start:url(#Arrow1Mstart-0);marker-end:none"
       d="m 486.98357,684.09604 33.35586,-16.67793"
       id="path10639"
       inkscape:connector-curvature="0" />
    <text
       xml:space="preserve"
       style="font-size:12px;font-style:normal;font-variant:normal;font-weight:normal;font-stretch:normal;text-align:start;line-height:125%;letter-spacing:0px;word-spacing:0px;writing-mode:lr-tb;text-anchor:start;fill:#000000;fill-opacity:1;stroke:none;font-family:Sans;-inkscape-font-specification:Sans"
       x="523.98987"
       y="669.83679"
       id="text11223"
       sodipodi:linespacing="125%"><tspan
         sodipodi:role="line"
         id="tspan11225"
         x="523.98987"
         y="669.83679">Kernkraft</tspan></text>
  </g>
</svg>
